<?xml version="1.0" standalone="no"?>
<!DOCTYPE svg PUBLIC "-//W3C//DTD SVG 1.1//EN" "http://www.w3.org/Graphics/SVG/1.1/DTD/svg11.dtd" >
<svg>
<metadata>
Created by FontForge 20090914 at Thu Nov 17 10:37:51 2016
 By www-data
Copyright (c) Alexandra Gophmann &#38; Anatole, 2004. All rights reserved.
</metadata>
<defs>
<font id="Edisson" horiz-adv-x="157" >
  <font-face 
    font-family="Edisson"
    font-weight="400"
    font-stretch="normal"
    units-per-em="1165"
    panose-1="2 0 4 0 0 0 0 0 0 0"
    ascent="932"
    descent="-233"
    x-height="437.001"
    cap-height="703"
    bbox="-104.999 -246.999 1000 965"
    underline-thickness="17"
    underline-position="-106"
    unicode-range="U+0020-U+F002"
  />
<missing-glyph horiz-adv-x="583" 
d="M73 0v965h437v-965h-437zM146 73h291v819h-291v-819z" />
    <glyph glyph-name=".notdef" horiz-adv-x="583" 
d="M73 0v965h437v-965h-437zM146 73h291v819h-291v-819z" />
    <glyph glyph-name="space" unicode=" " horiz-adv-x="254" 
 />
    <glyph glyph-name="exclam" unicode="!" horiz-adv-x="191" 
d="M163 246c0 -26.667 -48.333 -54 -145 -82l41 50v413c-1.33301 1.33301 -3.33301 2 -6 2c-4 0 -11.333 -2 -22 -6c-11.333 -4 -18.666 -6 -21.999 -6c-4 0 -6 1.66699 -6 5c43.333 30 96.666 52.333 159.999 67v-443zM173 52c0 -15.333 -5.5 -28.666 -16.5 -39.999
s-24.5 -17 -40.5 -17s-29.667 5.66699 -41 17s-17 24.666 -17 39.999c0 16 5.66699 29.667 17 41s25 17 41 17s29.5 -5.66699 40.5 -17s16.5 -25 16.5 -41z" />
    <glyph glyph-name="quotedbl" unicode="&#x22;" horiz-adv-x="215" 
d="M192 688l-26 -194h-21l-30 194h77zM94 688l-27 -194h-21l-30 194h78z" />
    <glyph glyph-name="numbersign" unicode="#" horiz-adv-x="305" 
d="M282 524l-12 -42h-51l-12 -44h51l-12 -41h-50l-48 -180h-42l49 180h-49l-48 -180h-42l48 180h-55l12 41h55l12 44h-55l11 42h55l42 158h41l-42 -158h49l42 158h41l-42 -158h52zM178 482h-49l-12 -44h49z" />
    <glyph glyph-name="dollar" unicode="$" horiz-adv-x="435" 
d="M427 284c0 -48.667 -15.001 -91.333 -45.001 -128c-28.667 -36.667 -66 -58.667 -112 -66v-86h-25v84c-12.667 0 -24.334 1 -35.001 3v-87h-25v93c-37.333 10 -64.666 15 -81.999 15c-26.667 0 -50.667 -22.667 -72 -68c-5.33301 18 -8 29 -8 33
c0 9.33301 10 33.666 30 72.999c20 40 30 73 30 99c0 16.667 -4.33301 33.667 -13 51c18 0 35.667 -22 53 -66c21.333 -53.333 42 -88 62 -104v243c-58 28.667 -98.333 56.334 -121 83.001c6 34 20.5 64.5 43.5 91.5s48.833 45.833 77.5 56.5v83h25v-75
c4.66699 0.666992 8.66699 1.16699 12 1.5s6 0.5 8 0.5c7.33301 0 12.333 -0.333008 15 -1v74h25v-78l59 -12c12.667 -2.66699 18.334 -4 17.001 -4c15.333 0 34 4.33301 56 13l-102 -93c-10 12 -20 21.667 -30 29v-111c104.667 -54 157 -103 157 -147zM244.999 445.001
l0.000976562 109c-6.66699 2.66699 -18.334 5.66699 -35.001 9v-101l15 -7.5c6 -3 12.667 -6.16699 20 -9.5zM185 475.001v88.001c-22 -0.666992 -43.667 -13.334 -65 -38.001c4 -12 25.667 -28.667 65 -50zM391 218.002c-18 40 -58.333 77.333 -121 112v-219
c24.667 4.66699 48.5 16.667 71.5 36s39.5 43 49.5 71zM245 108.002v235.998c-3.33301 0.666992 -15 6.33398 -35 17.001v-246c12 -3.33301 23.667 -5.66602 35 -6.99902z" />
    <glyph glyph-name="percent" unicode="%" horiz-adv-x="605" 
d="M478 686c0 -66 -22.998 -145.332 -68.998 -237.999l-63.5 -115l-63.5 -114c-46 -83.333 -69 -147 -69 -191c-30.667 -6 -60.334 -16.333 -89.001 -31c0 69.333 21.667 146.333 65 231l60 104l61 104c43.333 79.333 65 148.333 65 207
c11.333 3.33301 25.666 8.66602 42.999 15.999s37.333 16.333 60 27zM294.002 490.001c0 -60 -52.332 -125 -156.999 -195c-41.333 20 -74 47 -98 81c-20 28.667 -30 56 -30 82c0 46 22 89.667 66 131c37.333 35.333 68.666 53 93.999 53c18 0 42.667 -16.667 74 -50
c34 -36 51 -70 51 -102zM587.003 194.001c0 -60 -52.001 -125 -156.001 -195c-41.333 20 -74 47 -98 81c-20.667 28.667 -31 55.667 -31 81c0 46.667 22 90.667 66 132c38.667 35.333 70.334 53 95.001 53c18 0 42.667 -16.667 74 -50c33.333 -36.667 50 -70.667 50 -102z
M240.002 452.001c0 25.333 -16.667 54 -50 86s-59.333 48 -78 48c-8 0 -18 -8 -30 -24c-14 -17.333 -21 -34 -21 -50c0 -30 18 -63 54 -99c32.667 -32.667 58 -49 76 -49c10.667 0 21.667 10.667 33 32c10.667 21.333 16 40 16 56zM534.002 155.001
c0 26 -17.333 55.335 -52 88.002c-33.333 31.333 -59 47 -77 47c-8 0 -18.333 -8.33301 -31 -25s-19 -33.334 -19 -50.001c0 -30 18 -63 54 -99c32.667 -32 57.667 -48 75 -48c10.667 0 21.667 10.667 33 32s17 39.666 17 54.999z" />
    <glyph glyph-name="ampersand" unicode="&#x26;" horiz-adv-x="721" 
d="M706 373c0 -40 -13.6699 -74.668 -41.0029 -104.001c-26.667 -28.667 -59.334 -42.667 -98.001 -42c-36 1.33301 -66.333 13.333 -91 36c-25.333 23.333 -38 51.666 -38 84.999c0 14.667 2.66699 28.667 8 42s12.833 24.833 22.5 34.5s20.834 17.334 33.501 23.001
s26.334 8.5 41.001 8.5c12.667 0 24.667 -2.16699 36 -6.5s21.166 -10.333 29.499 -18s15 -16.667 20 -27s7.5 -21.5 7.5 -33.5c0 -20.667 -6.66699 -38.667 -20 -54s-29.666 -23 -48.999 -23c-16 0 -30 5.5 -42 16.5s-18 24.167 -18 39.5c0 23.333 11 35 33 35
c23.333 0 35 -10.667 35 -32c0 -14 -6 -24.333 -18 -31c0 -3.33301 5 -5 15 -5c12 0 22.667 5.16699 32 15.5s14 22.166 14 35.499c0 18.667 -7.16699 34.5 -21.5 47.5s-31.166 19.5 -50.499 19.5c-24 0 -44.667 -8.5 -62 -25.5s-26 -37.5 -26 -61.5
c0 -14 2.83301 -26.833 8.5 -38.5s13.5 -21.667 23.5 -30s21.667 -15.166 35 -20.499s27.333 -8.33301 42 -9c32.667 -1.33301 61 10 85 34s36 53 36 87c0 36 -14.333 65.333 -43 88c-28.667 23.333 -61.667 35 -99 35c-82.667 0 -153.334 -49 -212.001 -147
c98.667 -102.667 148 -195 148 -277c0 -62.667 -15.667 -116.667 -47 -162c-35.333 -50 -80 -75 -134 -75c-31.333 0 -61.333 9.33301 -90 28l44 54c16.667 -34 45 -51 85 -51c26 0 47.667 12 65 36c14.667 21.333 22 47.666 22 78.999c0 38.667 -15.333 80.334 -46 125.001
c-19.333 28 -53.333 68 -102 120c-28 -84 -42 -161.333 -42 -232c-30.667 4 -59 13 -85 27c-62.667 34 -109 90.333 -139 169c0 36 14.333 70.667 43 104c18.667 22 49.667 50 93 84c-27.333 43.333 -41 85.333 -41 126c0 46.667 19.333 86.334 58 119.001
c25.333 21.333 68.666 46 129.999 74c8.66699 -6.66699 17.334 -13 26.001 -19s17.334 -12.333 26.001 -19c15.333 -15.333 23 -37.666 23 -66.999c0 -36 -40 -88.333 -120 -157l27 -28.5l40 -40.5c60.667 102.667 133.334 154 218.001 154c44 0 83.333 -13.667 118 -41
c34.667 -26.667 52 -61.334 52 -104.001zM287.997 537.999c0 17.333 -6.66699 34.333 -20 51c-3.33301 4 -18 18 -44 42l-32.5 -34c-11 -11.333 -16.5 -24 -16.5 -38c0 -27.333 21 -65 63 -113c33.333 33.333 50 64 50 92zM259.997 243.999l-58.999 64.5029
c-16 18.333 -28.667 33.833 -38 46.5c-16.667 -14.667 -31 -28.834 -43 -42.501s-22 -26.834 -30 -39.501c16 -72.667 57.333 -123.334 124 -152.001l18 49.5c7.33301 20.333 16.666 44.833 27.999 73.5z" />
    <glyph glyph-name="quotesingle" unicode="'" horiz-adv-x="112" 
d="M94 688l-27 -194h-21l-30 194h78z" />
    <glyph glyph-name="parenleft" unicode="(" horiz-adv-x="273" 
d="M359 771c-166.667 -142 -250 -293.332 -250 -453.999c0 -72.667 24.333 -144.667 73 -216c47.333 -68.667 93.333 -105.334 138 -110.001l-85 -83c-61.333 21.333 -112.333 63 -153 125c-44 66.667 -66 141.667 -66 225c0 192 109 363 327 513h16z" />
    <glyph glyph-name="parenright" unicode=")" horiz-adv-x="318" 
d="M294 507c0 -124.667 -41.999 -244.002 -125.999 -358.002c-65.333 -88 -150.333 -167.667 -255 -239h-18c194 166 291 342.333 291 529c0 84.667 -28.333 168.334 -85 251.001c-54 80 -107.667 123 -161 129l99 96c71.333 -25.333 130.666 -74 177.999 -146
c51.333 -77.333 77 -164.666 77 -261.999z" />
    <glyph glyph-name="asterisk" unicode="*" horiz-adv-x="268" 
d="M258 567c0 -14 -11.333 -20.999 -34 -20.999c-8.66699 0 -17.667 0.5 -27 1.5s-19 2.16699 -29 3.5c16.667 -11.333 31.667 -23.333 45 -36c5.33301 -5.33301 8 -11.666 8 -18.999c0 -12.667 -7 -18.667 -21 -18c-7.33301 1.33301 -12.666 4 -15.999 8
c-11.333 12.667 -23.333 28.667 -36 48c4 -27.333 6 -47.333 6 -60c0 -17.333 -7 -26 -21 -26s-21 8.66699 -21 26c0 4 0.833008 11.5 2.5 22.5s4.16699 25.167 7.5 42.5c-27.333 -44 -49.666 -66 -66.999 -66c-4 0 -7.5 1.5 -10.5 4.5s-4.5 6.83301 -4.5 11.5
c0 16 19 36.667 57 62c-10.667 -1.33301 -20.667 -2.5 -30 -3.5s-17.666 -1.5 -24.999 -1.5c-17.333 0 -26 7 -26 21c0 13.333 8.66699 20 26 20c7.33301 0 16.166 -0.666992 26.499 -2s22.166 -3.33301 35.499 -6c-42.667 24 -64 45.333 -64 64c0 10.667 5.33301 16 16 16
c17.333 0 38.666 -20 63.999 -60c-2.66699 16 -4.66699 28.667 -6 38s-2 15.666 -2 18.999c0 22.667 7 34 21 34s21 -11.333 21 -34c0 -11.333 -2 -29 -6 -53c8 10.667 20 24.667 36 42c12 13.333 22.667 14.666 32 3.99902c8.66699 -10 7.66699 -21 -3 -33
c-7.33301 -7.33301 -25 -20.333 -53 -39c24 6.66699 45.333 10 64 10c22.667 0 34 -6.66699 34 -20z" />
    <glyph glyph-name="plus" unicode="+" horiz-adv-x="283" 
d="M263 332h-102v-110h-41v110h-101v41h101v93h41v-93h102v-41z" />
    <glyph glyph-name="comma" unicode="," horiz-adv-x="189" 
d="M169 -45c0 -70 -46.333 -124 -139 -162c46 38.667 69 74.667 69 108c0 28.667 -10.667 53.667 -32 75c-18.667 20 -36.667 29.333 -54 28l100 44c14.667 0 27.667 -8 39 -24s17 -39 17 -69z" />
    <glyph glyph-name="hyphen" unicode="-" horiz-adv-x="225" 
d="M196 257h-174v48h174v-48z" />
    <glyph glyph-name="hyphen" unicode="&#x2010;" horiz-adv-x="225" 
d="M196 257h-174v48h174v-48z" />
    <glyph glyph-name="period" unicode="." horiz-adv-x="183" 
d="M154 61c0 -18.667 -6.5 -34.5 -19.5 -47.5s-28.833 -19.5 -47.5 -19.5s-34.5 6.5 -47.5 19.5s-19.5 28.833 -19.5 47.5s6.5 34.5 19.5 47.5s28.833 19.5 47.5 19.5s34.5 -6.5 47.5 -19.5s19.5 -28.833 19.5 -47.5z" />
    <glyph glyph-name="slash" unicode="/" horiz-adv-x="428" 
d="M9 0c-0.666992 81.333 23.668 170.998 73.001 268.998l70 121l70 121c50 92 76.667 172.333 80 241c13.333 4.66699 30 11 50 19s43.333 18.333 70 31c-6.66699 -74.667 -37.334 -167 -92.001 -277l-71 -133.5l-72 -133.5c-49.333 -97.333 -74 -171.333 -74 -222
c-17.333 -3.33301 -34.5 -8.16602 -51.5 -14.499s-34.167 -14.166 -51.5 -23.499z" />
    <glyph glyph-name="zero" unicode="0" horiz-adv-x="479" 
d="M456 353c0 -58.667 -17.667 -121.667 -53 -189c-41.333 -77.333 -95 -133 -161 -167c-146.667 68.667 -219.667 183 -219 343c0.666992 82.667 21.667 153.834 63 213.501s100.333 104.5 177 134.5c128.667 -76.667 193 -188.334 193 -335.001zM389 322
c0 45.333 -18.667 97.334 -56 156.001c-43.333 64.667 -94.333 108.667 -153 132c-58 -58 -87 -118 -87 -180c0 -72.667 17.667 -139.667 53 -201c40.667 -70 96 -115.333 166 -136c51.333 61.333 77 137.666 77 228.999z" />
    <glyph glyph-name="one" unicode="1" horiz-adv-x="188" 
d="M160 0h-108.001v595c-4.66699 14.667 -16 22 -34 22c-8 0 -16 -1.33301 -24 -4l-5 3l111 69l11.5 -2c3.66699 -0.666992 7.16699 -1.66699 10.5 -3c16.667 -6 29.334 -15.333 38.001 -28v-652z" />
    <glyph glyph-name="two" unicode="2" horiz-adv-x="492" 
d="M494 118c-30.667 -88.667 -81.9961 -133.001 -153.996 -133.001c-36.667 0 -73 12 -109 36c-35.333 24 -66 36 -92 36c-12.667 0 -31.334 -7 -56.001 -21c-28 -16 -49.667 -35 -65 -57l-13 3c28 72.667 74.667 129.667 140 171l77 40.5l78 40.5
c48.667 32 73 76.667 73 134c0 42.667 -18.333 88.334 -55 137.001c-40 50.667 -86.667 87.334 -140 110.001c-26 0 -42.333 -11 -49 -33c4 -14.667 10.667 -34.334 20 -59.001s21.333 -54.667 36 -90c24 -57.333 36 -94.333 36 -111c0 -24 -9 -46 -27 -66
c-17.333 -19.333 -38.333 -29 -63 -29c-16 0 -29.833 5.83301 -41.5 17.5s-17.5 25.5 -17.5 41.5c0 14 4.33301 26.5 13 37.5s19.667 16.5 33 16.5c11.333 0 21.166 -3.5 29.499 -10.5s12.5 -15.5 12.5 -25.5c0 -18 -9.33301 -27 -28 -27s-27.334 9.66699 -26.001 29
c-8.66699 0.666992 -13 -7 -13 -23c0 -24 13.667 -36 41 -36c8.66699 0 17 2.16699 25 6.5s14.833 10 20.5 17s10.167 15 13.5 24s5 18.167 5 27.5c0 37.333 -14.333 68.333 -43 93c-4 3.33301 -12.667 9.5 -26 18.5s-31.666 20.167 -54.999 33.5
c-28.667 16.667 -43 33.667 -43 51c0 20.667 20.667 52.667 62 96c46.667 48.667 92.334 73 137.001 73c3.33301 0 6.66602 -0.166992 9.99902 -0.5s6.66602 -0.833008 9.99902 -1.5c30.667 0 71.667 -26.667 123 -80c55.333 -59.333 83 -115 83 -167
c0 -77.333 -27 -139.333 -81 -186c-20.667 -17.333 -49.167 -36 -85.5 -56s-81.166 -40.667 -134.499 -62c60.667 0 108.667 -11.667 144 -35c36.667 -23.333 70 -35 100 -35c16 0 31.667 6 47 18c3.33301 2.66699 8.16602 7.16699 14.499 13.5s14.166 14.833 23.499 25.5z
" />
    <glyph glyph-name="three" unicode="3" horiz-adv-x="497" 
d="M474 273c0 -93.333 -72.999 -184.333 -218.999 -273c-62.667 0 -116.667 17.667 -162 53c-46.667 36.667 -70 84.334 -70 143.001c0 36.667 13 68.667 39 96c26 26.667 57.667 40 95 40c31.333 0 59.666 -9 84.999 -27c24.667 -18 37 -41.667 37 -71
c0 -24 -7.66699 -44.333 -23 -61s-34.666 -25 -57.999 -25c-18.667 0 -34.667 6 -48 18s-20 27 -20 45c0 12 4.16699 22.333 12.5 31s18.5 13 30.5 13c22 0 33 -11.333 33 -34c0 -20.667 -10.667 -31 -32 -31c-4.66699 0 -10 1.33301 -16 4c0 -18 13.333 -27 40 -27
c17.333 0 32 6.66699 44 20s18 29 18 47c0 22 -9 40 -27 54s-39 21 -63 21c-24.667 0 -46 -9.66699 -64 -29c-17.333 -19.333 -26 -41.333 -26 -66c0 -44.667 30.333 -80.334 91 -107.001c46.667 -21.333 89.334 -32 128.001 -32c60 24.667 90 67.334 90 128.001
c0 48 -16.333 88.667 -49 122c-32.667 34.667 -70.667 52 -114 52c-13.333 0 -25 -1.33301 -35 -4l128 191c-18 11.333 -41.333 17.333 -70 18h-58c-36.667 0 -62.334 -8 -77.001 -24c-6 -6 -17.333 -27.333 -34 -64c-12 18.667 -18 35 -18 49
c0 47.333 47 94.666 141 141.999c35.333 -29.333 78.333 -44 129 -44c35.333 0 69.666 13.667 102.999 41l5 -7l-144 -209c48 -12 89.667 -37.667 125 -77s53 -78 53 -116z" />
    <glyph glyph-name="four" unicode="4" horiz-adv-x="484" 
d="M464 188l-0.998047 -85c-35.333 24 -63.333 40 -84 48v-154h-113l-1 168c-98.667 -3.33301 -179.334 -15.333 -242.001 -36c21.333 158.667 85 299 191 421c45.333 51.333 96.666 97.333 153.999 138h11v-473c26 -4 54.333 -13 85 -27zM265.002 203l-0.999023 345
c-34.667 -24 -70.667 -71.667 -108 -143c-32 -62 -48 -104.333 -48 -127c0 -58 31 -87 93 -87c15.333 0 36.666 4 63.999 12z" />
    <glyph glyph-name="five" unicode="5" horiz-adv-x="500" 
d="M474 258c0 -70.667 -23.9932 -131.332 -71.9932 -181.999c-46.667 -50.667 -104.334 -76 -173.001 -76c-55.333 0 -103.333 16 -144 48c-42.667 32.667 -64 75 -64 127c0 46.667 17 86 51 118c33.333 32.667 73.666 49 120.999 49c38.667 0 71.334 -12.333 98.001 -37
c27.333 -24 41 -54.333 41 -91c0 -36 -12.333 -66.333 -37 -91c-25.333 -25.333 -55 -38 -89 -38c-13.333 0 -25.666 2.5 -36.999 7.5s-21.333 11.833 -30 20.5s-15.5 18.667 -20.5 30s-7.5 23.666 -7.5 36.999c0 21.333 6.5 40 19.5 56s29.5 24 49.5 24
c19.333 0 36.666 -5.5 51.999 -16.5s23 -25.167 23 -42.5c0 -29.333 -13 -44 -39 -44c-8.66699 0 -16.834 3.33301 -24.501 10s-11.5 14.667 -11.5 24c0 20 8 32.667 24 38c-3.33301 5.33301 -10.333 8 -21 8c-14 0 -26.167 -6 -36.5 -18s-15.5 -25.667 -15.5 -41
c0 -20.667 7.66699 -37.834 23 -51.501s33.666 -20.5 54.999 -20.5c14 0 27.333 2.83301 40 8.5s23.667 13.167 33 22.5s16.666 20.5 21.999 33.5s8 26.5 8 40.5c0 30 -12 55 -36 75c-22.667 20.667 -50.334 31 -83.001 31c-40.667 0 -75.334 -14 -104.001 -42
c-28.667 -26.667 -43 -60 -43 -100c0 -43.333 18 -79.333 54 -108c34.667 -27.333 75 -41 121 -41c47.333 0 86.333 17.333 117 52c32 34.667 48 76.334 48 125.001c0 52 -16 97.667 -48 137s-72.667 59 -122 59c-56 0 -100.667 -13.667 -134 -41l-3 2l45 320
c40 -18.667 87 -28 141 -28c44 0 88 11 132 33h15c-36 -51.333 -68.667 -83 -98 -95s-86 -18 -170 -18c0 -2 -5 -28 -15 -78c26 9.33301 52 14 78 14c67.333 0 128.666 -25 183.999 -75s83 -108.333 83 -175z" />
    <glyph glyph-name="six" unicode="6" horiz-adv-x="445" 
d="M422 270c0 -91.333 -66.002 -182.331 -198.002 -272.998c-61.333 32.667 -110.666 76.667 -147.999 132c-36.667 54.667 -55 111.334 -55 170.001c0 71.333 18.333 142.666 55 213.999c41.333 81.333 95.666 138.666 162.999 171.999h13
c-52 -32 -93.667 -87.333 -125 -166c-22.667 -58 -34 -111.667 -34 -161c0 -126.667 67 -220.334 201 -281.001c39.333 38 59 77.667 59 119c0 44 -10 84 -30 120c-23.333 40.667 -55.333 68.334 -96 83.001c-40 -16 -60 -49.333 -60 -100c0 -52.667 18 -79 54 -79
c31.333 0 47 12.667 47 38c0 12.667 -3.33301 19 -10 19c-3.33301 -20 -13.666 -30 -30.999 -30c-21.333 0 -32 10 -32 30c0 21.333 10 33 30 35c42 4.66699 63 -14.333 63 -57c0 -16 -7.16699 -29.5 -21.5 -40.5s-30.166 -16.5 -47.499 -16.5
c-22.667 0 -41.667 10.667 -57 32c-13.333 19.333 -20 42.333 -20 69c0 72 44.667 134.667 134 188c42 -20.667 77.667 -54.334 107 -101.001c26 -42 39 -80.667 39 -116z" />
    <glyph glyph-name="seven" unicode="7" horiz-adv-x="482" 
d="M454 397c0 -42 -12.167 -78.668 -36.5 -110.001s-55.5 -54.333 -93.5 -69l-40 -160c0 -29.333 8.33301 -46.333 25 -51c-32 -15.333 -61.333 -33.333 -88 -54c-61.333 -48.667 -99.666 -103.667 -114.999 -165h-11l114 415c-52.667 8 -97.334 32.333 -134.001 73
c-36 40.667 -54 88.334 -54 143.001c0 34.667 8 80 24 136c16.667 56 25 96 25 120c80.667 -15.333 144.667 -23 192 -23c58 0 117 10 177 30l-42 -169c38 -31.333 57 -70 57 -116zM424 392.999c0 34.667 -11.333 64.333 -34 89l-57 -228c60.667 30.667 91 77 91 139z
M298 530.998c-10 2 -20 2.99902 -30 2.99902c-30.667 0 -58.334 -13 -83.001 -39c-25.333 -25.333 -38 -55 -38 -89c0 -12.667 2.33301 -24.667 7 -36s11.167 -21.333 19.5 -30s18 -15.667 29 -21s22.5 -8.66602 34.5 -9.99902l39 143h-12c-16 0 -26.333 -4 -31 -12
c13.333 -6 20 -15.667 20 -29c0 -21.333 -9.33301 -32 -28 -32c-20 0 -30 10.667 -30 32c0 18 5.33301 33.333 16 46c12.667 16 30.334 24 53.001 24c2.66699 0 5.5 -0.166992 8.5 -0.5s6.5 -0.833008 10.5 -1.5zM322 620.997c-16 5.33301 -32.333 8 -49 8
c-50 0 -96.333 -20.667 -139 -62c-42 -41.333 -63 -88.333 -63 -141c0 -44 13.667 -84.667 41 -122c26.667 -36.667 62 -59 106 -67l12 45c-15.333 2 -29.666 6.5 -42.999 13.5s-24.833 16 -34.5 27s-17.334 23.667 -23.001 38s-8.5 29.5 -8.5 45.5
c0 42 14.667 77.667 44 107c30 30 65 45 105 45c12.667 0 24 -1 34 -3z" />
    <glyph glyph-name="eight" unicode="8" horiz-adv-x="427" 
d="M413 251c2.66699 -41.333 -10.666 -84.334 -39.999 -129.001c-22 -33.333 -51 -64.333 -87 -93c-30 -23.333 -49.333 -35.333 -58 -36c-30 -1.33301 -70.333 22 -121 70c-60 56 -92.667 119 -98 189c-4 60.667 37.333 113 124 157
c-29.333 28.667 -45.666 63.667 -48.999 105c-3.33301 49.333 21.334 92.666 74.001 129.999c42 30 78 45.333 108 46c13.333 0.666992 29.666 -7.66602 48.999 -24.999s29.666 -35.666 30.999 -54.999c0.666992 -12 -10.333 -33 -33 -63c-24 -31.333 -51.333 -59 -82 -83
c17.333 -12.667 35.666 -28 54.999 -46s39.333 -38.667 60 -62c44 -50 66.333 -85 67 -105zM262 553.999c-2 11.333 -8.33203 24.332 -18.999 38.999c-13.333 18 -29 29.667 -47 35c-34 -17.333 -49.667 -37.666 -47 -60.999l7.5 -22.5
c2.33301 -7 5.16602 -13.167 8.49902 -18.5c14.667 -28 32.334 -44.667 53.001 -50c14 8.66699 25.333 22 34 40c7.33301 16 10.666 28.667 9.99902 38zM347.001 174.998c-2 32.667 -15 64.332 -39 94.999c-26.667 35.333 -60.667 56.666 -102 63.999
c-36.667 -14.667 -54.667 -42 -54 -82c0.666992 -44 23.334 -67 68.001 -69c4 0 8.16699 1 12.5 3s8.33301 4.5 12 7.5s6.66699 6.33301 9 10s3.5 6.83398 3.5 9.50098c-0.666992 14.667 -4.33398 21.334 -11.001 20.001c-1.33301 -6 -3 -10 -5 -12
c-4.66699 -8 -13.334 -12.667 -26.001 -14c-20 -1.33301 -30.333 7.33398 -31 26.001c-2 26 8.33301 39 31 39c40.667 0 61 -17.667 61 -53c0 -16 -6.83301 -29.5 -20.5 -40.5s-30.167 -15.833 -49.5 -14.5c-22 1.33301 -39.833 10.666 -53.5 27.999
s-21.167 37.333 -22.5 60c-1.33301 19.333 2.66699 39.333 12 60s21.666 36.334 36.999 47.001l-30 32c-37.333 -29.333 -59.666 -67 -66.999 -113c-0.666992 -3.33301 -1.16699 -7 -1.5 -11s-0.5 -7.66699 -0.5 -11c0 -49.333 20.667 -93 62 -131
c42.667 -37.333 92.334 -57 149.001 -59c40 33.333 58.667 69.666 56 108.999z" />
    <glyph glyph-name="nine" unicode="9" horiz-adv-x="489" 
d="M464 337c0 -108 -36.332 -210.332 -108.999 -306.999c-56 -76 -129 -144.333 -219 -205h-15c162 139.333 245.333 282 250 428l-201 -127c-47.333 29.333 -84.333 66.666 -111 111.999c-25.333 43.333 -38 88.333 -38 135c0 55.333 19.333 113.666 58 174.999
c45.333 72.667 100.666 119.334 165.999 140.001c60.667 -21.333 111.667 -63.333 153 -126c44 -67.333 66 -142.333 66 -225zM370.001 289.001c-5.33301 77.333 -30.667 148.668 -76 214.001c-44 62.667 -88.667 96.667 -134 102
c-44.667 -50.667 -67 -101.334 -67 -152.001c0 -45.333 10.333 -90 31 -134c25.333 -56 60.333 -95.333 105 -118z" />
    <glyph glyph-name="colon" unicode=":" horiz-adv-x="162" 
d="M132 263c0 -16 -5.66699 -29.667 -17 -41s-24.666 -17 -39.999 -17c-16 0 -29.667 5.66699 -41 17s-17 25 -17 41c0 15.333 5.66699 28.666 17 39.999s25 17 41 17c15.333 0 28.666 -5.66699 39.999 -17s17 -24.666 17 -39.999zM132 52
c0 -15.333 -5.66699 -28.666 -17 -39.999s-24.666 -17 -39.999 -17c-16 0 -29.667 5.66699 -41 17s-17 24.666 -17 39.999c0 16 5.66699 29.667 17 41s25 17 41 17c15.333 0 28.666 -5.66699 39.999 -17s17 -25 17 -41z" />
    <glyph glyph-name="semicolon" unicode=";" horiz-adv-x="162" 
d="M132 263c0 -16 -5.66699 -29.667 -17 -41s-24.666 -17 -39.999 -17c-16 0 -29.667 5.66699 -41 17s-17 25 -17 41c0 15.333 5.66699 28.666 17 39.999s25 17 41 17c15.333 0 28.666 -5.66699 39.999 -17s17 -24.666 17 -39.999zM145 -39
c0 -59.333 -39.667 -105.667 -119 -139c39.333 35.333 59 66.333 59 93c0 24 -9 45.667 -27 65c-16.667 16 -32.334 23.667 -47.001 23l86 38c12.667 0 23.334 -6.33301 32.001 -19c10.667 -14.667 16 -35 16 -61z" />
    <glyph glyph-name="less" unicode="&#x3c;" horiz-adv-x="273" 
d="M250 164l-61.001 -61c-54.667 72 -111.667 130.333 -171 175c2.66699 3.33301 20.834 23 54.501 59l147.5 157l14 -12l-140 -156c50.667 -38 102.667 -92 156 -162z" />
    <glyph glyph-name="equal" unicode="=" horiz-adv-x="283" 
d="M263 349h-244v42h244v-42zM263 276h-244v42h244v-42z" />
    <glyph glyph-name="greater" unicode="&#x3e;" horiz-adv-x="273" 
d="M247 336c-2.66699 -3.33301 -20.833 -22.832 -54.5 -58.499l-147.5 -156.5l-14 12l140 155c-25.333 19.333 -51 42.666 -77 69.999s-52.333 58.333 -79 93l61 61c26.667 -36 54.167 -68.5 82.5 -97.5s57.833 -55.167 88.5 -78.5z" />
    <glyph glyph-name="question" unicode="?" horiz-adv-x="497" 
d="M474 407c0 -42 -19.333 -83.334 -58 -124.001c-44 -48 -96 -72 -156 -72c-11.333 0 -22.333 1 -33 3v-52h-36v144c10 -2.66699 21.333 -4 34 -4c42.667 0 80.667 17 114 51c33.333 35.333 50 76.333 50 123c0 60 -30 103 -90 129c-38.667 0 -81.334 -10.667 -128.001 -32
c-60.667 -26.667 -91 -62.334 -91 -107.001c0 -25.333 8.66699 -47.666 26 -66.999c18 -18.667 39.333 -28 64 -28c12 0 23.333 1.83301 34 5.5s20.167 8.83398 28.5 15.501s15 14.5 20 23.5s7.5 18.833 7.5 29.5c0 18 -6 33.667 -18 47s-26.667 20 -44 20
c-10 0 -19.333 -2.83301 -28 -8.5s-13 -12.834 -13 -21.501c0 -2 7 -3 21 -3c18.667 0 28 -8.66699 28 -26c0 -18.667 -11 -28 -33 -28c-12.667 0 -23.167 4.33301 -31.5 13s-12.5 19 -12.5 31c0 18 6.83301 33.167 20.5 45.5s29.834 18.5 48.501 18.5
c23.333 0 43 -8.66699 59 -26s24 -38 24 -62c0 -28.667 -12.667 -52 -38 -70s-54 -27 -86 -27c-37.333 0 -69 13.333 -95 40s-39 58.667 -39 96c0 58.667 23.333 106.334 70 143.001c45.333 35.333 99.333 53 162 53c146 -89.333 219 -180.333 219 -273zM269 51.999
c0 -15.333 -5.66699 -28.666 -17 -39.999s-25 -17 -41 -17s-29.5 5.66699 -40.5 17s-16.5 24.666 -16.5 39.999c0 16 5.5 29.667 16.5 41s24.5 17 40.5 17s29.667 -5.66699 41 -17s17 -25 17 -41z" />
    <glyph glyph-name="at" unicode="@" horiz-adv-x="657" 
d="M654 342c0 -46 -15.6729 -88.6631 -47.0059 -127.996s-68.333 -59 -111 -59c-56.667 0 -85 20.333 -85 61c0 3.33301 0.666992 8.33301 2 15c-39.333 -22.667 -72.166 -40.5 -98.499 -53.5s-46.166 -21.833 -59.499 -26.5c-26.667 0 -48.667 12.667 -66 38
c-14.667 22.667 -22 49.667 -22 81c0 41.333 13.333 76.333 40 105c30.667 33.333 85 64.333 163 93c0 14 -6 30.667 -18 50c-11.333 19.333 -20.666 29 -27.999 29s-21 -11 -41 -33c-20 -21.333 -35 -32 -45 -32c-8.66699 0 -16.167 3.5 -22.5 10.5s-9.5 14.5 -9.5 22.5
c0 20 11.667 34 35 42c5.33301 1.33301 13.833 3 25.5 5s26.167 3.66699 43.5 5c30.667 2.66699 59.334 -2 86.001 -14c28.667 -12.667 43 -30.334 43 -53.001l43 -265c10.667 -24 25 -36 43 -36c21.333 0 42.666 15 63.999 45c20.667 30.667 31 63.334 31 98.001
c0 92.667 -25 167.667 -75 225s-117.667 86 -203 86s-158.333 -30.333 -219 -91s-91 -134 -91 -220c0 -85.333 30.333 -158.333 91 -219s133.667 -91 219 -91c44.667 0 81.334 8.33301 110.001 25c10.667 7.33301 21.167 15 31.5 23l31.5 24
c21.333 16.667 46.666 25 75.999 25c16.667 0 31 -5.83301 43 -17.5s18 -25.5 18 -41.5c0 -16.667 -6 -30.834 -18 -42.501s-26.333 -17.5 -43 -17.5c-24 0 -36 10.667 -36 32c0 24 11 36 33 36c6 0 12.667 -2.66699 20 -8c2.66699 0.666992 4 2.66699 4 6
c0 4 -2.5 8 -7.5 12s-10.167 6 -15.5 6c-17.333 0 -36.666 -8.33301 -57.999 -25c-16.667 -12.667 -30.667 -22.834 -42 -30.501s-20.666 -13.167 -27.999 -16.5c-33.333 -16.667 -73 -25 -119 -25c-95.333 0 -176.666 33.667 -243.999 101s-101 148.666 -101 243.999
s33.667 176.666 101 243.999c66.667 68 148 102 244 102c92 0 167 -31.667 225 -95s87 -147 87 -251zM407.994 256.004l-30.999 167.999c-3.33301 0.666992 -6.5 1.16699 -9.5 1.5s-6.16699 0.5 -9.5 0.5c-28.667 0 -54.334 -10.667 -77.001 -32
c-21.333 -20.667 -32.666 -46.667 -33.999 -78c-0.666992 -24.667 5.66602 -49 18.999 -73c12.667 -22.667 28 -34 46 -34c15.333 5.33301 31 11.833 47 19.5s32.333 16.834 49 27.501z" />
    <glyph glyph-name="A" unicode="A" horiz-adv-x="573" 
d="M551 0l-106.004 -0.00195312c-17.333 134.667 -40.666 231 -69.999 289c-37.333 71.333 -92.666 111.333 -165.999 120c-0.666992 -3.33301 -2.16699 -8.66602 -4.5 -15.999s-3.83301 -12.666 -4.5 -15.999c29.333 -2.66699 54.666 -16.334 75.999 -41.001s32 -53 32 -85
c0 -38 -15 -69 -45 -93c-29.333 -23.333 -65 -35 -107 -35h-15.5c-4.33301 0 -8.16602 0.333008 -11.499 1c-10 -39.333 -14.667 -64 -14 -74c0.666992 -14 2 -30.667 4 -50s5.33301 -41.666 10 -66.999h-5c-12.667 10.667 -32.667 46 -60 106c-33.333 29.333 -50 53 -50 71
c2 6.66699 19 16.334 51 29.001l6 15c-39.333 32 -59 75.667 -59 131c0 42 17 78.667 51 110c32.667 29.333 68.334 44 107.001 44h4l53 146c-13.333 7.33301 -22.666 11 -27.999 11c-10 0 -25.333 -3 -46 -9c-28.667 -8.66699 -50.334 -20 -65.001 -34l-6 3l18 45
c10.667 34 16.667 59 18 75c60.667 -16 110 -24 148 -24c80.667 0 167 11 259 33l5 -5c-8.66699 -10 -38.334 -24 -89.001 -42c-45.333 -16 -68.666 -27.667 -69.999 -35c0 -22 9.33301 -55 28 -99l29 -67.5l30 -67.5h30c4.66699 0 10.834 0.833008 18.501 2.5
s13.5 2.5 17.5 2.5c14.667 0 22 -5 22 -15c0 -22.667 -23.333 -34.334 -70 -35.001c50 -121.333 75 -229.333 75 -324zM313.996 409.998l-61.998 143c-2.66699 -8 -6.83398 -21.5 -12.501 -40.5l-22.5 -73.5c39.333 -2 71.666 -11.667 96.999 -29zM291.998 250.998
c0 26.667 -9.66699 51.333 -29 74c-18.667 21.333 -41.667 33.666 -69 36.999c-1.33301 -6.66699 -3 -13.167 -5 -19.5l-6 -18.5h4c18.667 0 34.167 -6.5 46.5 -19.5s18.5 -29.167 18.5 -48.5c0 -23.333 -9 -42.166 -27 -56.499s-39.333 -21.5 -64 -21.5h-9
c-3.33301 0.666992 -6.33301 1 -9 1l-4.5 -16.5c-1.66699 -6.33301 -3.5 -13.833 -5.5 -22.5c6.66699 -2 14.334 -3 23.001 -3c35.333 0 66.666 11 93.999 33c28 22 42 49 42 81zM233.998 251.997c0 25.333 -6.66699 37.999 -20 37.999c-8.66699 0 -13.667 -6.66699 -15 -20
c-1.33301 -20 -14 -30 -38 -30h-1c-5.33301 -13.333 -9.33301 -27.666 -12 -42.999h7c2 -0.666992 4.66699 -1 8 -1c17.333 0 33.5 5 48.5 15s22.5 23.667 22.5 41zM143.998 355.996c-42.667 -12.667 -64 -37.667 -64 -75c0 -18 6.33301 -34.667 19 -50zM163.998 412.996
c-34 -0.666992 -65.667 -13.667 -95 -39c-28 -25.333 -42 -54.333 -42 -87c0 -49.333 16.333 -88.333 49 -117l16 39c-18.667 20.667 -28 44 -28 70c0 52.667 29 85 87 97z" />
    <glyph glyph-name="B" unicode="B" horiz-adv-x="567" 
d="M550 245c5.33301 -103.333 -21.668 -177.003 -81.001 -221.003c-58.667 -43.333 -106.334 -62.666 -143.001 -57.999l-126 89l3 4c102 -4 175.333 16 220 60c33.333 33.333 50 76.333 50 129c0 20.667 -3 41 -9 61c-11.333 37.333 -39.666 66 -84.999 86
c-12.667 5.33301 -25.667 8 -39 8c-33.333 0 -63.333 -13 -90 -39s-40 -55.667 -40 -89c0 -31.333 10 -58 30 -80s44 -32.333 72 -31c26 0.666992 48 10 66 28s27 40 27 66c0 20 -7.16699 37.333 -21.5 52s-31.166 22 -50.499 22c-16.667 0 -30.5 -5.83301 -41.5 -17.5
s-16.5 -26.834 -16.5 -45.501c0 -8 4.16699 -16 12.5 -24s15.833 -12 22.5 -12c3.33301 0 5 2 5 6c-5.33301 7.33301 -8 14 -8 20c0 19.333 9.33301 29 28 29c19.333 0 29 -10 29 -30c0 -12 -4.33301 -22.667 -13 -32s-19 -14 -31 -14c-16.667 0 -31.5 5.5 -44.5 16.5
s-19.5 24.5 -19.5 40.5c0 54 25.667 81 77 81c12 0 23.5 -2.5 34.5 -7.5s20.667 -11.667 29 -20s15 -18.166 20 -29.499s7.5 -23 7.5 -35c0 -34 -11 -60.833 -33 -80.5s-49 -29.5 -81 -29.5c-34 0 -62.333 12 -85 36c-22.667 24.667 -34 54.334 -34 89.001
c0 40 16.667 75.667 50 107l44 33l45 33c30 22.667 43 44.667 39 66c-10 49.333 -31 81.666 -63 96.999c-18 -7.33301 -69 -45.666 -153 -114.999v-450c0 -32 -16 -58.333 -48 -79c-31.333 -22 -64.666 -33 -99.999 -33l-1 4c27.333 16 41 37.667 41 65v404l-12.5 -10.5
l-18.5 -16.5c-6.66699 -6 -12.334 -5.66699 -17.001 1c-2.66699 2.66699 -3.83398 5.33398 -3.50098 8.00098s2.33301 6 6 10s9.16699 9.33301 16.5 16s17 15 29 25v168c-1.33301 2 -3.66602 3 -6.99902 3s-11 -2.66699 -23 -8c-10 -4.66699 -17 -7 -21 -7s-6 2.33301 -6 7
c42.667 36.667 97.667 65.667 165 87v-168l208 168c56.667 -10.667 91 -50.334 103 -119.001c0 -27.333 -11.667 -53.666 -35 -78.999l-34 -30l-34 -30c44.667 -11.333 84.667 -33.333 120 -66c38.667 -36 61.667 -75.667 69 -119z" />
    <glyph glyph-name="C" unicode="C" horiz-adv-x="578" 
d="M394 693c42.667 -16.667 76.9951 -44.001 102.995 -82.001s39 -77 39 -117c0 -60.667 -20.667 -113.667 -62 -159c-40.667 -44.667 -90.667 -67 -150 -67c-50.667 0 -91.334 15 -122.001 45c-31.333 31.333 -47 69.333 -47 114c0 34.667 12.667 64 38 88
c24.667 24 54.667 36 90 36c16 0 31.333 -2.66699 46 -8s27.5 -12.666 38.5 -21.999s19.833 -20.5 26.5 -33.5s10 -27.167 10 -42.5c0 -28 -8 -52 -24 -72c-17.333 -22 -38.333 -33 -63 -33s-46.334 7.16699 -65.001 21.5s-28 32.833 -28 55.5c0 18.667 6 35 18 49
s26.667 21 44 21c16.667 0 31.5 -5 44.5 -15s18.833 -22.333 17.5 -37c-2 -30 -14 -44.667 -36 -44c-8.66699 0 -16.334 3.5 -23.001 10.5s-10 14.5 -10 22.5c0 21.333 10.333 32 31 32c-3.33301 6 -11.333 9.33301 -24 10c-12.667 1.33301 -23.167 -3.16699 -31.5 -13.5
s-12.5 -22.166 -12.5 -35.499c0 -17.333 8 -31.333 24 -42c14.667 -9.33301 31.667 -14 51 -14c20 0 36.167 8.5 48.5 25.5s18.5 36.5 18.5 58.5c0 12 -2.66699 23.333 -8 34s-12.5 20 -21.5 28s-19.5 14.333 -31.5 19s-24.333 7 -37 7c-30.667 0 -56.667 -10.333 -78 -31
c-22 -21.333 -33 -46.333 -33 -75c0 -38 15.333 -69.333 46 -94c28.667 -24.667 63 -37 103 -37c38.667 0 70.334 14.333 95.001 43c26 28.667 39 62.334 39 101.001c0 59.333 -27.667 107 -83 143c-48 32 -103.333 48 -166 48c-35.333 -12 -65.666 -40.667 -90.999 -86
c-24 -43.333 -37 -89 -39 -137c-1.33301 -32 1.33398 -63 8.00098 -93s16.834 -58.333 30.501 -85s30.834 -50.834 51.501 -72.501s44 -39.834 70 -54.501c62 -24 111.333 -36 148 -36c8 0 15.833 0.5 23.5 1.5s15.167 2.16699 22.5 3.5v88c0 24.667 6.33301 45.667 19 63
c14 20.667 32 31 54 31c16 0 29.833 -4.5 41.5 -13.5s17.5 -20.5 17.5 -34.5s-4 -26.333 -12 -37s-18.333 -16 -31 -16c-19.333 0 -29 9.33301 -29 28s9.33301 28 28 28c12.667 0 21.667 -6 27 -18c0.666992 2 1 6 1 12c0 21.333 -12.333 32 -37 32
c-18.667 0 -33.667 -8.5 -45 -25.5s-17 -35.833 -17 -56.5c0 -37.333 7.33301 -71 22 -101c6.66699 -16 25.667 -47 57 -93c-18.667 -2.66699 -37.167 -4.66699 -55.5 -6s-36.166 -2 -53.499 -2c-172 0 -292.333 61.333 -361 184c-29.333 52.667 -44 113.667 -44 183
c0 82 19 152.667 57 212l83 103l-80 48l1 5c64.667 -22 124.334 -33 179.001 -33c58.667 0 105.334 13.333 140.001 40h-1z" />
    <glyph glyph-name="D" unicode="D" horiz-adv-x="595" 
d="M573 339c0 -77.333 -21.0029 -150.333 -63.0029 -219c-49.333 -80 -110.333 -120 -183 -120c-34 0 -64.667 10.667 -92 32c-27.333 22 -41 49.667 -41 83l191 277c0 14 -2 27.167 -6 39.5s-9.83301 23.166 -17.5 32.499s-16.667 16.666 -27 21.999s-21.5 8 -33.5 8
c-18.667 0 -35.334 -5.66699 -50.001 -17s-22 -26 -22 -44c0 -15.333 5 -28.166 15 -38.499s22.333 -15.5 37 -15.5c7.33301 0 11.666 2 12.999 6c-16 0 -24 10 -24 30s10.333 30 31 30c20 0 30 -10.333 30 -31c0 -12.667 -5.16699 -24.5 -15.5 -35.5
s-21.833 -16.5 -34.5 -16.5c-18.667 0 -34.667 6.33301 -48 19s-20 30 -20 52c0 24 9.33301 43.333 28 58c17.333 13.333 37.333 20 60 20c28 0 52 -12 72 -36c20.667 -22.667 31 -50.334 31 -83.001c0 -39.333 -14.333 -73.666 -43 -102.999l-84 -75
c65.333 -3.33301 98 -31.333 98 -84c0 -23.333 -6.33301 -42.166 -19 -56.499s-28.667 -21.5 -48 -21.5c-17.333 0 -33.166 5.5 -47.499 16.5s-21.5 24.5 -21.5 40.5c0 14 4.33301 26.167 13 36.5s19.334 15.5 32.001 15.5c22.667 0 34 -10.667 34 -32
c0 -7.33301 -3 -14 -9 -20c-7.33301 -8 -15.333 -12 -24 -12c-14.667 0 -24 7.33301 -28 22c0 0.666992 -0.166992 1.16699 -0.5 1.5s-0.5 0.166016 -0.5 -0.500977v-8c0 -12.667 4.33301 -23.167 13 -31.5s19.334 -12.5 32.001 -12.5c16.667 0 30.334 5.66699 41.001 17
s16 25.333 16 42c0 19.333 -6.66699 35.333 -20 48s-29.666 19 -48.999 19c-21.333 0 -39.833 -7 -55.5 -21s-23.5 -31.667 -23.5 -53c0 -27.333 10.333 -51 31 -71s44.334 -30 71.001 -30c54 0 98.667 30 134 90c30.667 51.333 46 106.333 46 165
c0 138.667 -69.667 253.667 -209 345c-6.66699 4.66699 -14.667 7 -24 7c-24.667 0 -54.334 -15.667 -89.001 -47v-535c0 -32 -16 -58.333 -48 -79c-31.333 -22 -64.666 -33 -99.999 -33l-1 4c27.333 16 41 37.667 41 65v607c-1.33301 2 -3.33301 3 -6 3
c-2 0 -5.16699 -0.833008 -9.5 -2.5l-13 -5l-13 -5c-4.33301 -1.66699 -7.5 -2.5 -9.5 -2.5c-4 0 -6 2.33301 -6 7c42.667 36.667 97.667 65 165 85v-81c11.333 3.33301 25 9.33301 41 18s34.333 20.334 55 35.001c35.333 24.667 63 37 83 37c15.333 0 30.666 -6 45.999 -18
c118.667 -92.667 178 -206 178 -340z" />
    <glyph glyph-name="E" unicode="E" horiz-adv-x="623" 
d="M598 105l-140.001 -107.997c-62.667 44.667 -129.334 67 -200.001 67c-46 0 -91 -10 -135 -30c-15.333 -7.33301 -32.833 -17 -52.5 -29s-41.167 -26.667 -64.5 -44h-3c0.666992 14 8.66699 30.667 24 50c22 26 33.333 40 34 42l11 20v531l-71 47l1 5
c24 -10.667 51 -16 81 -16c28.667 0 73.667 8 135 24c60 16.667 106 25 138 25c31.333 0 61 -5.66699 89 -17l67 -27l69 31l4 -9c-80 -54 -134.333 -95.333 -163 -124c-51.333 -51.333 -77 -106 -77 -164c0 -34.667 12 -65.334 36 -92.001s53.333 -40 88 -40
c14.667 0 28.667 2.66699 42 8s25 12.833 35 22.5s17.833 20.834 23.5 33.501s8.5 26.667 8.5 42c0 12 -2.33301 23.333 -7 34s-11.167 20 -19.5 28s-18 14.167 -29 18.5s-22.833 6.5 -35.5 6.5c-22 0 -41.167 -6.83301 -57.5 -20.5s-24.5 -30.834 -24.5 -51.501
c0 -10 2.16699 -19.5 6.5 -28.5s10 -16.833 17 -23.5s14.833 -12 23.5 -16s17.667 -6 27 -6c14.667 0 27 5.5 37 16.5s15 24.167 15 39.5c0 29.333 -14.667 44 -44 44c-9.33301 0 -17.666 -3.5 -24.999 -10.5s-11 -14.167 -11 -21.5
c0 -4.66699 0.666992 -6.33398 2 -5.00098c6.66699 10.667 14.334 16 23.001 16c16.667 0 25 -8.33301 25 -25s-8.33301 -25 -25 -25c-11.333 0 -21.166 4.16699 -29.499 12.5s-12.5 17.833 -12.5 28.5c0 13.333 5.83301 24.833 17.5 34.5s24.5 14.5 38.5 14.5
c16 0 30.167 -6.16699 42.5 -18.5s18.5 -26.5 18.5 -42.5c0 -20 -7.16699 -37.667 -21.5 -53s-31.5 -23 -51.5 -23c-24.667 0 -46.334 9.33301 -65.001 28s-28 41 -28 67c0 24 10.333 44.333 31 61c21.333 17.333 45 26.333 71 27c28.667 0.666992 54 -9.33301 76 -30
c22.667 -20.667 34 -45.334 34 -74.001c0 -33.333 -12.667 -63.333 -38 -90c-25.333 -25.333 -55 -38 -89 -38c-30 0 -57.5 9 -82.5 27s-42.833 40.333 -53.5 67h-153v-197c48 15.333 100 23 156 23c66.667 0 133.667 -18 201 -54l59 31zM414.999 576.003
c-38 38.667 -86 58 -144 58c-30 0 -60 -5.33301 -90 -16v-184h149c20.667 60.667 49 108 85 142zM321.999 367.003c-0.666992 5.33301 -1.16699 9.16797 -1.5 11.501s-0.5 3.16602 -0.5 2.49902c0 -1.33301 0.166992 -1.33301 0.5 0s0.833008 4.33301 1.5 9h-141v-23h141z
" />
    <glyph glyph-name="F" unicode="F" horiz-adv-x="606" 
d="M591 220c0 -24 -8.66895 -43.832 -26.002 -59.499s-37.333 -23.5 -60 -23.5c-34 0 -62 16.667 -84 50c-18.667 27.333 -30 60.333 -34 99h-160v-342h-111v342c-16 0.666992 -29.333 -2 -40 -8l-32 49l73 8v20l-73 7l32 49c9.33301 -8.66699 22.666 -13 39.999 -13v203
c-9.33301 16.667 -28.666 32.334 -57.999 47.001c-32.667 16 -49.667 24.667 -51 26v6c100.667 -22 193.334 -33 278.001 -33c100 0 189 15.667 267 47l17 -6c-52.667 -56.667 -93.667 -124.334 -123 -203.001c-24.667 -64 -37 -122.667 -37 -176
c0 -40 7.33301 -74.333 22 -103c16.667 -34 41.334 -51 74.001 -51c18 0 33.667 5.66699 47 17s20 25.666 20 42.999c0 16.667 -5.16699 31.167 -15.5 43.5s-23.5 18.5 -39.5 18.5c-32 0 -48 -14.667 -48 -44c0 -10 4 -18.167 12 -24.5s16.333 -9.5 25 -9.5
c-10 8 -15 16.333 -15 25c0 18.667 10 28 30 28c18.667 0 28 -10.333 28 -31c0 -11.333 -4 -21 -12 -29s-17.667 -12 -29 -12c-16 0 -29.667 5.16699 -41 15.5s-17 22.833 -17 37.5c0 17.333 6.5 32 19.5 44s28.167 18 45.5 18c22 0 40.167 -7.5 54.5 -22.5
s21.5 -32.5 21.5 -52.5zM436.998 563.001c-46.667 27.333 -116.333 41 -209 41v-205h161c8 52 24 106.667 48 164zM383.999 332.001v23h-157v-23h157z" />
    <glyph glyph-name="G" unicode="G" horiz-adv-x="560" 
d="M519 31c-45.333 -22.667 -90.998 -34.002 -136.998 -34.002c-116 0 -207.333 36.333 -274 109c-62 66.667 -93 153.667 -93 261c0 87.333 29.667 163.666 89 228.999c60 65.333 131 98 213 98c4 0 23 -4.33301 57 -13s62.333 -13 85 -13c13.333 0 23.333 2.33301 30 7
l3 -2l-118.5 -129c-29.667 -33.333 -49.834 -57.666 -60.501 -72.999c-53.333 -75.333 -80 -149.333 -80 -222c0 -12 2.16699 -23.667 6.5 -35s10.333 -21.333 18 -30s16.5 -15.5 26.5 -20.5s21 -7.5 33 -7.5c38.667 0 58 22.333 58 67c0 15.333 -4.83301 28 -14.5 38
s-21.834 15 -36.501 15c-28 0 -42 -13 -42 -39c0 -19.333 9.33301 -29 28 -29c-4 8 -6 12.667 -6 14c0 15.333 7.33301 23 22 23s22 -8 22 -24c0 -21.333 -12.667 -32 -38 -32c-12 0 -22.667 4.66699 -32 14s-14 20 -14 32c0 38 20 57 60 57c19.333 0 35.5 -6.5 48.5 -19.5
s19.5 -30.5 19.5 -52.5c0 -53.333 -25.667 -80 -77 -80c-15.333 0 -29 3.16699 -41 9.5s-22.5 15 -31.5 26s-15.833 23.833 -20.5 38.5s-7 30.334 -7 47.001c0 53.333 14.333 108.333 43 165c8 15.333 19.5 34.5 34.5 57.5l54.5 80.5c-23.333 12 -46.333 18 -69 18
c-52 0 -96 -29 -132 -87c-32.667 -51.333 -49 -108.666 -49 -171.999c0 -84 22.333 -153.667 67 -209c49.333 -61.333 115 -92 197 -92c14.667 0 33.667 3.66699 57 11v300l-28 -12l-5 9l134 74v-373z" />
    <glyph glyph-name="H" unicode="H" horiz-adv-x="578" 
d="M565 -53l-1.00098 -5c-35.333 0 -68.333 10.333 -99 31c-32.667 22.667 -49 49.667 -49 81v213h-237v-270h-109v270c-15.333 0.666992 -28.333 -2.33301 -39 -9l-33 50l72 8v20l-72 8l31 49c6 -4.66699 19.667 -9.66699 41 -15v230c-1.33301 2 -3 3 -5 3
c-3.33301 0 -11 -2.66699 -23 -8s-19 -8 -21 -8c-4.66699 0 -7 2.66699 -7 8c42.667 35.333 97.667 63 165 83v-306h237v251c-33.333 0 -69 -13 -107 -39c-43.333 -29.333 -65 -62 -65 -98c0 -20.667 5.83301 -38.834 17.5 -54.501s26.5 -23.5 44.5 -23.5
c38 0 57 19.333 57 58c0 11.333 -4.16699 20.833 -12.5 28.5s-18.5 11.5 -30.5 11.5c-18 0 -27 -10.667 -27 -32c0 -10 2.66699 -15 8 -15c-0.666992 1.33301 -1 3.33301 -1 6c0 12 6 18 18 18c12.667 0 19 -5.66699 19 -17c0 -19.333 -9.66699 -29 -29 -29
c-22.667 0 -34 12 -34 36c0 13.333 4.33301 25 13 35s20.334 15 35.001 15c15.333 0 29 -5.5 41 -16.5s18 -23.833 18 -38.5c0 -50.667 -25.333 -76 -76 -76c-11.333 0 -21.833 2.5 -31.5 7.5s-18 11.667 -25 20s-12.5 18 -16.5 29s-6 22.5 -6 34.5
c0 88.667 99.333 155 298 199v-679c0 -27.333 13.667 -48.666 41 -63.999zM414.999 313v23h-236v-23h236z" />
    <glyph glyph-name="I" unicode="I" horiz-adv-x="346" 
d="M324 391c0 -32.667 -9.16699 -62.832 -27.5 -90.499s-42.5 -48.167 -72.5 -61.5v-198c20 -3.33301 49.333 -15.333 88 -36c-3.33301 -8 -5.83301 -14.167 -7.5 -18.5s-2.83398 -7.16602 -3.50098 -8.49902c-5.33301 -9.33301 -13.333 -13.333 -24 -12
c-10 1.33301 -26.667 7.66602 -50 18.999c-24 12 -44.333 18 -61 18c-65.333 0 -118.666 -16.333 -159.999 -49c-0.666992 0.666992 -1.66699 1 -3 1c42.667 44.667 80.334 72 113.001 82v190c-47.333 10 -83.333 38.333 -108 85c26.667 -36 62.667 -57 108 -63v39
c-26.667 7.33301 -48.334 21.5 -65.001 42.5s-25 45.5 -25 73.5c0 30 8.5 57.167 25.5 81.5s38.5 41.166 64.5 50.499v73c-24.667 2.66699 -61.334 17 -110.001 43l27 36c42.667 -24 85.334 -36 128.001 -36c51.333 0 98 12 140 36l4 -4c-34 -34 -61 -55.333 -81 -64v-87
c30 -12 54.167 -30.667 72.5 -56s27.5 -54 27.5 -86zM301 391.002c0 56 -25.667 94.999 -77 116.999v-44c27.333 -19.333 41 -43.666 41 -72.999c0 -32 -13.667 -58.667 -41 -80v-46c51.333 28 77 70 77 126zM242 391.001c0 16.667 -6 31 -18 43v-92c12 14.667 18 31 18 49z
M116 388.001v54c-9.33301 -9.33301 -14 -20.333 -14 -33c0 -8 4.66699 -15 14 -21zM116 313.001v37c-26 12.667 -39 31.667 -39 57c0 28 13 49.667 39 65v40c-44.667 -18.667 -67 -53.667 -67 -105c0 -46.667 22.333 -78 67 -94z" />
    <glyph glyph-name="J" unicode="J" horiz-adv-x="484" 
d="M458 106c-71.333 -103.333 -156.994 -155.001 -256.994 -155.001c-48.667 0 -91 13 -127 39c-39.333 28 -59 64 -59 108c0 31.333 11.667 58.666 35 81.999c23.333 22.667 51.333 34 84 34c31.333 0 58.666 -11.667 81.999 -35c22.667 -22.667 34 -50.667 34 -84
c0 -12.667 -2.5 -24.667 -7.5 -36s-11.833 -21.166 -20.5 -29.499s-18.834 -14.833 -30.501 -19.5s-23.834 -7 -36.501 -7c-23.333 0 -43 8 -59 24s-24 35.333 -24 58c0 18.667 6.16699 35 18.5 49s27.5 21 45.5 21c17.333 0 32 -6.5 44 -19.5s18 -28.167 18 -45.5
c0 -20.667 -10.333 -31 -31 -31c-22 0 -33 11.333 -33 34c0 6 2.66699 12.667 8 20s12 11 20 11c-4.66699 6.66699 -13.334 10 -26.001 10s-23.5 -4.83301 -32.5 -14.5s-13.5 -21.167 -13.5 -34.5c0 -18 6.33301 -33.667 19 -47s28 -20 46 -20c21.333 0 39.5 7.5 54.5 22.5
s22.5 33.167 22.5 54.5c0 14 -2.5 27.167 -7.5 39.5s-12 23 -21 32s-19.333 16.167 -31 21.5s-24.5 8 -38.5 8c-13.333 0 -25.833 -2.5 -37.5 -7.5s-22 -11.833 -31 -20.5s-16.167 -18.834 -21.5 -30.501s-8 -24.167 -8 -37.5c0 -38.667 17.333 -70 52 -94
c30.667 -22.667 68.334 -34 113.001 -34c42 0 79.667 16.667 113 50c31.333 31.333 47 66 47 104v477c-40.667 0 -78.334 -20.333 -113.001 -61c-31.333 -35.333 -47 -66.666 -47 -93.999c0 -44 24 -78.333 72 -103l-77 -90c-12.667 12.667 -23.334 23.834 -32.001 33.501
s-15.334 18.167 -20.001 25.5c-13.333 21.333 -20 45.333 -20 72c0 46.667 41.667 108 125 184c83.333 76.667 153 115 209 115v-579z" />
    <glyph glyph-name="K" unicode="K" horiz-adv-x="577" 
d="M551 167c0 -66 -23.667 -117.667 -71 -155c21.333 -42 43.333 -66.667 66 -74l-2 -3c-32.667 10 -63.334 29.333 -92.001 58c-25.333 -13.333 -52.333 -20 -81 -20c-24 0 -46.5 3.83301 -67.5 11.5s-40 18.334 -57 32.001s-31.667 30 -44 49s-21.5 39.833 -27.5 62.5
v-128h-106v610l-56 -21l-3 12l27 19c8.66699 6 17.334 11.667 26.001 17c42 25.333 79.333 42.333 112 51v-437c4.66699 17.333 14 40.5 28 69.5s33.333 63.833 58 104.5c42 68.667 63 127 63 175c0 18.667 -9.33301 48 -28 88c21.333 -3.33301 40.5 -6 57.5 -8
s32.167 -3 45.5 -3c21.333 0 41.5 0.666992 60.5 2s36.5 3.33301 52.5 6c-70 -50 -140.667 -127.333 -212 -232c12.667 -12.667 32 -55.334 58 -128.001c6 0.666992 11.167 1.16699 15.5 1.5s7.83301 0.5 10.5 0.5c44.667 0 83.667 -15.667 117 -47s50 -69 50 -113zM532 165
c0 39.333 -14.333 73 -43 101c-29.333 28 -63.666 42 -102.999 42c-2.66699 0 -5.66699 -0.166992 -9 -0.5s-7.33301 -0.833008 -12 -1.5c1.33301 -3.33301 2.66602 -7.33301 3.99902 -12s3.33301 -10.334 6 -17.001c2 0.666992 6.66699 1 14 1c32 0 59.667 -11 83 -33
s35 -48.667 35 -80c0 -45.333 -16.333 -82.333 -49 -111l13 -26c40.667 34.667 61 80.334 61 137.001zM487 165c0 12.667 -2.66895 24.667 -8.00195 36s-12.5 21.333 -21.5 30s-19.5 15.334 -31.5 20.001s-24.333 7 -37 7c-3.33301 0 -5.66602 -0.333008 -6.99902 -1
l26.5 -76.5l23.5 -62.5c7.33301 11.333 11 21.666 11 30.999c0 3.33301 -0.666992 7 -2 11h-5c-14 0 -21 7.66699 -21 23s7.66699 23 23 23c18 0 27 -14.667 27 -44c0 -26 -8.66699 -47 -26 -63c1.33301 -3.33301 2.83301 -6.83301 4.5 -10.5
s3.83398 -8.16699 6.50098 -13.5c24.667 24.667 37 54.667 37 90zM372.998 91c-2.66699 3.33301 -9.49902 14.332 -20.499 32.999l-45.5 79c-6 -13.333 -9 -27.666 -9 -42.999c0 -21.333 7.66699 -38.333 23 -51s32.666 -18.667 51.999 -18zM437.999 5.99902
c-2 2.66699 -5.16797 6.33203 -9.50098 10.999s-7.5 8.33398 -9.5 11.001c-16 -6 -33 -9 -51 -9c-40 0 -74 13 -102 39c-28 26.667 -42 59.667 -42 99c0 44.667 14.667 83.667 44 117c-11.333 20 -24.666 38.667 -39.999 56c-25.333 -54.667 -38 -102 -38 -142
c0 -54 17.333 -100.333 52 -139s77.667 -58 129 -58c24.667 0 47 5 67 15zM404.998 44.9971c-2.66699 3.33301 -5.50098 7.16602 -8.50098 11.499l-10.5 14.5h-10c-13.333 0 -25.833 2.33301 -37.5 7s-22.167 10.834 -31.5 18.501s-16.666 16.5 -21.999 26.5
s-8 20.667 -8 32c0 28 6 51.667 18 71l-15 27c-23.333 -29.333 -35 -62 -35 -98c0 -32 12 -59.333 36 -82c24.667 -22.667 53 -34 85 -34c12.667 0 25.667 2 39 6z" />
    <glyph glyph-name="L" unicode="L" horiz-adv-x="566" 
d="M536 260c0 -42 -11.9961 -90.9951 -35.9961 -146.995c-7.33301 -17.333 -18 -39.666 -32 -66.999s-31.667 -60 -53 -98c-53.333 44.667 -115 67 -185 67c-80 0 -147.667 -24.667 -203 -74l-11 4l42 56v605l-45 -10l-5 12l158 80v-644
c34 1.33301 65.5 4.16602 94.5 8.49902s55.833 10.166 80.5 17.499c116.667 36 175 99.333 175 190c0 43.333 -14 80.666 -42 111.999c-28 32 -63 48 -105 48c-38 0 -69.333 -12.333 -94 -37s-37 -56.334 -37 -95.001c0 -32.667 10.667 -61.334 32 -86.001
c22 -23.333 49 -35 81 -35c26 0 48 9.66699 66 29c18.667 19.333 28 41.666 28 66.999c0 22.667 -7.83301 42 -23.5 58s-34.834 24 -57.501 24c-16 0 -29.833 -5.16699 -41.5 -15.5s-17.5 -23.166 -17.5 -38.499c0 -16 4.33301 -29.833 13 -41.5s19.667 -17.5 33 -17.5
c15.333 0 23 2.33301 23 7c-17.333 10 -26 20.333 -26 31c0 20 10.333 30 31 30c7.33301 0 14.166 -3.33301 20.499 -10s9.5 -13.334 9.5 -20.001c0 -38.667 -18.333 -58 -55 -58c-18.667 0 -34.667 8 -48 24s-20 34.333 -20 55c0 10 2.16699 19.333 6.5 28
s10.166 16.5 17.499 23.5s15.666 12.5 24.999 16.5s19 6 29 6c27.333 0 51 -10 71 -30c20.667 -18.667 31 -42 31 -70c0 -32 -11.333 -59.333 -34 -82c-23.333 -23.333 -50.333 -35 -81 -35c-37.333 0 -69 14 -95 42c-25.333 29.333 -38 63 -38 101
c0 41.333 14.667 76.666 44 105.999s64.333 44 105 44c46.667 0 86.667 -18 120 -54c32.667 -35.333 49 -77.666 49 -126.999z" />
    <glyph glyph-name="M" unicode="M" horiz-adv-x="732" 
d="M706 0l-96.998 -0.000976562c0 96.667 -16.333 199 -49 307l-38 113l-38 113c-21.333 -16.667 -42.166 -35 -62.499 -55s-39.833 -41.667 -58.5 -65c4.66699 -9.33301 11 -23.166 19 -41.499l30 -67.5l-77 -77l-37 81c-26.667 -54 -40 -109.333 -40 -166
c0 -50.667 15.667 -96.667 47 -138c32 -40.667 69.333 -61 112 -61c34.667 0 64 13.667 88 41c24 26.667 36 58.667 36 96c0 31.333 -11.333 58 -34 80c-22 22 -48.667 33 -80 33c-13.333 0 -25.666 -2.33301 -36.999 -7s-21.333 -11.334 -30 -20.001
s-15.5 -18.667 -20.5 -30s-7.5 -23.333 -7.5 -36c0 -12 2.16699 -23.667 6.5 -35s10.333 -21.166 18 -29.499s16.667 -14.833 27 -19.5s21.5 -6.66699 33.5 -6c20 1.33301 37.167 8 51.5 20s21.166 27 20.499 45c-0.666992 36.667 -19.334 57 -56.001 61
c-12 1.33301 -22.333 -1.33398 -31 -8.00098s-13 -15 -13 -25c0 -16 3 -24 9 -24c12 14 19.667 21 23 21c16 0 24 -7.66699 24 -23c0 -18.667 -11 -28 -33 -28c-11.333 0 -21.5 5.16699 -30.5 15.5s-13.5 22.166 -13.5 35.499c0 16 6.66699 29.5 20 40.5
s28.333 15.833 45 14.5c21.333 -2 38.666 -10.833 51.999 -26.5s20 -34.5 20 -56.5c0 -11.333 -2.33301 -21.666 -7 -30.999s-11 -17.5 -19 -24.5s-17.333 -12.5 -28 -16.5s-22 -6 -34 -6c-28 0 -52.333 10.333 -73 31c-20 20.667 -30 45.667 -30 75c0 31.333 11 58 33 80
s48.667 33 80 33c37.333 0 69 -13 95 -39c26 -25.333 39 -56.666 39 -93.999c0 -42 -13.667 -78.333 -41 -109c-27.333 -30 -61.666 -45 -102.999 -45c-53.333 0 -97.333 22 -132 66c-32.667 41.333 -49 91.333 -49 150c0 72.667 15.333 139.334 46 200.001l-88 193
c-39.333 -138 -59.333 -280.333 -60 -427l14 -182l-4 -1c-6.66699 10 -13.334 19.5 -20.001 28.5l-20 26.5c-32.667 43.333 -63 75 -91 95c64.667 82.667 118 251 160 505l-21 46l-58 -17l-4 6l149 75l109 -245c49.333 61.333 90.666 105.666 123.999 132.999
c-2 12.667 -3 27 -3 43l-51 -11l-3 6l162 72c0.666992 -55.333 12.667 -122.333 36 -201l44.5 -157.5c10.333 -35.667 15.833 -55.167 16.5 -58.5c21.333 -92.667 32 -183 32 -271z" />
    <glyph glyph-name="N" unicode="N" horiz-adv-x="617" 
d="M602 0l-129.003 -0.00292969l-167 280c-70.667 -60 -106 -135.333 -106 -226c0 -15.333 2.5 -29.666 7.5 -42.999s12 -25 21 -35s19.667 -18 32 -24s25.5 -9 39.5 -9c12 0 23.5 2.33301 34.5 7s20.667 11 29 19s15 17.333 20 28s7.5 22 7.5 34
c0 19.333 -7.16699 35.666 -21.5 48.999s-31.5 20 -51.5 20c-16.667 0 -31 -6 -43 -18s-18 -26.333 -18 -43c0 -13.333 4.16699 -24.666 12.5 -33.999s18.5 -14 30.5 -14c4 0 12 2.66699 24 8c-16 10 -24 20 -24 30c0 20 10 30 30 30s30 -10.333 30 -31
c0 -13.333 -5.66699 -25.666 -17 -36.999s-25.666 -17 -42.999 -17c-16.667 0 -31 6.5 -43 19.5s-18 28.167 -18 45.5c0 10.667 2.16699 20.834 6.5 30.501s10 18.334 17 26.001s15.333 13.667 25 18s19.834 6.5 30.501 6.5c12 0 23.667 -2.33301 35 -7
s21.166 -11.167 29.499 -19.5s15 -17.833 20 -28.5s7.5 -22 7.5 -34c0 -28.667 -11 -53.334 -33 -74.001c-21.333 -20.667 -47 -31 -77 -31c-32.667 0 -61 13.667 -85 41c-24 26.667 -36 56.667 -36 90c0 92.667 38.667 171.667 116 237l-128 213
c-12.667 -66.667 -22.167 -131.667 -28.5 -195s-9.5 -126 -9.5 -188c0 -34 1 -66 3 -96s5.33301 -58.667 10 -86l-4 -1c-14 20 -28 38 -42 54c-32.667 36.667 -63.334 59.667 -92.001 69c72.667 71.333 117.334 240.666 134.001 507.999c-10 30 -28 45 -54 45
c-10 0 -23 -3.66699 -39 -11l-10 4l150 78l206 -330l87 45c-10.667 122 -45.667 217.667 -105 287c22 -6 47.667 -9 77 -9c36.667 0 73.667 4 111 12c-5.33301 -11.333 -10.166 -22.5 -14.499 -33.5s-8.16602 -22.167 -11.499 -33.5c-8.66699 -26 -15 -50.167 -19 -72.5
s-6.33301 -42.833 -7 -61.5l-1 -71c27.333 17.333 43 38.333 47 63c2 14 -0.333008 32 -7 54c13.333 -17.333 19 -35.333 17 -54c-2.66699 -29.333 -21.667 -55.666 -57 -78.999c-0.666992 -14 -1 -34.167 -1 -60.5s-0.333008 -59.5 -1 -99.5
c-1.33301 -96 30.667 -177.667 96 -245zM479.997 388.997l-32.998 -18.001c-13.333 -7.33301 -29.333 -15.666 -48 -24.999l79 -127c3.33301 27.333 5.16602 55 5.49902 83s-0.833984 57 -3.50098 87z" />
    <glyph glyph-name="O" unicode="O" horiz-adv-x="614" 
d="M585 358c0 -93.333 -25.332 -173.667 -75.999 -241c-50 -67.333 -119.333 -112.333 -208 -135c-90.667 47.333 -159 99 -205 155c-52 64.667 -78 141 -78 229c0 151.333 71.333 262 214 332l26 -16c28 10.667 58.667 16 92 16c53.333 0 105.666 -37.667 156.999 -113
c52 -75.333 78 -151 78 -227zM510.001 403.999c0 66 -15.3311 124.335 -45.998 175.002c-34 55.333 -78 83 -132 83c-5.33301 0 -11.333 -0.5 -18 -1.5l-23 -3.5l57 -59c-78.667 -6.66699 -142.667 -37.334 -192 -92.001c0 -36 13.333 -70.333 40 -103
c28.667 -36.667 62 -55 100 -55c30.667 0 56.667 10.333 78 31c22 20.667 33 45.334 33 74.001c0 24.667 -7.5 45.5 -22.5 62.5s-33.167 25.5 -54.5 25.5c-48 0 -73 -21.667 -75 -65c-2 -38 16 -57 54 -57c13.333 0 21.666 3.66699 24.999 11c-24 2.66699 -36 14 -36 34
c0 9.33301 3.5 17.666 10.5 24.999s14.833 11 23.5 11c11.333 0 20.333 -4 27 -12s10 -16 10 -24c0 -23.333 -7 -41 -21 -53c-11.333 -9.33301 -23.333 -14 -36 -14c-24 0 -43.667 8.16699 -59 24.5s-22 36.5 -20 60.5c2 23.333 12 42.333 30 57s39.333 22 64 22
c14 0 27.167 -2.83301 39.5 -8.5s23 -13.167 32 -22.5s16 -20.5 21 -33.5s7.5 -26.5 7.5 -40.5c0 -36.667 -13 -67.334 -39 -92.001c-24.667 -24.667 -55.334 -37 -92.001 -37c-52 0 -111.333 40 -178 120c-16.667 -32.667 -25 -71 -25 -115c0 -56.667 13 -112 39 -166
c26.667 -56 55.667 -84 87 -84c68 0 132.333 32.333 193 97c65.333 67.333 98 142.333 98 225z" />
    <glyph glyph-name="P" unicode="P" horiz-adv-x="577" 
d="M556 412c0 -86.667 -29.999 -161.334 -89.999 -224.001s-131.333 -94 -214 -94c-13.333 0 -27 1 -41 3v-151h-108v191c-58.667 40 -88 93 -88 159c0 72 29.333 126.333 88 163v142l-51 -21l-6 8c35.333 31.333 90.666 61 165.999 89v-74l169 82
c53.333 -25.333 96.333 -65 129 -119c30.667 -49.333 46 -100.666 46 -153.999zM465.001 366c0 38 -12.999 81.667 -38.999 131c-28.667 54 -65.334 95.333 -110.001 124l-105 -51v-79h3c45.333 0 84.333 -15.667 117 -47c32 -31.333 48 -69.333 48 -114
c0 -47.333 -16 -86.333 -48 -117c-31.333 -30.667 -71.333 -46 -120 -46v-37c7.33301 -0.666992 13.833 -1.16699 19.5 -1.5s10.5 -0.5 14.5 -0.5c62.667 0 115.667 23.667 159 71c40.667 45.333 61 101 61 167zM361.002 328c0 41.333 -14.332 75.333 -42.999 102
c-28.667 27.333 -63.667 41 -105 41h-2v-33c32 -1.33301 58.833 -12.333 80.5 -33s32.5 -46.667 32.5 -78c0 -32 -10.333 -57.667 -31 -77s-47 -29 -79 -29h-3v-36h4c39.333 0 73.666 13.667 102.999 41c28.667 28 43 62 43 102zM306.003 324
c0 25.333 -9.16797 46.999 -27.501 64.999s-40.833 27.667 -67.5 29v-37c20.667 -1.33301 37.334 -7.33301 50.001 -18c14.667 -12.667 22 -28 22 -46c0 -31.333 -12 -47 -36 -47c-16.667 0 -25 8 -25 24c0 15.333 7.66699 23 23 23c6 0 12 -2 18 -6
c0 30.667 -17.333 47.334 -52 50.001v-123h4c12 0 23.5 2.16699 34.5 6.5s20.667 10.5 29 18.5s15 17.167 20 27.5s7.5 21.5 7.5 33.5zM103.002 234.999v131.001c-14.667 -20.667 -21.667 -44.334 -21 -71.001c0.666992 -22 7.66699 -42 21 -60zM103.002 173v31.001
c-27.333 24 -41 54 -41 90c0 41.333 13.667 75.666 41 102.999v37c-44.667 -34.667 -67 -79.667 -67 -135c0 -51.333 22.333 -93.333 67 -126z" />
    <glyph glyph-name="Q" unicode="Q" horiz-adv-x="609" 
d="M585 358c0 -142.667 -54.334 -250.332 -163.001 -322.999c14 -13.333 28.5 -26.333 43.5 -39s30.5 -25 46.5 -37h-113c-0.666992 6.66699 -6.66699 24 -18 52c-11.333 -5.33301 -23.666 -10.333 -36.999 -15s-27.666 -9.33398 -42.999 -14.001
c-90.667 47.333 -159 99 -205 155c-52 64.667 -78 141 -78 229c0 151.333 71.333 262 214 332l26 -16c28 10.667 58.667 16 92 16c53.333 0 105.666 -37.667 156.999 -113c52 -75.333 78 -151 78 -227zM509.999 404.002c0 66 -15.3301 124.335 -45.9971 175.002
c-34 55.333 -78 83 -132 83c-5.33301 0 -11.333 -0.5 -18 -1.5l-23 -3.5l57 -59c-78.667 -6.66699 -142.667 -37.334 -192 -92.001c0 -36 13.333 -70.333 40 -103c28.667 -36.667 62 -55 100 -55c30.667 0 56.667 10.333 78 31c22 20.667 33 45.334 33 74.001
c0 24.667 -7.5 45.5 -22.5 62.5s-33.167 25.5 -54.5 25.5c-48 0 -73 -21.667 -75 -65c-2 -38 16 -57 54 -57c13.333 0 21.666 3.66699 24.999 11c-24 2.66699 -36 14 -36 34c0 9.33301 3.5 17.666 10.5 24.999s14.833 11 23.5 11c11.333 0 20.333 -4 27 -12s10 -16 10 -24
c0 -23.333 -7 -41 -21 -53c-11.333 -9.33301 -23.333 -14 -36 -14c-24 0 -43.667 8.16699 -59 24.5s-22 36.5 -20 60.5c2 23.333 12 42.333 30 57s39.333 22 64 22c14 0 27.167 -2.83301 39.5 -8.5s23 -13.167 32 -22.5s16 -20.5 21 -33.5s7.5 -26.5 7.5 -40.5
c0 -36.667 -13 -67.334 -39 -92.001c-24.667 -24.667 -55.334 -37 -92.001 -37c-52 0 -111.333 40 -178 120c-16.667 -32.667 -25 -71 -25 -115c0 -56.667 13 -112 39 -166c26.667 -56 55.667 -84 87 -84c29.333 0 62.333 8.66699 99 26c-39.333 48 -90.333 91.667 -153 131
l116 47c-0.666992 -46 20.666 -100 63.999 -162c46.667 30 85 69.333 115 118c33.333 53.333 50 107.333 50 162z" />
    <glyph glyph-name="R" unicode="R" horiz-adv-x="593" 
d="M569 -52l-1.99805 -2.99805c-38 6.66699 -73.667 31.667 -107 75c-9.33301 11.333 -21.166 29.5 -35.499 54.5l-52.5 94.5c-40.667 76 -77 135.667 -109 179c-41.333 23.333 -62 56.666 -62 99.999c0 26 8.66699 48 26 66s38.666 27 63.999 27
c22.667 0 42.334 -7.33301 59.001 -22s25.334 -33 26.001 -55c0 -10 -1.5 -19.5 -4.5 -28.5s-7.16699 -17 -12.5 -24s-11.666 -12.833 -18.999 -17.5s-15 -7.33398 -23 -8.00098c-18 -1.33301 -33.5 2.66699 -46.5 12s-20.167 22.666 -21.5 39.999
c-0.666992 14.667 3.5 27.334 12.5 38.001s18.833 16 29.5 16c26.667 0 39.667 -10.333 39 -31c-0.666992 -18.667 -10.334 -28 -29.001 -28c-18 0 -27.333 9.33301 -28 28c-5.33301 -6.66699 -8 -13.667 -8 -21c0 -11.333 4.66699 -20.5 14 -27.5s20.333 -10.5 33 -10.5
c14 0 25.333 6.16699 34 18.5s12.667 26.833 12 43.5c-0.666992 17.333 -7.5 31.5 -20.5 42.5s-28.5 16.5 -46.5 16.5c-19.333 0 -36.166 -7.16699 -50.499 -21.5s-21.5 -31.166 -21.5 -50.499c0 -13.333 2.5 -25.833 7.5 -37.5s11.833 -21.834 20.5 -30.501
s18.667 -15.5 30 -20.5s23.666 -7.5 36.999 -7.5c36.667 0 66.667 15 90 45c24 30 36 65 36 105c0 42.667 -16 78.667 -48 108c-32.667 29.333 -70.667 44 -114 44c-24 0 -55 -5.33301 -93 -16v-641h-108v634c-17.333 9.33301 -40 25.333 -68 48l1 4
c41.333 -9.33301 68 -14 80 -14c16 0 34.167 0.833008 54.5 2.5s43.166 4.16699 68.499 7.5s48.166 6 68.499 8s38.166 3 53.499 3c60.667 0 114.667 -19.667 162 -59c46.667 -38.667 70 -87 70 -145l-168 -134c6.66699 -9.33301 16.667 -31.833 30 -67.5
s29.666 -85.5 48.999 -149.5c36 -114 66.333 -177.333 91 -190z" />
    <glyph glyph-name="S" unicode="S" horiz-adv-x="575" 
d="M542 265c-1.33301 -74 -23.333 -137.333 -66 -190c-45.333 -55.333 -101.666 -83 -168.999 -83c-32.667 0 -71 5 -115 15s-72.333 15 -85 15c-39.333 0 -69.666 -29.667 -90.999 -89h-2c-6 8.66699 -9 19.667 -9 33c0 17.333 12.667 53.333 38 108
c26 54 39 97.333 39 130c0 24.667 -5.33301 47.334 -16 68.001l2 4c20 -2.66699 39.667 -26.667 59 -72c13.333 -32.667 24.666 -59 33.999 -79s16.666 -34.333 21.999 -43c30 -42.667 70.667 -64 122 -64c42.667 0 85.667 18.667 129 56c39.333 35.333 59 65.666 59 90.999
c-61.333 108.667 -143.333 174.667 -246 198c-32.667 -59.333 -49 -111.666 -49 -156.999c0 -30.667 11 -58 33 -82s48.333 -36 79 -36c24 0 44.5 8.16699 61.5 24.5s25.5 36.5 25.5 60.5c0 21.333 -6.83301 39.833 -20.5 55.5s-30.834 23.5 -51.501 23.5
c-16 0 -30.167 -5.83301 -42.5 -17.5s-18.5 -25.5 -18.5 -41.5c0 -12 4 -22.667 12 -32s17.667 -14 29 -14c13.333 0 20 3.66699 20 11c-15.333 3.33301 -23 12 -23 26c0 18 9.33301 27 28 27c18 0 27 -9.33301 27 -28c0 -15.333 -5.16699 -28.166 -15.5 -38.499
s-22.5 -15.5 -36.5 -15.5c-40 0 -60 21.333 -60 64c0 22 7.83301 40.333 23.5 55s34.5 22 56.5 22c26.667 0 48.334 -9.5 65.001 -28.5s25 -42.833 25 -71.5s-10 -52.334 -30 -71.001s-45 -28 -75 -28c-36 0 -67 13 -93 39c-25.333 27.333 -38 59.333 -38 96
c0 38 12.333 94 37 168c-45.333 15.333 -98 52 -158 110c12 57.333 39.333 106.333 82 147c43.333 41.333 88 62 134 62c24 0 53.667 -4.33301 89 -13s62.333 -13 81 -13l59 19l5 -4c-54 -30.667 -121.333 -103.334 -202 -218.001c144 -72.667 222.667 -139 236 -199z
M343 585c-39.333 27.333 -76.666 41 -111.999 41c-41.333 0 -74.333 -16.333 -99 -49c4.66699 -10 13 -21 25 -33c27.333 -25.333 66.666 -47.333 117.999 -66z" />
    <glyph glyph-name="T" unicode="T" horiz-adv-x="569" 
d="M554 688c-32.667 -36.667 -48.999 -68.3311 -48.999 -94.998c4.66699 2 8.66699 3 12 3c20.667 0 31 -9.66699 31 -29c0 -22 -10 -33 -30 -33c-24 0 -36 15 -36 45c0 12.667 1.33301 26.667 4 42c-23.333 -0.666992 -50 -6.33398 -80 -17.001
c-28.667 -8.66699 -45.667 -18.334 -51 -29.001v-51c45.333 -7.33301 81 -27 107 -59c29.333 -35.333 44 -80.333 44 -135c0 -44.667 -14.667 -86.334 -44 -125.001s-65 -65.667 -107 -81v-173h-108v168c-68.667 10.667 -124 45.667 -166 105
c-36.667 50.667 -55 104.667 -55 162c0 40 10.333 87.667 31 143c13.333 36 24 66.833 32 92.5s13.667 46.834 17 63.501c52.667 -28.667 116.667 -43 192 -43c87.333 0 171.666 17 252.999 51zM484.001 332.003c0 48 -11.832 86.5 -35.499 115.5
s-54.834 47.167 -93.501 54.5v-36c65.333 -16 98 -59 98 -129c0 -74 -32.667 -121.667 -98 -143v-41c40.667 15.333 72.667 40 96 74c22 32.667 33 67.667 33 105zM430.002 337.003c-2.66699 57.333 -27.666 92.668 -74.999 106.001v-155c5.33301 2 10.666 10.667 15.999 26
c0.666992 1.33301 1 3.66602 1 6.99902c0 4 -1.33301 10 -4 18s-4 13.333 -4 16c0 4.66699 2.33301 7.33398 7 8.00098c8 2 15.167 -0.5 21.5 -7.5s9.5 -14.833 9.5 -23.5c0 -32 -15.667 -54.667 -47 -68v-48c23.333 10.667 42 27.167 56 49.5s20.333 46.166 19 71.499z
M247.003 281.005l-0.000976562 151c-31.333 -16.667 -46.666 -43 -45.999 -79c0.666992 -32.667 16 -56.667 46 -72zM247.002 215.005v41.998c-41.333 18 -63.666 50 -66.999 96c-2.66699 46.667 19.666 81.667 66.999 105v38c-14 -6 -27 -13.667 -39 -23
s-22.5 -19.666 -31.5 -30.999s-16 -23.666 -21 -36.999s-7.5 -26.333 -7.5 -39c0 -82.667 33 -133 99 -151zM247.002 146.003l0.000976562 46.001c-40.667 10.667 -71.334 32 -92.001 64s-29.667 69.333 -27 112c2 34.667 15.667 66.667 41 96c22 26 48 44.667 78 56v42
c-37.333 3.33301 -74 -11.667 -110 -45c-41.333 -37.333 -62 -85.333 -62 -144c0 -30 3.83301 -57.833 11.5 -83.5s19 -48.334 34 -68.001s33 -36 54 -49s45.167 -21.833 72.5 -26.5z" />
    <glyph glyph-name="U" unicode="U" horiz-adv-x="580" 
d="M551 44c-53.333 -31.333 -115.666 -47.0029 -186.999 -47.0029c-91.333 0 -169.333 33 -234 99c-64 66.667 -96 146.334 -96 239.001c0 40.667 5.66699 82 17 124c2.66699 9.33301 7.33398 23.333 14.001 42l26 71h-67l-13 10l303 104l6 -4
c-50 -38.667 -92.667 -90 -128 -154c-41.333 -74.667 -62 -149.334 -62 -224.001c0 -73.333 17.667 -136.666 53 -189.999c38.667 -58.667 90.334 -88 155.001 -88c38 0 74.667 12 110 36v535c-54 -29.333 -98 -69 -132 -119c-40 -57.333 -60 -115.333 -60 -174
c0 -14 2.16699 -27.167 6.5 -39.5s10.166 -23.166 17.499 -32.499s16.333 -16.833 27 -22.5s22 -8.5 34 -8.5c18 0 33.833 5.66699 47.5 17s20.5 25.333 20.5 42c0 30.667 -15 48 -45 52c-12.667 2 -23.5 -0.5 -32.5 -7.5s-13.5 -15.833 -13.5 -26.5
c0 -6.66699 1 -10.334 3 -11.001c5.33301 11.333 13.666 17 24.999 17c18.667 0 28 -9.66699 28 -29c0 -18.667 -9.33301 -28 -28 -28c-14 0 -25.5 5 -34.5 15s-13.833 22 -14.5 36c-0.666992 16.667 6 30.334 20 41.001s29.667 15 47 13c41.333 -5.33301 62 -29.333 62 -72
c0 -11.333 -2.33301 -21.666 -7 -30.999s-11 -17.333 -19 -24s-17.333 -12 -28 -16s-22 -6 -34 -6c-30.667 0 -55.334 12 -74.001 36c-19.333 25.333 -29 53.666 -29 84.999c0 82.667 31.667 159.334 95 230.001c54 60.667 127.667 112.667 221 156v-646z" />
    <glyph glyph-name="V" unicode="V" horiz-adv-x="587" 
d="M564 451c0 -57.333 -16.3359 -121.669 -49.0029 -193.002c-38.667 -84 -90 -150.333 -154 -199l18 -62l-116 3l-204 615l-36 -10l-10 8l147 72l190 -585c34.667 8 65.334 39.333 92.001 94c12.667 26.667 22.334 53.667 29.001 81s10.334 56 11.001 86
c2 100.667 -33.333 185.334 -106 254.001c-28 -6.66699 -51.667 -29 -71 -67c-15.333 -29.333 -23 -55 -23 -77c0 -13.333 2 -26 6 -38s9.83301 -22.667 17.5 -32s16.667 -16.666 27 -21.999s21.5 -8 33.5 -8c16 0 29.667 5.66699 41 17s17 25.333 17 42
c0 13.333 -4.5 25 -13.5 35s-18.833 15 -29.5 15c-27.333 0 -41 -12.333 -41 -37c0 -8 2.66699 -13 8 -15c10.667 12.667 18.667 19 24 19c14.667 0 22 -8 22 -24c0 -15.333 -7.66699 -23 -23 -23c-32 0 -48 16 -48 48c0 14 5.66699 25.667 17 35s24.333 14 39 14
c16.667 0 31.334 -6.5 44.001 -19.5s19 -27.833 19 -44.5c0 -21.333 -7.83301 -39.833 -23.5 -55.5s-34.167 -23.5 -55.5 -23.5c-28.667 0 -52.334 12.333 -71.001 37s-28 52.334 -28 83.001c0 45.333 19.667 90.666 59 135.999c44.667 50 97.667 75 159 75
c54.667 -74.667 82 -152.667 82 -234z" />
    <glyph glyph-name="W" unicode="W" horiz-adv-x="781" 
d="M748 455c0 -40.667 -12.332 -95.0029 -36.999 -163.003c-32 -88.667 -72.667 -153.667 -122 -195l28 -97h-104l-118 360l-83 -249c4 -19.333 6 -50 6 -92l-136 -72l-3 2c16.667 58 25 102.333 25 133c0 38.667 -25.333 123 -76 253s-76 222.667 -76 278l-31 -5l-10 11
l147 69l5 -2c-8.66699 -36.667 -13 -67.667 -13 -93c0 -52 19 -117.333 57 -196c24.667 -52 44.5 -96.167 59.5 -132.5s25.5 -65.166 31.5 -86.499l98 316c-0.666992 0.666992 -1 2.33398 -1 5.00098c-48.667 0 -90.334 9.66699 -125.001 29c-40 22.667 -60 54.667 -60 96
c0 20 7.5 37 22.5 51s31.5 21 49.5 21c20 0 37.333 -5.16699 52 -15.5s22.334 -24.166 23.001 -41.499c3.33301 -43.333 -15.334 -65 -56.001 -65c-30 0 -45 16.333 -45 49c0 18 8.66699 27 26 27c18 0 27 -9 27 -27c0 -14.667 -8.33301 -23.334 -25 -26.001
c4 -5.33301 11 -8 21 -8c28.667 0 41.334 15.667 38.001 47c-2.66699 30.667 -22.334 46 -59.001 46c-16 0 -29.833 -5.5 -41.5 -16.5s-17.5 -24.833 -17.5 -41.5c0 -32 16 -58 48 -78c28.667 -17.333 60.667 -26 96 -26c13.333 0 25 1.33301 35 4l17 52h15l13 -42
c68 24.667 138.333 77.334 211 158.001c58.667 -48 88 -127 88 -237zM663.001 369.997c-1.33301 137.333 -23.667 206 -67 206c-10.667 0 -30 -8 -58 -24l-47.5 -26.5c-13 -7 -23.833 -12.167 -32.5 -15.5l119 -376c58 69.333 86.667 148 86 236z" />
    <glyph glyph-name="X" unicode="X" horiz-adv-x="544" 
d="M515 386c0 -25.333 -6.33301 -45.668 -19 -61.001s-29.334 -23 -50.001 -23c-19.333 0 -35.833 6.16699 -49.5 18.5s-20.5 29.166 -20.5 50.499c0 13.333 4.66699 25.333 14 36s20.333 16.667 33 18c12.667 0.666992 23.667 -2.5 33 -9.5s14 -15.167 14 -24.5
c0 -25.333 -10.333 -38 -31 -38c-12.667 0 -19 7 -19 21c0 13.333 6.66699 20 20 20c3.33301 0 7.66602 -1 12.999 -3c0 12.667 -9 18.667 -27 18c-22.667 -2 -34 -14.667 -34 -38c0 -14.667 5.33301 -27 16 -37s23.334 -15 38.001 -15c16.667 0 29.5 6.5 38.5 19.5
s13.5 28.167 13.5 45.5c0 10 -2.16699 19 -6.5 27s-10.333 15 -18 21s-16.334 10.667 -26.001 14s-19.5 5 -29.5 5c-42.667 0 -78 -23 -106 -69l58.5 -78c14.333 -19.333 24.166 -32.333 29.499 -39c15.333 -22 28.833 -43 40.5 -63s21.834 -39 30.501 -57l13 10.5
c5.33301 4.33301 11.666 9.83301 18.999 16.5l2 -3c-14 -19.333 -24 -32 -30 -38c20.667 -46 31 -89.667 31 -131h-103c0 27.333 -12 63.666 -36 108.999c-29.333 5.33301 -55.333 21 -78 47c-22 26.667 -33 55.334 -33 86.001c0 3.33301 0.166992 7.83301 0.5 13.5
s0.833008 12.5 1.5 20.5c-7.33301 8 -16.333 20 -27 36c-77.333 -143.333 -116 -270.666 -116 -381.999h-3c-28 80 -62.333 134 -103 162v3c62.667 30.667 133.334 108 212.001 232c-3.33301 2.66699 -5.33301 5.66699 -6 9c-22.667 -32.667 -58 -49 -106 -49
c-24 0 -44.667 8.16699 -62 24.5s-26 36.833 -26 61.5c0 15.333 7 30 21 44c14 14.667 29 22 45 22c36 0 54 -14 54 -42c0 -30.667 -17 -46 -51 -46c-13.333 0 -20 6.66699 -20 20c0 14 7 21 21 21c12 0 18.667 -7 20 -21c8.66699 10.667 13 18.667 13 24
c0 18 -12 27 -36 27c-12.667 0 -24 -5.16699 -34 -15.5s-15 -22.166 -15 -35.499c0 -19.333 6.83301 -35.333 20.5 -48s30.834 -19 51.501 -19c42 0 72.667 15.667 92 47c-93.333 133.333 -140 221.333 -140 264l-31 -15l-16 10l152 78c0 -69.333 37 -156 111 -260
c41.333 79.333 62 133.333 62 162c0 22 -7 54.667 -21 98c19.333 -8.66699 46.333 -13 81 -13s69.667 4.33301 105 13c-73.333 -71.333 -145.333 -163 -216 -275l7 -9c2 -2.66699 3.66699 -5 5 -7c32.667 46.667 71.334 70 116.001 70c24 0 46 -8 66 -24
c20.667 -14.667 31 -33.667 31 -57zM355 129.998c-10.667 18.667 -22.5 38.001 -35.5 58.001s-27.833 41.333 -44.5 64v-16c0 -18.667 8 -39.334 24 -62.001c17.333 -23.333 36 -38 56 -44z" />
    <glyph glyph-name="Y" unicode="Y" horiz-adv-x="573" 
d="M551 672c-18 -11.333 -37 -47.9951 -57 -109.995c-32.667 -106 -53.667 -170.667 -63 -194c32 -37.333 47 -79.333 45 -126c-1.33301 -38 -13.5 -70.667 -36.5 -98s-52.5 -45.333 -88.5 -54v-92l-93 2v92c-33.333 11.333 -59 28 -77 50
c-21.333 25.333 -32 53.666 -32 84.999c0 25.333 6.33301 48.666 19 69.999c-50.667 84 -92 191 -124 321l-29 -10l-10 10l139 57c0 -104.667 36.667 -209.334 110 -314.001c6 0.666992 11.167 1.16699 15.5 1.5s8.16602 0.5 11.499 0.5c44.667 0 80.667 -10.667 108 -32
c6.66699 12 12.667 25 18 39c-16.667 15.333 -40 30.333 -70 45c17.333 1.33301 43 -8.33398 77 -29.001c22.667 56 34 96.333 34 121c0 24 -3.33301 46 -10 66s-16.167 37.167 -28.5 51.5s-27 25.5 -44 33.5s-35.833 12 -56.5 12c-27.333 0 -50.333 -10 -69 -30
c-19.333 -20.667 -29 -44.334 -29 -71.001c0 -13.333 2.33301 -25.833 7 -37.5s11 -22 19 -31s17.5 -16.167 28.5 -21.5s22.833 -8 35.5 -8c22.667 0 42.167 8.16699 58.5 24.5s24.5 35.833 24.5 58.5c0 18.667 -7.83301 34 -23.5 46s-33.834 18 -54.501 18
c-12 0 -22.667 -4.5 -32 -13.5s-14 -19.833 -14 -32.5c0 -32.667 13 -49 39 -49c16 0 24 6.33301 24 19c-18 0 -27 8.66699 -27 26c0 16.667 9 25 27 25s27 -12.667 27 -38c0 -14 -5.33301 -25.5 -16 -34.5s-22.334 -13.5 -35.001 -13.5c-16 0 -29 6.5 -39 19.5
s-15 28.167 -15 45.5c0 16.667 6.16699 31 18.5 43s26.5 18 42.5 18c12.667 0 24.834 -1.83301 36.501 -5.5s21.834 -9 30.501 -16s15.667 -15.333 21 -25s8 -20.5 8 -32.5c0 -14 -2.66699 -26.833 -8 -38.5s-12.5 -22 -21.5 -31s-19.667 -16 -32 -21s-25.5 -7.5 -39.5 -7.5
c-15.333 0 -29.5 3 -42.5 9s-24.333 14 -34 24s-17.167 21.833 -22.5 35.5s-8 28.5 -8 44.5c0 34 10.333 61.333 31 82c24 24.667 58 37 102 37c22.667 0 49.334 -4.33301 80.001 -13c32 -8.66699 57.667 -13 77 -13c18 0 39.667 4 65 12zM458 242.005
c0 46 -11.334 82.668 -34.001 110.001c-5.33301 -13.333 -11.666 -26.666 -18.999 -39.999c13.333 -16.667 20 -39 20 -67c0 -40 -12 -60 -36 -60c-13.333 0 -20 6.33301 -20 19s6.33301 19 19 19c2.66699 0 6.66699 -1 12 -3c4.66699 7.33301 7 18 7 32
c0 15.333 -3.66699 28.666 -11 39.999c-16.667 -30 -34 -56 -52 -78c5.33301 -14 7.33301 -27.667 6 -41v-63c32 7.33301 58 23.166 78 47.499s30 52.5 30 84.5zM378.999 312.006c-24 22 -56 33 -96 33c-8.66699 0 -14.334 -0.333008 -17.001 -1
c33.333 -44 55.333 -77.333 66 -100c8.66699 10 16.834 20.667 24.501 32s15.167 23.333 22.5 36zM257.999 113.006l0.000976562 8c0 26 -7 51 -21 75l-27.5 40l-27.5 40c-8 -14 -12 -30.333 -12 -49c-0.666992 -56.667 28.666 -94.667 87.999 -114z" />
    <glyph glyph-name="Z" unicode="Z" horiz-adv-x="556" 
d="M519 263c0 -38 -17.3301 -84.3359 -51.9971 -139.003c-38 -61.333 -59 -103.666 -63 -126.999l-118.5 25c-39 8 -78.833 12 -119.5 12s-92.667 -11.333 -156 -34c-0.666992 70.667 23.666 144 72.999 220c4.66699 8 54.667 71.333 150 190
c60.667 75.333 98.334 142.333 113.001 201l-25.5 3.5c-7.66699 1 -14.167 1.5 -19.5 1.5c-84.667 0 -163.334 -55 -236.001 -165l-3 1l8 38l8 38c6.66699 31.333 10 59 10 83c0 26 -4 49 -12 69l1 2c55.333 -28.667 118.333 -43 189 -43
c77.333 0 148.666 16.333 213.999 49c1.33301 -1.33301 2 -1.66602 2 -0.999023c-9.33301 -68 -39 -140 -89 -216l-74 -100.5l-74 -100.5c-58 -78 -96.333 -147.333 -115 -208c8 4.66699 48.667 13.667 122 27c74 14 129.333 31 166 51c56.667 30 85 70.333 85 121
c0 13.333 -2.5 25.833 -7.5 37.5s-12 21.834 -21 30.501s-19.5 15.5 -31.5 20.5s-25 7.5 -39 7.5c-20 0 -36.833 -6.5 -50.5 -19.5s-20.5 -29.5 -20.5 -49.5s6.16699 -36.5 18.5 -49.5s28.166 -19.5 47.499 -19.5c16.667 0 30.5 4.83301 41.5 14.5s16.5 22.167 16.5 37.5
c0 12 -4.5 21.833 -13.5 29.5s-19.833 11.5 -32.5 11.5c-19.333 0 -29 -8 -29 -24c0 -7.33301 1 -9.33301 3 -6c4.66699 8 11.334 12 20.001 12c15.333 0 23 -8 23 -24c0 -15.333 -7.33301 -23 -22 -23c-28 0 -42 13.667 -42 41c0 11.333 4.83301 21 14.5 29
s20.5 12 32.5 12c16 0 30.333 -5.83301 43 -17.5s19 -25.167 19 -40.5c0 -20.667 -7.33301 -37.167 -22 -49.5s-32 -18.5 -52 -18.5c-11.333 0 -22 2.16699 -32 6.5s-18.833 10.333 -26.5 18s-13.834 16.667 -18.501 27s-7 21.5 -7 33.5s2.33301 23.167 7 33.5
s11.167 19.333 19.5 27s17.833 13.667 28.5 18s22 6.5 34 6.5c30 0 56.667 -11 80 -33c23.333 -21.333 35 -47 35 -77z" />
    <glyph glyph-name="bracketleft" unicode="[" horiz-adv-x="186" 
d="M190 -121l-1 -5c-42 0 -80.333 12 -115 36c-38 26 -57 57.333 -57 94v792c0 36.667 19 68 57 94c34.667 24 73 36 115 36l1 -5c-31.333 -19.333 -47 -44.333 -47 -75v-892c0 -30.667 15.667 -55.667 47 -75z" />
    <glyph glyph-name="backslash" unicode="\" horiz-adv-x="367" 
d="M354 -2c-31.333 17.333 -61.002 28.332 -89.002 32.999c0 44 -21.333 107.333 -64 190l-61 115l-61 114c-45.333 92 -71.666 171.333 -78.999 238c20 -12.667 54.333 -27 103 -43c2 -58 25 -127 69 -207l60 -104l60 -104c42.667 -83.333 63.334 -160.666 62.001 -231.999
z" />
    <glyph glyph-name="bracketright" unicode="]" horiz-adv-x="186" 
d="M168 4c0 -36.667 -19 -68 -57 -94c-35.333 -24 -73.666 -36 -114.999 -36l-1 5c31.333 19.333 47 44.333 47 75v892c0 30.667 -15.667 55.667 -47 75l1 5c41.333 0 79.666 -12 114.999 -36c38 -26 57 -57.333 57 -94v-792z" />
    <glyph glyph-name="asciicircum" unicode="^" horiz-adv-x="250" 
d="M219 724c-13.333 -2.66699 -25.3311 -3.99902 -35.998 -3.99902c-24.667 0 -54.334 16.667 -89.001 50c-0.666992 -0.666992 -6.16699 -5.33398 -16.5 -14.001l-46.5 -39l-16 16l100 92c7.33301 -20 20.666 -40.333 39.999 -61c15.333 -16.667 35 -28 59 -34z" />
    <glyph glyph-name="underscore" unicode="_" horiz-adv-x="781" 
d="M812 -130h-806v41h806v-41z" />
    <glyph glyph-name="grave" unicode="`" horiz-adv-x="162" 
d="M153 744l-14 -29c-17.333 0 -38.333 12.333 -63 37s-46.334 37 -65.001 37l20 28c23.333 0 46.333 -12.333 69 -37c22.667 -24 40.334 -36 53.001 -36z" />
    <glyph glyph-name="a" unicode="a" horiz-adv-x="381" 
d="M378 -2l-81 -0.000976562l-13 72c-89.333 -47.333 -146.666 -74.666 -171.999 -81.999c-28.667 0 -52 13.333 -70 40c-16.667 24.667 -25 53.667 -25 87c0 42.667 14.667 79.667 44 111c34 36.667 92.667 70.667 176 102c0 15.333 -6.33301 33.333 -19 54
c-12 21.333 -21.667 32 -29 32c-8.66699 0 -23.667 -11.667 -45 -35c-20.667 -22.667 -37.334 -34 -50.001 -34c-9.33301 0 -17.333 3.33301 -24 10s-10 14.667 -10 24c0 33.333 37.333 52.333 112 57c34 2 65.333 -3 94 -15c32 -14 48 -32.333 48 -55zM279 98.999
l-34.002 183c-3.33301 0.666992 -6.33301 1 -9 1h-9c-31.333 0 -59.666 -11.667 -84.999 -35c-24.667 -22.667 -37.667 -50.334 -39 -83.001c-1.33301 -27.333 5.66699 -53.666 21 -78.999s32.333 -38 51 -38c38.667 14 73.334 31 104.001 51z" />
    <glyph glyph-name="b" unicode="b" horiz-adv-x="416" 
d="M393 219c0 -61.333 -22.666 -113.668 -67.999 -157.001c-44.667 -42.667 -97.334 -64 -158.001 -64h-137v635l-36 -5l-8 16l134 44v-317l157 77c77.333 -65.333 116 -141.666 116 -228.999zM318.001 177.998c0 42.667 -12.668 85.667 -38.001 129
c-25.333 44 -50.333 66 -75 66c-36.667 0 -65 -18 -85 -54v-288h47c38.667 0 73.334 14.333 104.001 43c31.333 29.333 47 64 47 104z" />
    <glyph glyph-name="c" unicode="c" horiz-adv-x="348" 
d="M332 67l-159 -80c-20 13.333 -38.667 28.833 -56 46.5s-33.333 37.834 -48 60.501c-30.667 48.667 -46 94.667 -46 138c0 42.667 17.667 87.667 53 135c38 50.667 78.667 76 122 76c48.667 0 89 -23.333 121 -70l-69 -51c-6 10 -13.167 19.167 -21.5 27.5
s-17.333 15.666 -27 21.999s-19.667 11.333 -30 15s-20.5 5.5 -30.5 5.5c-39.333 0 -59 -26.667 -59 -80c0 -60 24 -121.333 72 -184c42.667 -56 76 -84 100 -84c2.66699 0 4.66699 0.666992 6 2l49 24z" />
    <glyph glyph-name="d" unicode="d" horiz-adv-x="382" 
d="M349 -2l-91 -0.00195312v63l-136 -61c-33.333 4 -61 26 -83 66c-20 36.667 -30 78.334 -30 125.001c0 62.667 22.667 119.334 68 170.001c44.667 50.667 95 76 151 76c10 0 20 -1 30 -3v199l-36 -5l-7 16l134 44v-690zM258 90.998l0.000976562 301.001
c-12.667 6.66699 -26.334 10 -41.001 10c-32 0 -60.667 -15.667 -86 -47c-24.667 -30.667 -37 -65.667 -37 -105c0 -44.667 9.33301 -83.334 28 -116.001c21.333 -36 50.333 -58.333 87 -67z" />
    <glyph glyph-name="e" unicode="e" horiz-adv-x="330" 
d="M307 306c0 -31.333 -21.999 -62.332 -65.999 -92.999l-48 -27.5l-47 -27.5c22 -44.667 64.333 -86.334 127 -125.001l-16 -10l-16 -10c-24.667 -12.667 -45.334 -20 -62.001 -22c-27.333 0 -61 27.667 -101 83c-42 56.667 -63 109.667 -63 159
c0 54 24.667 104.667 74 152c42.667 40.667 80.667 61 114 61c18 0 40.667 -21 68 -63c24 -38 36 -63.667 36 -77zM213.001 280.001c-1.33301 18.667 -11.333 39.334 -30 62.001c-19.333 24 -36.666 36 -51.999 36c-4.66699 0 -9.33398 -1.66699 -14.001 -5
c-26 -18.667 -38.667 -39.334 -38 -62.001c14.667 -84.667 32.334 -127 53.001 -127c16 0 33.667 10 53 30c19.333 22 28.666 44 27.999 66z" />
    <glyph glyph-name="f" unicode="f" horiz-adv-x="291" 
d="M276 640c0 -26.667 -25.334 -44.333 -76.001 -53c1.33301 16.667 -2.16699 31.667 -10.5 45s-20.166 20 -35.499 20c-7.33301 0 -11 -10 -11 -30v-184c34 12.667 64.333 19 91 19c4 0 10.333 -1.66699 19 -5v-88c-32.667 22.667 -69.334 33 -110.001 31v-397h-91v371
c-3.33301 -2 -8.33301 -4.5 -15 -7.5s-14.667 -6.83301 -24 -11.5l-9 12l19 11c8 4.66699 17.667 10.667 29 18v237l66 36c32 15.333 60.333 23 85 23c8.66699 0 17.334 -1.33301 26.001 -4s16.5 -6.16699 23.5 -10.5s12.667 -9.33301 17 -15s6.5 -11.5 6.5 -17.5z" />
    <glyph glyph-name="g" unicode="g" horiz-adv-x="433" 
d="M443 -126c0 -40.667 -16.6709 -62.666 -50.0039 -65.999h-3c-20.667 0.666992 -31 10.667 -31 30c0 20.667 10 31 30 31c18 0 28.667 -11 32 -33c4 8.66699 6 20.334 6 35.001c0 8.66699 -3.66699 16 -11 22s-15.666 9 -24.999 9c-15.333 0 -34.666 -9.66699 -57.999 -29
c-33.333 -27.333 -57 -45 -71 -53c-35.333 -19.333 -74.666 -29 -117.999 -29c-41.333 0 -72.333 4.66699 -93 14c-30.667 14 -46 39.667 -46 77c0 54 49.667 95 149 123c-44 27.333 -78.333 61 -103 101c-21.333 34.667 -32 66.334 -32 95.001
c0 63.333 29.667 122.666 89 177.999c51.333 47.333 94 71 128 71c1.33301 0 3.5 -0.833008 6.5 -2.5s6.33301 -3.33398 10 -5.00098l11 -5c3.66699 -1.66699 6.83398 -2.5 9.50098 -2.5c26.667 0 47 13.333 61 40c12.667 22.667 19 50.667 19 84
c0 32.667 -11.333 60.334 -34 83.001c-22 23.333 -48.667 35 -80 35c-14 0 -27.167 -2.33301 -39.5 -7s-23.166 -11 -32.499 -19s-16.833 -17.5 -22.5 -28.5s-8.5 -22.833 -8.5 -35.5c0 -11.333 2.16699 -21.833 6.5 -31.5s10.166 -18 17.499 -25s15.833 -12.667 25.5 -17
s19.834 -6.5 30.501 -6.5c18.667 0 34.5 7 47.5 21s19.5 30.333 19.5 49c0 12 -4.5 22.333 -13.5 31s-19.833 13 -32.5 13c-2.66699 0 -6 -0.666992 -10 -2c12 -11.333 18 -21 18 -29c0 -25.333 -12 -38 -36 -38s-36 12.667 -36 38c0 14.667 6.5 26.834 19.5 36.501
s27.833 14.5 44.5 14.5c18 0 33.667 -6.16699 47 -18.5s20 -27.5 20 -45.5c0 -12 -2.33301 -23.167 -7 -33.5s-11 -19.333 -19 -27s-17.333 -13.834 -28 -18.501s-22 -7 -34 -7c-28 0 -51.333 9 -70 27s-28 41 -28 69c0 31.333 12 57 36 77
c23.333 20.667 51.666 31 84.999 31c37.333 0 68.333 -13.333 93 -40c26 -27.333 39 -59.333 39 -96c0 -58.667 -19 -110.334 -57 -155.001c59.333 -72.667 89 -125.667 89 -159c0 -63.333 -26.333 -119 -79 -167c-20.667 -20 -69 -52.667 -145 -98
c-52.667 -30.667 -79 -57.334 -79 -80.001c0 -16 5.66699 -26.667 17 -32c6 -2.66699 24.667 -4 56 -4c39.333 0 75.333 12.333 108 37s60 37 82 37c53.333 0 80 -21.333 80 -64zM330.996 192.001c0 34 -23.001 73.666 -69.001 118.999
c-43.333 42.667 -77.666 64 -102.999 64c-11.333 0 -25.333 -11 -42 -33c-18 -24 -27 -46.667 -27 -68c0 -40 24.333 -84 73 -132c44.667 -44 78.334 -66 101.001 -66c15.333 0 30.666 15 45.999 45c14 26.667 21 50.334 21 71.001z" />
    <glyph glyph-name="h" unicode="h" horiz-adv-x="427" 
d="M394 198c0 -57.333 -17 -112.332 -51 -164.999c-10.667 -16 -25.5 -35.333 -44.5 -58s-42.833 -49 -71.5 -79l-5 6c34 35.333 57.667 73.666 71 114.999c12 36.667 18 82.667 18 138c0 88.667 -39.333 164 -118 226l-78 -31v-350h-93v635l-34 -5l-8 15l135 44v-305
l167 56c74.667 -66 112 -146.667 112 -242z" />
    <glyph glyph-name="i" unicode="i" 
d="M132 561c0 -16 -5.66699 -29.667 -17 -41s-24.666 -17 -39.999 -17c-16 0 -29.667 5.66699 -41 17s-17 25 -17 41c0 15.333 5.66699 28.666 17 39.999s25 17 41 17c15.333 0 28.666 -5.66699 39.999 -17s17 -24.666 17 -39.999zM123 -2h-91v388l-36 -5l-8 12l135 47v-442
z" />
    <glyph glyph-name="j" unicode="j" 
d="M132 561c0 -16 -5.66699 -29.667 -17 -41s-24.666 -17 -39.999 -17c-16 0 -29.667 5.66699 -41 17s-17 25 -17 41c0 15.333 5.66699 28.666 17 39.999s25 17 41 17c15.333 0 28.666 -5.66699 39.999 -17s17 -24.666 17 -39.999zM123 -84
c0 -27.333 -14.333 -50.333 -43 -69c-26 -18 -54.333 -27 -85 -27v4c24 14 36 32.333 36 55l1 507l-36 -5l-8 12l135 47v-524z" />
    <glyph glyph-name="k" unicode="k" horiz-adv-x="410" 
d="M409 -113c-5.33301 -6.66699 -10.834 -12.666 -16.501 -17.999l-16.5 -16c-26.667 -23.333 -49 -37 -67 -41c-17.333 102.667 -60.666 239.334 -129.999 410.001c-4.66699 -2.66699 -10 -5.5 -16 -8.5l-20 -10.5v-203h-105v624l-41 -8l-9 17l155 59v-449
c60.667 22.667 91 50.667 91 84c0 26.667 -18 43 -54 49l101 72c8.66699 -2.66699 16.667 -6.83398 24 -12.501s13.833 -12 19.5 -19s10 -14.333 13 -22s4.5 -14.834 4.5 -21.501c0 -24.667 -9.66699 -45 -29 -61l-27 -18l-26 -18z" />
    <glyph glyph-name="l" unicode="l" horiz-adv-x="153" 
d="M123 -2h-91v635l-36 -5l-8 12l135 48v-690z" />
    <glyph glyph-name="m" unicode="m" horiz-adv-x="647" 
d="M615 198c0 -57.333 -17 -112.332 -51 -164.999c-10.667 -16 -25.5 -35.333 -44.5 -58s-42.833 -49 -71.5 -79l-4 6c32.667 34.667 55.667 73 69 115c12 36.667 18 82.667 18 138c0 87.333 -39 162.666 -117 225.999l-80 -29v-352h-87v386l-129 -38v-348h-86v386l-35 -5
l-6 16l127 43v-59l216 59v-55l168 55c75.333 -65.333 113 -146 113 -242z" />
    <glyph glyph-name="n" unicode="n" horiz-adv-x="433" 
d="M400 198c0 -57.333 -17 -112.332 -51 -164.999c-10.667 -16 -25.5 -35.333 -44.5 -58s-42.833 -49 -71.5 -79l-5 6c34 35.333 57.667 73.666 71 114.999c12 36.667 18 82.667 18 138c0 88.667 -39.333 164 -118 226l-81 -31v-350h-85v386l-35 -5l-7 16l127 43v-56l170 56
c74.667 -66 112 -146.667 112 -242z" />
    <glyph glyph-name="o" unicode="o" horiz-adv-x="421" 
d="M397 243c0 -80 -69 -166.335 -207 -259.002c-55.333 26.667 -99.333 62.667 -132 108c-27.333 38.667 -41 74.334 -41 107.001c0 62.667 29.333 121.334 88 176.001c50.667 46.667 93 70 127 70c24 0 56.667 -22 98 -66c44.667 -48.667 67 -94 67 -136zM326 190.998
c0 33.333 -22.667 72.668 -68 118.001c-43.333 42 -77.666 63 -102.999 63c-10.667 0 -24 -11 -40 -33c-18 -24 -27 -46.667 -27 -68c0 -40.667 24 -84.334 72 -131.001c44.667 -43.333 78 -65 100 -65c15.333 0 30.666 14.667 45.999 44c13.333 28 20 52 20 72z" />
    <glyph glyph-name="p" unicode="p" horiz-adv-x="403" 
d="M379 245c0 -62.667 -24.667 -116.667 -74 -162c-37.333 -33.333 -96.333 -67.333 -177 -102l-1 -217h-91v627l-36 -5l-8 12l134 47v-64l140 55c33.333 -4 61 -26 83 -66c20 -37.333 30 -79 30 -125zM294 186c0 45.333 -9.33301 83.666 -28 114.999
c-21.333 36.667 -50.333 59.334 -87 68.001l-49 -24l-1 -322c110 32 165 86.333 165 163z" />
    <glyph glyph-name="q" unicode="q" horiz-adv-x="398" 
d="M372 -235l-91 0.999023l1 308l-158 -77c-76.667 56.667 -115 129.334 -115 218.001c0 62 22.333 114.333 67 157c45.333 43.333 98 65 158 65h138v-672zM282 122.999v280h-47c-38.667 0 -73.667 -14.333 -105 -43c-31.333 -29.333 -47 -63.666 -47 -102.999
c0 -36.667 16.667 -78.334 50 -125.001c30 -40.667 51.333 -61 64 -61c24 0 52.333 17.333 85 52z" />
    <glyph glyph-name="r" unicode="r" horiz-adv-x="330" 
d="M308 285c0 -30.667 -7 -57 -21 -79c-16 -24.667 -37 -37 -63 -37c-15.333 0 -28.666 5.83301 -39.999 17.5s-17 25.5 -17 41.5c0 14.667 4.16699 27.334 12.5 38.001s19.166 16 32.499 16c22 0 33 -10.667 33 -32c0 -8.66699 -3.33301 -16 -10 -22s-14 -9 -22 -9
c-11.333 0 -19.666 3.66699 -24.999 11c0 -9.33301 3.5 -18.166 10.5 -26.499s15.5 -12.5 25.5 -12.5c19.333 0 34.833 8.5 46.5 25.5s17.5 36.5 17.5 58.5c0 12 -2.5 23.167 -7.5 33.5s-11.833 19.166 -20.5 26.499s-18.834 13.166 -30.501 17.499s-23.834 6.5 -36.501 6.5
c-28.667 0 -51.667 -7.66699 -69 -23v-338h-91v388l-36 -5l-7 12l134 47v-61c18.667 4.66699 45.334 17 80.001 37c28 15.333 56.333 22.666 85 21.999c6.66699 -33.333 11.5 -62.666 14.5 -87.999s4.5 -47 4.5 -65z" />
    <glyph glyph-name="s" unicode="s" horiz-adv-x="417" 
d="M400 182c0 -20.667 -19.666 -54.666 -58.999 -101.999c-39.333 -46.667 -59 -73.334 -59 -80.001h-110c-42 0 -78.333 10.667 -109 32c-32.667 22.667 -49 53.334 -49 92.001c0 12 2.16699 23.167 6.5 33.5s10.5 19.5 18.5 27.5s17.167 14.333 27.5 19s21.5 7 33.5 7
c20.667 0 39 -6.33301 55 -19s24 -28.667 24 -48c0 -14 -5.83301 -25.833 -17.5 -35.5s-24.834 -14.5 -39.501 -14.5c-12 0 -22.167 4.16699 -30.5 12.5s-11.833 19.166 -10.5 32.499c1.33301 15.333 9.66602 23 24.999 23s23 -8 23 -24c0 -4 -2.33301 -8.83301 -7 -14.5
s-9 -8.5 -13 -8.5c8 -3.33301 13 -5 15 -5c10 0 18.667 3.66699 26 11s11 16.333 11 27c0 14 -5.83301 25.167 -17.5 33.5s-25.167 12.5 -40.5 12.5c-14.667 0 -26.667 -6 -36 -18s-14 -26 -14 -42c0 -47.333 46.333 -71 139 -71c34 0 74 10 120 30
c10.667 14.667 16 26 16 34c0 15.333 -26.333 33.333 -79 54l-73 28l-73 28c-52.667 22.667 -79 46 -79 70c0 28 15.667 51.667 47 71c30.667 18.667 92.334 42.667 185.001 72c25.333 -0.666992 63.666 -18 114.999 -52l-79 -58c-43.333 36.667 -83.333 55 -120 55
c-13.333 0 -26.166 -3.5 -38.499 -10.5s-18.5 -14.833 -18.5 -23.5c0 -16.667 24.667 -34.667 74 -54l68 -26l69 -27c49.333 -23.333 74 -47.333 74 -72z" />
    <glyph glyph-name="t" unicode="t" horiz-adv-x="254" 
d="M226 355c-16.667 10.667 -31.001 16.998 -43.001 18.998c-2.66699 0.666992 -8 0.833984 -16 0.500977s-18.667 -0.833008 -32 -1.5v-375h-91v350c-9.33301 -3.33301 -22 -8.66602 -38 -15.999l-9 12c4.66699 2 10.834 5.16699 18.501 9.5l28.5 16.5v203l-36 -6l-8 12
l135 48v-211c16.667 6.66699 32.5 11.5 47.5 14.5s29.5 4.83301 43.5 5.5v-81z" />
    <glyph glyph-name="u" unicode="u" horiz-adv-x="397" 
d="M368 0l-86 -1.99902v53l-160 -57c-75.333 65.333 -113 146 -113 242c0 56.667 17 111.667 51 165c10.667 16 25.5 35.333 44.5 58s42.833 49 71.5 79l5 -6c-34 -36 -57.333 -74 -70 -114c-12 -37.333 -18 -83.333 -18 -138c0 -88.667 39 -164.334 117 -227.001l72 31v297
l-38 -5l-8 12l132 46v-434z" />
    <glyph glyph-name="v" unicode="v" horiz-adv-x="433" 
d="M406 451c0 -45.333 -12.3311 -104.668 -36.998 -178.001c-27.333 -82.667 -63.333 -161.334 -108 -236.001l13 -38l-92 -1l-139 380l-41 -11l-6 11l120 59l122 -339c23.333 18.667 41.666 48.667 54.999 90c9.33301 31.333 14 57.333 14 78c0 38 -16.333 75.333 -49 112
c70.667 42.667 106 95.667 106 159c0 36 -12 67 -36 93c-24 26.667 -53.667 40 -89 40c-28 0 -52.5 -7.5 -73.5 -22.5s-32.833 -35.167 -35.5 -60.5c-1.33301 -12 -0.166016 -23.667 3.50098 -35s9.33398 -21.333 17.001 -30s16.667 -15.667 27 -21s21.5 -8 33.5 -8
c23.333 0 43.166 7.66699 59.499 23s24.5 34.333 24.5 57c0 14.667 -5.66699 27.167 -17 37.5s-25 15.5 -41 15.5c-32.667 0 -49 -14 -49 -42c0 -20.667 8.33301 -31 25 -31c-3.33301 3.33301 -5 8 -5 14c0 16.667 9 25 27 25c16 0 24 -8.33301 24 -25
c0 -25.333 -12.667 -38 -38 -38c-14.667 0 -27.334 5.5 -38.001 16.5s-16 23.833 -16 38.5c0 16.667 7.16699 30.834 21.5 42.501s30.5 17.5 48.5 17.5c10 0 19.5 -2 28.5 -6s17 -9.16699 24 -15.5s12.5 -13.833 16.5 -22.5s6 -17.667 6 -27c0 -26.667 -10.333 -50 -31 -70
c-20.667 -19.333 -44 -29 -70 -29c-28.667 0 -53 11 -73 33c-20 22.667 -29 48.667 -27 78c0.666992 15.333 4.66699 29.333 12 42s16.666 23.5 27.999 32.5s24.5 16 39.5 21s30.5 7.5 46.5 7.5c60 0 104.667 -25.667 134 -77c23.333 -41.333 35 -94.666 35 -159.999z" />
    <glyph glyph-name="w" unicode="w" horiz-adv-x="654" 
d="M630 440c-0.666992 -35.333 -3.83105 -69.332 -9.49805 -101.999s-14.167 -64.334 -25.5 -95.001c-18 -49.333 -51.667 -118 -101 -206l12 -38l-87 -1l-72 183l-33.5 -59l-48.5 -85l12 -38l-86 -1l-151 383l-39 -11l-5 11l114 59l142 -354
c6.66699 9.33301 16.667 25.166 30 47.499s29.666 51.5 48.999 87.5l-62 160l-40 -11l-5 11l114 59l42 -108c26 60 39 128.333 39 205c0 36 -12 67 -36 93c-24 26.667 -53.667 40 -89 40c-28 0 -52.333 -7.5 -73 -22.5s-32.334 -35.167 -35.001 -60.5
c-2.66699 -24.667 4 -46.667 20 -66c16.667 -18.667 36.667 -28 60 -28s42.833 7.66699 58.5 23s23.5 34.333 23.5 57c0 14 -5.83301 26 -17.5 36s-24.5 15 -38.5 15c-32 0 -48 -13.333 -48 -40c0 -20.667 8 -31 24 -31c-3.33301 3.33301 -5 8 -5 14c0 16.667 9 25 27 25
c16 0 24 -8.33301 24 -25c0 -24.667 -12.667 -37 -38 -37c-14.667 0 -27.167 5.33301 -37.5 16s-15.5 23.334 -15.5 38.001c0 16.667 7 30.5 21 41.5s30 16.5 48 16.5c10 0 19.333 -1.83301 28 -5.5s16.334 -8.66699 23.001 -15s12 -13.666 16 -21.999s6 -17.166 6 -26.499
c0 -13.333 -2.66699 -26 -8 -38s-12.5 -22.5 -21.5 -31.5s-19.5 -16.167 -31.5 -21.5s-24.667 -8 -38 -8c-28.667 0 -52.334 10.5 -71.001 31.5s-28 47.5 -28 79.5c0 30 13 55 39 75c23.333 18.667 52 28 86 28c57.333 0 99 -22.667 125 -68
c16.667 -28.667 25 -62.334 25 -101.001c0 -68.667 -14.667 -147 -44 -235l73 -186c22 18 39.667 48 53 90c8.66699 28 13 54 13 78c0 37.333 -15.667 74.666 -47 111.999l27.5 18l27.5 18c5.33301 2.66699 15 6.16699 29 10.5s32.667 9.5 56 15.5z" />
    <glyph glyph-name="x" unicode="x" horiz-adv-x="427" 
d="M410 -2h-97l-133 213c-63.333 -51.333 -95 -104 -95 -158c0 -35.333 10 -65 30 -89c8.66699 -10 33 -30 73 -60l-118 -55c-42.667 46.667 -64 97.667 -64 153c0 43.333 17.667 85.333 53 126c22 26 59.667 58.333 113 97l-100 160l-46 -8l-7 11l120 54l100 -165
c44.667 38.667 67 75 67 109c0 28.667 -10.667 54.334 -32 77.001c-18.667 19.333 -37 28.666 -55 27.999l101 45c14.667 0 27.667 -7.66699 39 -23c12 -18 18 -42 18 -72c0 -37.333 -13 -71.333 -39 -102c-19.333 -22 -49.333 -48 -90 -78l62 -100.5z" />
    <glyph glyph-name="y" unicode="y" horiz-adv-x="450" 
d="M421 304c0 -65.333 -18.333 -124.666 -55 -177.999l-51 -62l-51 -62c-36.667 -46.667 -55 -93 -55 -139c0 -20.667 4.33301 -40 13 -58c1.33301 -2 4.33301 -7.33301 9 -16s11.667 -20.667 21 -36h-112c-4.66699 18.667 -7 33.334 -7 44.001
c0 47.333 27.333 106.666 82 177.999l-174 403l-41 -11l-6 11l125 59l162 -373c45.333 67.333 68 129.666 68 186.999c0 26 -12.667 50.667 -38 74c-14 12 -41.333 30 -82 54l136 57l20 -25.5l20 -25.5c10.667 -16.667 16 -43.667 16 -81z" />
    <glyph glyph-name="z" unicode="z" horiz-adv-x="437" 
d="M411 156c0 -15.333 -3.33398 -34.001 -10.001 -56.001c-6.66699 -20.667 -10 -39.667 -10 -57c0 -10.667 4.33301 -25 13 -43h-401l249 395c-19.333 11.333 -36 17 -50 17c-28.667 0 -70 -29.333 -124 -88l-77 52c12.667 14.667 23.667 26.5 33 35.5
s17.333 15.833 24 20.5c22.667 15.333 48.667 23 78 23c28.667 0 60.667 -6 96 -18c34.667 -12 67 -18 97 -18c18.667 0 43.667 6.33301 75 19l3 -4l-265 -408c52.667 0 99.667 6.66699 141 20c66 22.667 99 60.667 99 114c0 35.333 -19 53 -57 53
c-9.33301 0 -17.666 -3.66699 -24.999 -11s-11 -15.666 -11 -24.999c10.667 8 19.667 12 27 12c18 0 27 -9.66699 27 -29c0 -17.333 -9.33301 -26 -28 -26c-26 0 -39 15 -39 45c0 14 5.83301 25.5 17.5 34.5s25.167 13.5 40.5 13.5c20.667 0 38.667 -6.66699 54 -20
s23 -30.333 23 -51z" />
    <glyph glyph-name="braceleft" unicode="{" horiz-adv-x="303" 
d="M368 -97c0 -26.667 -10.002 -47.333 -30.002 -62c-17.333 -13.333 -38.333 -20 -63 -20c-36.667 0 -69.334 8 -98.001 24c-52.667 28.667 -79 80 -79 154c0 26.667 4.33301 58.667 13 96c4.66699 19.333 8 37 10 53s3 30 3 42c0 58.667 -38 103 -114 133v48
c76 30 114 74.333 114 133c0 25.333 -4.33301 56.666 -13 93.999s-13 69.333 -13 96c0 74 26.333 125.333 79 154c28.667 16 61.334 24 98.001 24c24.667 0 45.667 -6.66699 63 -20c20 -15.333 30 -35.666 30 -60.999c0 -22 -5.66699 -40 -17 -54s-25.666 -21 -42.999 -21
c-14.667 0 -27.167 5.16699 -37.5 15.5s-15.5 24.166 -15.5 41.499c0 10.667 4.66699 19.667 14 27c7.33301 5.33301 15 8 23 8c8.66699 0 16.334 -3.5 23.001 -10.5s10 -15.167 10 -24.5c0 -14.667 -6.33301 -25.334 -19 -32.001c9.33301 0 18.333 4.83301 27 14.5
s13 21.5 13 35.5c0 16.667 -6.5 29.834 -19.5 39.501s-28.5 14.5 -46.5 14.5c-18.667 0 -34.334 -10.333 -47.001 -31c-18 -28 -27 -71 -27 -129c0 -20 2 -45.333 6 -76c2.66699 -15.333 4.5 -29.333 5.5 -42s1.5 -23.667 1.5 -33c0 -38 -11 -71.333 -33 -100
c-16.667 -22 -39.334 -41.333 -68.001 -58c-9.33301 -5.33301 -18.666 -10.333 -27.999 -15s-18.666 -9.66699 -27.999 -15c9.33301 -5.33301 18.666 -10.333 27.999 -15l28 -14c28.667 -16.667 51.334 -36 68.001 -58c22 -29.333 33 -62.333 33 -99
c0 -9.33301 -0.5 -20.333 -1.5 -33s-2.83301 -26.667 -5.5 -42c-4 -31.333 -6 -56.666 -6 -75.999c0 -58 9 -101 27 -129c12.667 -20.667 28.334 -31 47.001 -31c18 0 33.5 4.83301 46.5 14.5s19.5 22.834 19.5 39.501c0 13.333 -4.33301 25 -13 35s-17.667 15 -27 15
c12.667 -8 19 -18.667 19 -32c0 -23.333 -11 -35 -33 -35c-24.667 0 -37 11.667 -37 35c0 17.333 5.16699 31.166 15.5 41.499s22.833 15.5 37.5 15.5c17.333 0 31.666 -7 42.999 -21s17 -32 17 -54z" />
    <glyph glyph-name="bar" unicode="|" horiz-adv-x="189" 
d="M167 69c0 -34 -18 -63.333 -54 -88c-33.333 -22 -69.333 -33 -108 -33v6c31.333 17.333 47 40 47 68v636l-44 -8l-11 16l170 58v-655z" />
    <glyph glyph-name="braceright" unicode="}" horiz-adv-x="303" 
d="M294 323c-76 -30 -114.002 -74.3369 -114.002 -133.004c0 -12 1 -26 3 -42s5.33301 -33.667 10 -53c8.66699 -37.333 13 -69.333 13 -96c0 -73.333 -26.667 -124.666 -80 -153.999c-29.333 -16 -61.666 -24 -96.999 -24c-24.667 0 -45.667 6.66699 -63 20
c-20 14.667 -30 35.334 -30 62.001c0 22 5.66699 40 17 54s25.666 21 42.999 21c14.667 0 27.167 -5.16699 37.5 -15.5s15.5 -24.166 15.5 -41.499c0 -23.333 -12.333 -35 -37 -35c-22 0 -33 11.667 -33 35c0 13.333 6 24 18 32c-9.33301 0 -18.166 -5 -26.499 -15
s-12.5 -21.667 -12.5 -35c0 -16.667 6.5 -29.834 19.5 -39.501s28.5 -14.5 46.5 -14.5c18.667 0 34.334 10.333 47.001 31c18 28 27 71 27 129c0 9.33301 -0.5 20.5 -1.5 33.5s-2.83301 27.167 -5.5 42.5c-4 30.667 -6 55.667 -6 75c0 36.667 11 69.667 33 99
c16.667 22 39.334 41.333 68.001 58l28 14c9.33301 4.66699 18.666 9.66699 27.999 15c-9.33301 5.33301 -18.666 10.333 -27.999 15s-18.666 9.66699 -27.999 15c-28.667 16.667 -51.334 36 -68.001 58c-22 28.667 -33 62 -33 100c0 18.667 2 43.667 6 75
c2.66699 15.333 4.5 29.5 5.5 42.5s1.5 24.167 1.5 33.5c0 58 -9 101 -27 129c-12.667 20.667 -28.334 31 -47.001 31c-18 0 -33.5 -4.83301 -46.5 -14.5s-19.5 -22.834 -19.5 -39.501c0 -14 4.16699 -25.833 12.5 -35.5s17.166 -14.5 26.499 -14.5
c-12 6.66699 -18 17.334 -18 32.001c0 9.33301 3.33301 17.5 10 24.5s14.334 10.5 23.001 10.5c8 0 16.167 -3 24.5 -9s12.5 -14.667 12.5 -26c0 -17.333 -5.16699 -31.166 -15.5 -41.499s-22.833 -15.5 -37.5 -15.5c-17.333 0 -31.666 7 -42.999 21s-17 32 -17 54
c0 25.333 10 45.666 30 60.999c17.333 13.333 38.333 20 63 20c35.333 0 67.666 -8 96.999 -24c53.333 -29.333 80 -80.666 80 -153.999c0 -26.667 -4.33301 -58.667 -13 -96s-13 -68.666 -13 -93.999c0 -58.667 38 -103 114 -133v-48z" />
    <glyph glyph-name="asciitilde" unicode="~" horiz-adv-x="221" 
d="M203 773c2.66699 -31.333 -9.33301 -48.332 -36 -50.999c-14.667 -1.33301 -33.667 8.33398 -57 29.001c-24 20.667 -43.667 30 -59 28c-6 -0.666992 -11.5 -4.83398 -16.5 -12.501s-6.83301 -15.834 -5.5 -24.501c1.33301 -3.33301 2.83301 -6.83301 4.5 -10.5
l5.5 -12.5l-1 -2c-9.33301 8 -15 20.667 -17 38c-3.33301 31.333 11 49 43 53c19.333 2.66699 40.333 -6.66602 63 -27.999c21.333 -20.667 37.666 -30.334 48.999 -29.001c15.333 2 21.333 14.667 18 38c0 8 -3.66699 16.667 -11 26l3 2
c10.667 -11.333 16.334 -26 17.001 -44z" />
    <glyph glyph-name="nonbreakingspace" unicode="&#xa0;" horiz-adv-x="254" 
 />
    <glyph glyph-name="exclamdown" unicode="&#xa1;" horiz-adv-x="191" 
d="M122 629c0 -16 -5.66699 -29.5 -17 -40.5s-25 -16.5 -41 -16.5c-15.333 0 -28.666 5.5 -39.999 16.5s-17 24.5 -17 40.5s5.66699 29.667 17 41s24.666 17 39.999 17c16 0 29.667 -5.66699 41 -17s17 -25 17 -41zM178 59c-42.667 -28.667 -96.333 -51.001 -161 -67.001
v443c0 26.667 48.333 54.334 145 83.001l-41 -50v-413c1.33301 -1.33301 3.33301 -2 6 -2c3.33301 0 11 1.66699 23 5c10.667 4 18 6 22 6s6 -1.66699 6 -5z" />
    <glyph glyph-name="cent" unicode="&#xa2;" horiz-adv-x="288" 
d="M271 294l-104 -53.001v-100h-26v87l-5 -2c-33.333 21.333 -62.666 51.333 -87.999 90c-26 40.667 -39 79.667 -39 117c0 34 13 69.667 39 107c27.333 40 58.333 63.667 93 71v76h26v-74c36 -3.33301 67 -22.666 93 -57.999l-59 -44
c-4.66699 7.33301 -9.83398 14 -15.501 20s-11.834 11.667 -18.501 17v-252c16.667 -14 29.334 -21 38.001 -21c2 0 3.33301 0.333008 4 1l43 20zM141 320.999v242c-10 4.66699 -20.667 7 -32 7c-34 0 -51 -23 -51 -69c0 -61.333 27.667 -121.333 83 -180z" />
    <glyph glyph-name="sterling" unicode="&#xa3;" horiz-adv-x="590" 
d="M567 260c0 -42 -12.002 -91.001 -36.002 -147.001c-7.33301 -16.667 -18.166 -38.667 -32.499 -66l-53.5 -99c-53.333 44.667 -115 67 -185 67c-80 0 -147.667 -24.667 -203 -74l-11 4l42 56v239h-30c-11.333 0 -21.333 -3.66699 -30 -11l-27 42l56 13h31v19h-31l-56 13
l27 42c8.66699 -7.33301 18.667 -11 30 -11h30v259l-45 -10l-5 12l158 80c28 13.333 53.667 20 77 20c16 0 31.5 -2.16699 46.5 -6.5s28 -10.666 39 -18.999s19.833 -18.5 26.5 -30.5s10 -25.333 10 -40c0 -24 -7.66699 -44.333 -23 -61s-34.666 -25 -57.999 -25
c-18.667 0 -34.667 6 -48 18s-20 27 -20 45c0 12 4 22.333 12 31s18 13 30 13c22.667 0 34 -11.333 34 -34c0 -21.333 -10.667 -32 -32 -32c-4 0 -9.33301 1.66699 -16 5c0 -18 13.333 -27 40 -27c17.333 0 32 6.66699 44 20s18 29 18 47c0 22 -9 40 -27 54s-39 21 -63 21
c-12.667 0 -24.5 -2.5 -35.5 -7.5s-20.5 -12 -28.5 -21s-14.333 -19.333 -19 -31s-7 -23.834 -7 -36.501v-244h46c6.66699 0 13 1.33301 19 4c12 26.667 30.167 48.334 54.5 65.001s51.5 25 81.5 25c46.667 0 86.667 -18 120 -54c33.333 -36.667 50 -79 50 -127z
M545.998 259.999c0 43.333 -13.9971 80.6699 -41.9971 112.003c-28 32 -63 48 -105 48c-57.333 0 -97 -24.667 -119 -74l20 -30l-30 -7c-0.666992 -4.66699 -1.16699 -8.66699 -1.5 -12s-0.5 -6.33301 -0.5 -9v-10l13 -2.5c5.33301 -1 11.666 -2.5 18.999 -4.5l-22 -33
c19.333 -47.333 53.666 -71 102.999 -71c25.333 0 47.666 9.66699 66.999 29c18.667 19.333 28 41.666 28 66.999c0 22.667 -8 42 -24 58s-35.333 24 -58 24c-16 0 -29.833 -5.16699 -41.5 -15.5s-17.5 -23.166 -17.5 -38.499c0 -16 4.33301 -29.833 13 -41.5
s19.667 -17.5 33 -17.5c15.333 0 23 2.33301 23 7c-16.667 10 -25 20.333 -25 31c0 20 10 30 30 30c6.66699 0 13.334 -3.33301 20.001 -10s10 -13.334 10 -20.001c0 -38.667 -18.333 -58 -55 -58c-18.667 0 -34.667 8 -48 24s-20 34.333 -20 55c0 10 2.16699 19.333 6.5 28
s10.166 16.5 17.499 23.5s15.666 12.5 24.999 16.5s19 6 29 6c27.333 0 51 -10 71 -30c20.667 -18.667 31 -42 31 -70c0 -32 -11.333 -59.333 -34 -82c-23.333 -23.333 -50.333 -35 -81 -35c-58.667 0 -99.667 29.667 -123 89c-1.33301 1.33301 -6.66602 2.33301 -15.999 3
h-46v-196c34 1.33301 65.5 4.16602 94.5 8.49902s55.833 10.166 80.5 17.499c116.667 36 175 99.333 175 190zM249.001 304.003l-5 -1h-48v-19h48l4 -1v8c0 6.66699 0.333008 11 1 13z" />
    <glyph glyph-name="currency" unicode="&#xa4;" horiz-adv-x="337" 
d="M327 325l-45.001 -43.999c24 -31.333 36 -60.333 36 -87c0 -32.667 -17 -69 -51 -109l46 -46l-31 -31l-45 45c-26.667 -24.667 -55 -46.667 -85 -66c-27.333 13.333 -51.666 29.666 -72.999 48.999l-39 -39l-31 31l41 41c-24 30.667 -36 61 -36 91
c0 41.333 15.333 79.333 46 114l-54 51l34 31l51 -50c39.333 33.333 70.666 50 93.999 50c16.667 0 39.334 -14.333 68.001 -43l43 43zM260.999 153.001c0 26 -18 56.667 -54 92c-34.667 34.667 -62.334 52 -83.001 52c-8 0 -18.667 -8.66699 -32 -26
c-14.667 -18.667 -22 -36.667 -22 -54c0 -32 19.333 -67 58 -105c34.667 -34.667 61.334 -52 80.001 -52c12.667 0 25 12 37 36c10.667 20.667 16 39.667 16 57z" />
    <glyph glyph-name="yen" unicode="&#xa5;" horiz-adv-x="554" 
d="M551 672c-16 -15.333 -41.3389 -74.665 -76.0059 -177.998c-41.333 -118 -79.666 -205 -114.999 -261h61c12 0.666992 22 4.66699 30 12l27 -42l-56 -13h-74v-23h74l56 -12l-27 -43c-3.33301 2.66699 -13.333 6.66699 -30 12h-73v-124h-93c2 18.667 3 60 3 124h-81
c-13.333 -1.33301 -23.333 -5.33301 -30 -12l-28 43l58 12h75c-1.33301 4.66699 -5.33301 12.667 -12 24h-63l-58 12l28 42c2.66699 -3.33301 12.667 -7.33301 30 -12h32c-57.333 81.333 -112.333 208 -165 380l-26 -10l-15 12l141 60
c4.66699 -81.333 20.334 -152 47.001 -212c18 -40 44 -81 78 -123c36.667 -46 58.334 -76 65.001 -90c47.333 61.333 80.333 121 99 179c10 32 15 58 15 78c0 24 -3.33301 46.167 -10 66.5s-16.167 37.666 -28.5 51.999s-27 25.666 -44 33.999s-35.833 12.5 -56.5 12.5
c-13.333 0 -25.833 -2.66699 -37.5 -8s-22 -12.833 -31 -22.5s-16.167 -20.667 -21.5 -33s-8 -25.5 -8 -39.5c0 -13.333 2.33301 -25.833 7 -37.5s11 -22 19 -31s17.5 -16.167 28.5 -21.5s22.833 -8 35.5 -8c22.667 0 42.167 8.16699 58.5 24.5s24.5 35.833 24.5 58.5
c0 18.667 -7.83301 34 -23.5 46s-33.834 18 -54.501 18c-12 0 -23 -4.66699 -33 -14s-15 -20 -15 -32c0 -14 3.66699 -26.167 11 -36.5s17.333 -15.5 30 -15.5c20.667 0 31 7 31 21c0 4 -5.66699 7.66699 -17 11s-17 7.33301 -17 12c0 10 7.66699 15 23 15
c19.333 0 29 -7.66699 29 -23c0 -12.667 -5 -24 -15 -34s-21.333 -15 -34 -15c-16 0 -29 6.5 -39 19.5s-15 28.167 -15 45.5c0 16.667 6.16699 31 18.5 43s26.5 18 42.5 18c12.667 0 24.834 -1.83301 36.501 -5.5s21.834 -9 30.501 -16s15.667 -15.333 21 -25
s8 -20.5 8 -32.5c0 -14 -2.66699 -26.833 -8 -38.5s-12.5 -22 -21.5 -31s-19.667 -16 -32 -21s-25.5 -7.5 -39.5 -7.5c-31.333 0 -57.333 11 -78 33c-21.333 22.667 -32 49.334 -32 80.001c0 33.333 13.667 61.666 41 84.999c26.667 22.667 58.334 34 95.001 34
c22.667 0 49.334 -4.33301 80.001 -13c32 -8.66699 57.667 -13 77 -13c18 0 40.333 3.33301 67 10z" />
    <glyph glyph-name="section" unicode="&#xa7;" horiz-adv-x="417" 
d="M400 200c0 -23.333 -19.668 -60.6699 -59.001 -112.003s-59 -80.666 -59 -87.999h-110c-42.667 0 -79 12 -109 36c-32.667 24.667 -49 58 -49 100c0 12.667 2.16699 25 6.5 37s10.5 22.333 18.5 31s17.167 15.667 27.5 21s21.5 8 33.5 8c20.667 0 39 -7.16699 55 -21.5
s24 -31.833 24 -52.5c0 -16 -5.66699 -29.167 -17 -39.5s-24.666 -15.5 -39.999 -15.5c-12 0 -22.167 4.5 -30.5 13.5s-11.833 20.833 -10.5 35.5c1.33301 17.333 9.66602 26 24.999 26c6 0 11.333 -3 16 -9s7 -12 7 -18c0 -5.33301 -2.16699 -11 -6.5 -17
s-8.83301 -9 -13.5 -9c8 -3.33301 13 -5 15 -5c10 0 18.667 4 26 12s11 17.667 11 29c0 16 -5.83301 28.667 -17.5 38s-25.167 14 -40.5 14c-14.667 0 -26.667 -6.66699 -36 -20s-14 -28.666 -14 -45.999c0 -52.667 46.333 -79 139 -79c34 0 74 11 120 33
c10.667 15.333 16 28 16 38c0 16.667 -26.333 36.334 -79 59.001l-73 31l-73 30c-52.667 26 -79 52 -79 78c0 29.333 9 51.666 27 66.999c14 12 43.667 25.667 89 41c-77.333 34 -116 66 -116 96c0 30.667 15.667 56.667 47 78c15.333 10.667 38.5 22.5 69.5 35.5
s69.5 27.5 115.5 43.5c26.667 -0.666992 65 -19.667 115 -57l-79 -64c-43.333 40.667 -83.333 61 -120 61c-13.333 0 -26.166 -3.83301 -38.499 -11.5s-18.5 -16.5 -18.5 -26.5c0 -18 24.667 -37.667 74 -59l68 -29l69 -29c49.333 -25.333 74 -52 74 -80
c0 -26 -9 -51.333 -27 -76l-22 -26l-22 -26c47.333 -23.333 71 -48.666 71 -75.999zM327.999 342.996c0 20.667 -52.001 51 -156.001 91c-13.333 0 -26.166 -3.83301 -38.499 -11.5s-18.5 -16.167 -18.5 -25.5c0 -17.333 21 -35.333 63 -54l62 -25.5l62 -25.5
c17.333 21.333 26 38.333 26 51z" />
    <glyph glyph-name="dieresis" unicode="&#xa8;" horiz-adv-x="227" 
d="M191 796c0 -20.667 -10.333 -31 -31 -31s-31 10.333 -31 31s10.333 31 31 31s31 -10.333 31 -31zM82 796c0 -20.667 -10 -31 -30 -31c-20.667 0 -31 10.333 -31 31s10.333 31 31 31c20 0 30 -10.333 30 -31z" />
    <glyph glyph-name="copyright" unicode="&#xa9;" horiz-adv-x="633" 
d="M597 283c0 -79.333 -28.333 -147.333 -85 -204c-56 -56 -123.667 -84 -203 -84s-147.333 28 -204 84c-56 56.667 -84 124.667 -84 204c0 78.667 28 146.667 84 204c56.667 56.667 124.667 85 204 85s147 -28.333 203 -85c56.667 -56.667 85 -124.667 85 -204zM555 283
c0 67.333 -24.333 125 -73 173c-48 48.667 -105.667 73 -173 73s-125 -24.333 -173 -73c-48 -48 -72 -105.667 -72 -173s24 -125 72 -173s105.667 -72 173 -72s125 24 173 72c48.667 48 73 105.667 73 173zM443 225c0 -18.667 -7.3291 -27.998 -21.9961 -27.998
c-10 0 -15 5.66699 -15 17c0 8.66699 5 13 15 13c5.33301 0 9.66602 -2.66699 12.999 -8c0.666992 0 1 1.33301 1 4c0 11.333 -6.66699 17 -20 17c-20.667 0 -31 -14.333 -31 -43c0 -17.333 3.66699 -34.333 11 -51c1.33301 -1.33301 4.33301 -6 9 -14l20 -34
c-9.33301 -1.33301 -18.666 -2.33301 -27.999 -3s-18.333 -1 -27 -1c-87.333 0 -149.333 32 -186 96c-15.333 27.333 -23 59 -23 95c0 40.667 9.66699 76.667 29 108l44 52l-42 26v3c32 -11.333 62.667 -17 92 -17s53.333 6.66699 72 20c48.667 -20 73 -54.667 73 -104
c0 -31.333 -10.667 -58.666 -32 -81.999c-20.667 -22.667 -46.334 -34 -77.001 -34c-25.333 0 -46.166 8 -62.499 24s-24.5 35.333 -24.5 58c0 18 6.5 33.167 19.5 45.5s28.5 18.5 46.5 18.5c16.667 0 31.334 -5.16699 44.001 -15.5s19 -23.166 19 -38.499
c0 -14 -4.33301 -26.667 -13 -38s-19.334 -17 -32.001 -17s-23.834 3.83301 -33.501 11.5s-14.5 17.167 -14.5 28.5c0 10 3.16699 18.667 9.5 26s13.833 11 22.5 11c21.333 0 31.666 -9 30.999 -27c-1.33301 -15.333 -7.33301 -23.333 -18 -24c-11.333 3.33301 -17 9 -17 17
c0 12 5.33301 18 16 18l-12 6c-16 0 -24 -9 -24 -27c0 -19.333 13.333 -29 40 -29c10 0 18.167 4.5 24.5 13.5s9.5 19.167 9.5 30.5c0 12 -5.16699 22.667 -15.5 32s-21.833 14 -34.5 14c-16 0 -29.667 -5.33301 -41 -16s-17 -24 -17 -40
c0 -18.667 7.83301 -34.334 23.5 -47.001s33.5 -19 53.5 -19c19.333 0 35.666 7.33301 48.999 22s20 32 20 52c0 29.333 -14 53.666 -42 72.999c-24.667 16.667 -53.334 25 -86.001 25c-9.33301 -3.33301 -17.833 -8.83301 -25.5 -16.5s-14.5 -16.834 -20.5 -27.501
s-10.833 -22.167 -14.5 -34.5s-5.83398 -24.5 -6.50098 -36.5c-4 -70.667 23.333 -123.334 82 -158.001c34.667 -12 60.334 -18 77.001 -18c4 0 8 0.166992 12 0.5s7.66699 0.833008 11 1.5v45c0 12.667 3.5 24 10.5 34s16.167 15 27.5 15c20 0 30 -8.33301 30 -25z" />
    <glyph glyph-name="ordfeminine" unicode="&#xaa;" horiz-adv-x="381" 
d="M332 373l-60.002 -0.00292969l-9 55l-84 -42.5c-21.333 -10.333 -36.666 -16.833 -45.999 -19.5c-10.667 0 -20.334 2.66699 -29.001 8s-16.167 12.333 -22.5 21s-11.166 18.834 -14.499 30.501s-5 23.834 -5 36.501c0 64.667 55 117.667 165 159
c0 10 -4.66699 23.333 -14 40c-8.66699 16.667 -16 25 -22 25c-5.33301 0 -16.666 -8.66699 -33.999 -26c-16 -17.333 -28.333 -26 -37 -26c-17.333 0 -26 8.66699 -26 26c0 24.667 28 38.667 84 42c24.667 0.666992 48.667 -3.33301 72 -12
c23.333 -9.33301 35 -22.666 35 -39.999zM282.998 276.997h-173v48h173v-48zM257.998 448.997l-24.999 137.002c-26.667 4 -51 -3 -73 -21c-22 -17.333 -33.333 -39.333 -34 -66c-0.666992 -19.333 4.66602 -39 15.999 -59c11.333 -19.333 24 -29 38 -29
c13.333 5.33301 26.5 11.166 39.5 17.499s25.833 13.166 38.5 20.499z" />
    <glyph glyph-name="guillemotleft" unicode="&#xab;" horiz-adv-x="335" 
d="M302 80l-25 -29l-147 173l147 174l25 -29l-123 -144zM184 80l-25 -29l-147 173l147 174l25 -29l-124 -144z" />
    <glyph glyph-name="logicalnot" unicode="&#xac;" horiz-adv-x="407" 
d="M375 345l-1 -192l-57 2l4 99h-306v91h360z" />
    <glyph glyph-name="registered" unicode="&#xae;" horiz-adv-x="633" 
d="M597 283c0 -79.333 -28.333 -147.333 -85 -204c-56 -56 -123.667 -84 -203 -84s-147.333 28 -204 84c-56 56.667 -84 124.667 -84 204c0 78.667 28 146.667 84 204c56.667 56.667 124.667 85 204 85s147 -28.333 203 -85c56.667 -56.667 85 -124.667 85 -204zM555 283
c0 67.333 -24.333 125 -73 173c-48 48.667 -105.667 73 -173 73s-125 -24.333 -173 -73c-48 -48 -72 -105.667 -72 -173s24 -125 72 -173s105.667 -72 173 -72s125 24 173 72c48.667 48 73 105.667 73 173zM440 111l-0.996094 -1.99902c-23.333 4 -46.333 26 -69 66
c-20 36 -36 63.833 -48 83.5l-23 37.5c-19.333 10 -29 25.333 -29 46c0 28.667 13.667 43 41 43c25.333 0 38.666 -12 39.999 -36c1.33301 -21.333 -8 -33 -28 -35c-19.333 -2 -30 5.66699 -32 23c-0.666992 16.667 6 25 20 25c13.333 0 19.333 -4.66699 18 -14
c0 -8.66699 -4 -13 -12 -13c-8.66699 0 -13.334 4.33301 -14.001 13c-2 -3.33301 -3 -6.33301 -3 -9c0 -12.667 7 -19 21 -19s21 9.66699 21 29c0 18.667 -10.333 28 -31 28c-8.66699 0 -16.5 -3.33301 -23.5 -10s-10.5 -14.667 -10.5 -24c0 -12 4.5 -22.167 13.5 -30.5
s19.833 -12.5 32.5 -12.5c16.667 0 30.334 7 41.001 21s16 30 16 48c0 20 -7.5 36.667 -22.5 50s-32.5 20 -52.5 20c-12 0 -26.333 -2.33301 -43 -7v-296h-50v292c-3.33301 2 -7.66602 4.83301 -12.999 8.5l-19 13.5l1 2c20 -4 32.333 -6 37 -6
c7.33301 0 15.666 0.5 24.999 1.5s19.666 2.16699 30.999 3.5s21.666 2.5 30.999 3.5s17.666 1.5 24.999 1.5c14 0 27.667 -2.5 41 -7.5s25 -11.667 35 -20s18 -18.333 24 -30s9 -24.167 9 -37.5l-78 -61c6 -8.66699 18.333 -42.334 37 -101.001
c17.333 -54 31.333 -83.333 42 -88z" />
    <glyph glyph-name="macron" unicode="&#xaf;" horiz-adv-x="225" 
d="M196 777h-174v48h174v-48z" />
    <glyph glyph-name="macron" unicode="&#x2c9;" horiz-adv-x="225" 
d="M196 777h-174v48h174v-48z" />
    <glyph glyph-name="degree" unicode="&#xb0;" horiz-adv-x="175" 
d="M154 606c0 -19.333 -6.83301 -35.833 -20.5 -49.5s-30.167 -20.5 -49.5 -20.5s-35.666 6.83301 -48.999 20.5s-20 30.167 -20 49.5s6.66699 35.833 20 49.5s29.666 20.5 48.999 20.5s35.833 -6.83301 49.5 -20.5s20.5 -30.167 20.5 -49.5zM124 606
c0 10.667 -4 19.834 -12 27.501s-17.333 11.5 -28 11.5s-19.834 -3.83301 -27.501 -11.5s-11.5 -16.834 -11.5 -27.501s3.83301 -19.834 11.5 -27.501s16.834 -11.5 27.501 -11.5s20 3.83301 28 11.5s12 16.834 12 27.501z" />
    <glyph glyph-name="plusminus" unicode="&#xb1;" horiz-adv-x="283" 
d="M263 332h-102v-110h-41v110h-101v41h101v93h41v-93h102v-41zM227 138h-174v48h174v-48z" />
    <glyph glyph-name="acute" unicode="&#xb4;" horiz-adv-x="196" 
d="M161 789c-19.333 0 -41.332 -12.333 -65.999 -37s-45.334 -37 -62.001 -37l-14 29c12 0 29.667 12 53 36c22.667 24.667 45.667 37 69 37z" />
    <glyph glyph-name="mu" unicode="&#xb5;" horiz-adv-x="397" 
d="M368 0l-86.001 -2v53l-144 -51c-5.33301 -17.333 -8 -37 -8 -59s5.33301 -40.667 16 -56c12 -18 27.333 -27 46 -27c25.333 0 38 11 38 33c0 4.66699 -0.666992 8.33398 -2 11.001c-5.33301 -12 -14 -18 -26 -18c-19.333 0 -29 9.33301 -29 28c0 19.333 10 29 30 29
c12.667 0 22.834 -5.33301 30.501 -16s11.5 -23 11.5 -37c0 -14.667 -5.83301 -26.5 -17.5 -35.5s-25.167 -13.5 -40.5 -13.5c-22 0 -40 10.333 -54 31c-13.333 19.333 -20 41.333 -20 66c0 21.333 2.33301 41.333 7 60c-74 64.667 -111 144.667 -111 240
c0 56.667 17 111.667 51 165c10.667 16 25.5 35.333 44.5 58s42.833 49 71.5 79l5 -6c-34 -36 -57.333 -74 -70 -114c-12 -37.333 -18 -83.333 -18 -138c0 -88.667 39 -164.334 117 -227.001l72 31v297l-38 -5l-8 12l132 46v-434z" />
    <glyph glyph-name="mu" unicode="&#x3bc;" horiz-adv-x="397" 
d="M368 0l-86.001 -2v53l-144 -51c-5.33301 -17.333 -8 -37 -8 -59s5.33301 -40.667 16 -56c12 -18 27.333 -27 46 -27c25.333 0 38 11 38 33c0 4.66699 -0.666992 8.33398 -2 11.001c-5.33301 -12 -14 -18 -26 -18c-19.333 0 -29 9.33301 -29 28c0 19.333 10 29 30 29
c12.667 0 22.834 -5.33301 30.501 -16s11.5 -23 11.5 -37c0 -14.667 -5.83301 -26.5 -17.5 -35.5s-25.167 -13.5 -40.5 -13.5c-22 0 -40 10.333 -54 31c-13.333 19.333 -20 41.333 -20 66c0 21.333 2.33301 41.333 7 60c-74 64.667 -111 144.667 -111 240
c0 56.667 17 111.667 51 165c10.667 16 25.5 35.333 44.5 58s42.833 49 71.5 79l5 -6c-34 -36 -57.333 -74 -70 -114c-12 -37.333 -18 -83.333 -18 -138c0 -88.667 39 -164.334 117 -227.001l72 31v297l-38 -5l-8 12l132 46v-434z" />
    <glyph glyph-name="paragraph" unicode="&#xb6;" horiz-adv-x="470" 
d="M435 -1h-76v653h-44l1 -653h-77v325l-133 -77c-66 58 -99 131 -99 219c0 62 19.333 114.333 58 157c39.333 43.333 84 65 134 65h236v-689zM239 373v280l-39 1c-32.667 0.666992 -62.667 -13.666 -90 -42.999c-26.667 -28.667 -40 -63.334 -40 -104.001
c0 -38 14.333 -79.333 43 -124c24.667 -40.667 42.667 -61 54 -61c20.667 0 44.667 17 72 51z" />
    <glyph glyph-name="periodcentered" unicode="&#xb7;" horiz-adv-x="183" 
d="M154 370c0 -18.667 -6.5 -34.5 -19.5 -47.5s-28.833 -19.5 -47.5 -19.5s-34.5 6.5 -47.5 19.5s-19.5 28.833 -19.5 47.5s6.5 34.5 19.5 47.5s28.833 19.5 47.5 19.5s34.5 -6.5 47.5 -19.5s19.5 -28.833 19.5 -47.5z" />
    <glyph glyph-name="periodcentered" unicode="&#x2219;" horiz-adv-x="183" 
d="M154 370c0 -18.667 -6.5 -34.5 -19.5 -47.5s-28.833 -19.5 -47.5 -19.5s-34.5 6.5 -47.5 19.5s-19.5 28.833 -19.5 47.5s6.5 34.5 19.5 47.5s28.833 19.5 47.5 19.5s34.5 -6.5 47.5 -19.5s19.5 -28.833 19.5 -47.5z" />
    <glyph glyph-name="cedilla" unicode="&#xb8;" horiz-adv-x="180" 
d="M165 -135c0 -28 -6.33203 -51.667 -18.999 -71c-15.333 -22 -34.333 -33 -57 -33c-13.333 0 -25 5.16699 -35 15.5s-15 22.833 -15 37.5c0 32 13.333 48 40 48c19.333 0 29 -9.66699 29 -29c0 -18 -9.33301 -27 -28 -27c-10.667 0 -18.334 3 -23.001 9
c0 -8 3.16699 -15.833 9.5 -23.5s13.833 -11.5 22.5 -11.5c17.333 0 31.333 7.66699 42 23s16 33 16 53c0 10.667 -2.33301 20.667 -7 30s-10.834 17.333 -18.501 24s-16.667 11.834 -27 15.501s-21.166 5.5 -32.499 5.5c-1.33301 0 -8.33301 1 -21 3
c-2 1.33301 -6.66699 -1.66699 -14 -9v114l39 2l4 -63c20 5.33301 32 11.666 36 18.999c2.66699 4.66699 16.667 6.66699 42 6c11.333 -60.667 17 -106.667 17 -138z" />
    <glyph glyph-name="ordmasculine" unicode="&#xba;" horiz-adv-x="421" 
d="M355 536c0 -60 -52.001 -125 -156.001 -195c-41.333 20 -74 47 -98 81c-20.667 28.667 -31 55.667 -31 81c0 46.667 22 90.667 66 132c38.667 35.333 70.334 53 95.001 53c18 0 42.667 -16.667 74 -50c33.333 -37.333 50 -71.333 50 -102zM288.999 274h-173v48h173v-48z
M301.999 497c0 25.333 -17 54.667 -51 88c-33.333 31.333 -59.333 47 -78 47c-7.33301 0 -17.333 -8 -30 -24c-13.333 -18.667 -20 -35.667 -20 -51c0 -30 18 -63 54 -99c32.667 -32.667 57.667 -49 75 -49c12 0 23.333 11.333 34 34c10.667 20.667 16 38.667 16 54z" />
    <glyph glyph-name="guillemotright" unicode="&#xbb;" horiz-adv-x="335" 
d="M312 224l-146 -173l-25 29l123 145l-123 144l25 29zM194 224l-147 -173l-25 29l124 145l-124 144l25 29z" />
    <glyph glyph-name="threequarters" unicode="&#xbe;" horiz-adv-x="858" 
d="M75 373c0 -74.667 18.998 -131.831 56.998 -171.498s92 -59.5 162 -59.5c44 0 86.667 20 128 60c41.333 41.333 62 84.666 62 129.999c0 56.667 -18.333 100.334 -55 131.001c-33.333 27.333 -76 41 -128 41c-40 0 -75.333 -14.333 -106 -43s-46 -60.334 -46 -95.001
c0 -53.333 14 -93.333 42 -120c24.667 -24.667 59.667 -37 105 -37c37.333 0 69.333 12.333 96 37c27.333 25.333 40 55.666 38 90.999c-5.33301 74 -46.666 111 -123.999 111c-26 0 -49.667 -9.33301 -71 -28c-22 -19.333 -32.667 -41.666 -32 -66.999
s10.667 -46.333 30 -63s42 -25 68 -25c8 0 16.333 1.33301 25 4s16.334 6.5 23.001 11.5s12.167 11 16.5 18s6.5 14.5 6.5 22.5c0 4 -1.33301 10 -4 18s-4 13.333 -4 16c0 4.66699 2.33301 7.33398 7 8.00098c8 2 15.167 -0.5 21.5 -7.5s9.5 -14.833 9.5 -23.5
c0 -21.333 -10.667 -40.666 -32 -57.999s-45 -26.333 -71 -27c-16 -0.666992 -31 1.66602 -45 6.99902s-26.333 12.666 -37 21.999s-19.334 20.666 -26.001 33.999s-10.334 27.666 -11.001 42.999c-2 33.333 10.333 61.333 37 84c24.667 22.667 54.334 34 89.001 34
c48 0 84.5 -12.167 109.5 -36.5s37.5 -56.833 37.5 -97.5c0 -45.333 -13.333 -81.666 -40 -108.999c-28 -30 -66 -45 -114 -45c-55.333 0 -99.666 18.667 -132.999 56c-30 34.667 -43.333 77.667 -40 129c2.66699 46 21 84.333 55 115c35.333 31.333 75.333 47 120 47
c136.667 0 205 -66.667 205 -200c0 -57.333 -24.333 -109 -73 -155c-44.667 -42.667 -93 -64 -145 -64c-80 0 -145.667 32.667 -197 98c-43.333 55.333 -65 114.333 -65 177z" />
    <glyph glyph-name="questiondown" unicode="&#xbf;" horiz-adv-x="497" 
d="M337 631c0 -16 -5.5 -29.667 -16.5 -41s-24.5 -17 -40.5 -17s-29.667 5.66699 -41 17s-17 25 -17 41s5.66699 29.5 17 40.5s25 16.5 41 16.5s29.5 -5.5 40.5 -16.5s16.5 -24.5 16.5 -40.5zM468 199c0 -57.333 -22.999 -104.331 -68.999 -140.998
c-44.667 -36.667 -99 -55 -163 -55c-146 88.667 -219 179.667 -219 273c0 42 19.333 83.667 58 125c44 47.333 96.667 71 158 71c5.33301 0 10.5 -0.166992 15.5 -0.5s10.167 -0.833008 15.5 -1.5v51h36v-144c-10 2.66699 -21.333 4 -34 4c-44 0 -82.333 -17.333 -115 -52
s-49 -75.334 -49 -122.001c0 -60 30 -103 90 -129c37.333 0 80 10.667 128 32c60.667 28 91 63.667 91 107c0 24.667 -9 46.667 -27 66c-17.333 19.333 -38.333 29 -63 29c-12 0 -23.333 -1.83301 -34 -5.5s-20.167 -8.83398 -28.5 -15.501s-15 -14.5 -20 -23.5
s-7.5 -18.833 -7.5 -29.5c0 -18 6 -33.667 18 -47s26.667 -20 44 -20c10 0 19.333 3 28 9s13 13.333 13 22c0 1.33301 -7 2 -21 2c-18.667 0 -28 8.66699 -28 26c0 18.667 11 28 33 28c12 0 22.333 -4.16699 31 -12.5s13 -18.5 13 -30.5c0 -18 -6.83301 -33.333 -20.5 -46
s-29.834 -19 -48.501 -19c-23.333 0 -43 8.66699 -59 26s-24 38 -24 62c0 28.667 13 52.667 39 72c24.667 17.333 53 26 85 26c37.333 0 69 -13.667 95 -41s39 -59.333 39 -96z" />
    <glyph glyph-name="Agrave" unicode="&#xc0;" horiz-adv-x="573" 
d="M318 744l-14 -29c-17.333 0 -38.333 12.333 -63 37s-46.334 37 -65.001 37l20 28c23.333 0 46.333 -12.333 69 -37c22.667 -24 40.334 -36 53.001 -36zM551 0l-106.004 -0.00195312c-17.333 134.667 -40.666 231 -69.999 289
c-37.333 71.333 -92.666 111.333 -165.999 120c-0.666992 -3.33301 -2.16699 -8.66602 -4.5 -15.999s-3.83301 -12.666 -4.5 -15.999c29.333 -2.66699 54.666 -16.334 75.999 -41.001s32 -53 32 -85c0 -38 -15 -69 -45 -93c-29.333 -23.333 -65 -35 -107 -35h-15.5
c-4.33301 0 -8.16602 0.333008 -11.499 1c-10 -39.333 -14.667 -64 -14 -74c0.666992 -14 2 -30.667 4 -50s5.33301 -41.666 10 -66.999h-5c-12.667 10.667 -32.667 46 -60 106c-33.333 29.333 -50 53 -50 71c2 6.66699 19 16.334 51 29.001l6 15
c-39.333 32 -59 75.667 -59 131c0 42 17 78.667 51 110c32.667 29.333 68.334 44 107.001 44h4l53 146c-13.333 7.33301 -22.666 11 -27.999 11c-10 0 -25.333 -3 -46 -9c-28.667 -8.66699 -50.334 -20 -65.001 -34l-6 3l18 45c10.667 34 16.667 59 18 75
c60.667 -16 110 -24 148 -24c80.667 0 167 11 259 33l5 -5c-8.66699 -10 -38.334 -24 -89.001 -42c-45.333 -16 -68.666 -27.667 -69.999 -35c0 -22 9.33301 -55 28 -99l29 -67.5l30 -67.5h30c4.66699 0 10.834 0.833008 18.501 2.5s13.5 2.5 17.5 2.5
c14.667 0 22 -5 22 -15c0 -22.667 -23.333 -34.334 -70 -35.001c50 -121.333 75 -229.333 75 -324zM313.996 409.998l-61.998 143c-2.66699 -8 -6.83398 -21.5 -12.501 -40.5l-22.5 -73.5c39.333 -2 71.666 -11.667 96.999 -29zM291.998 250.998
c0 26.667 -9.66699 51.333 -29 74c-18.667 21.333 -41.667 33.666 -69 36.999c-1.33301 -6.66699 -3 -13.167 -5 -19.5l-6 -18.5h4c18.667 0 34.167 -6.5 46.5 -19.5s18.5 -29.167 18.5 -48.5c0 -23.333 -9 -42.166 -27 -56.499s-39.333 -21.5 -64 -21.5h-9
c-3.33301 0.666992 -6.33301 1 -9 1l-4.5 -16.5c-1.66699 -6.33301 -3.5 -13.833 -5.5 -22.5c6.66699 -2 14.334 -3 23.001 -3c35.333 0 66.666 11 93.999 33c28 22 42 49 42 81zM233.998 251.997c0 25.333 -6.66699 37.999 -20 37.999c-8.66699 0 -13.667 -6.66699 -15 -20
c-1.33301 -20 -14 -30 -38 -30h-1c-5.33301 -13.333 -9.33301 -27.666 -12 -42.999h7c2 -0.666992 4.66699 -1 8 -1c17.333 0 33.5 5 48.5 15s22.5 23.667 22.5 41zM143.998 355.996c-42.667 -12.667 -64 -37.667 -64 -75c0 -18 6.33301 -34.667 19 -50zM163.998 412.996
c-34 -0.666992 -65.667 -13.667 -95 -39c-28 -25.333 -42 -54.333 -42 -87c0 -49.333 16.333 -88.333 49 -117l16 39c-18.667 20.667 -28 44 -28 70c0 52.667 29 85 87 97z" />
    <glyph glyph-name="Aacute" unicode="&#xc1;" horiz-adv-x="573" 
d="M407 795c-16.667 0 -37.333 -11.667 -62 -35s-44.667 -35 -60 -35l-12 28c12 0 28.333 11.333 49 34c22 22.667 44 34 66 34zM551.001 0l-106.004 -0.00195312c-17.333 134.667 -40.666 231 -69.999 289c-37.333 71.333 -92.666 111.333 -165.999 120
c-0.666992 -3.33301 -2.16699 -8.66602 -4.5 -15.999s-3.83301 -12.666 -4.5 -15.999c29.333 -2.66699 54.666 -16.334 75.999 -41.001s32 -53 32 -85c0 -38 -15 -69 -45 -93c-29.333 -23.333 -65 -35 -107 -35h-15.5c-4.33301 0 -8.16602 0.333008 -11.499 1
c-10 -39.333 -14.667 -64 -14 -74c0.666992 -14 2 -30.667 4 -50s5.33301 -41.666 10 -66.999h-5c-12.667 10.667 -32.667 46 -60 106c-33.333 29.333 -50 53 -50 71c2 6.66699 19 16.334 51 29.001l6 15c-39.333 32 -59 75.667 -59 131c0 42 17 78.667 51 110
c32.667 29.333 68.334 44 107.001 44h4l53 146c-13.333 7.33301 -22.666 11 -27.999 11c-10 0 -25.333 -3 -46 -9c-28.667 -8.66699 -50.334 -20 -65.001 -34l-6 3l18 45c10.667 34 16.667 59 18 75c60.667 -16 110 -24 148 -24c80.667 0 167 11 259 33l5 -5
c-8.66699 -10 -38.334 -24 -89.001 -42c-45.333 -16 -68.666 -27.667 -69.999 -35c0 -22 9.33301 -55 28 -99l29 -67.5l30 -67.5h30c4.66699 0 10.834 0.833008 18.501 2.5s13.5 2.5 17.5 2.5c14.667 0 22 -5 22 -15c0 -22.667 -23.333 -34.334 -70 -35.001
c50 -121.333 75 -229.333 75 -324zM313.997 409.998l-61.998 143c-2.66699 -8 -6.83398 -21.5 -12.501 -40.5l-22.5 -73.5c39.333 -2 71.666 -11.667 96.999 -29zM291.999 250.998c0 26.667 -9.66699 51.333 -29 74c-18.667 21.333 -41.667 33.666 -69 36.999
c-1.33301 -6.66699 -3 -13.167 -5 -19.5l-6 -18.5h4c18.667 0 34.167 -6.5 46.5 -19.5s18.5 -29.167 18.5 -48.5c0 -23.333 -9 -42.166 -27 -56.499s-39.333 -21.5 -64 -21.5h-9c-3.33301 0.666992 -6.33301 1 -9 1l-4.5 -16.5c-1.66699 -6.33301 -3.5 -13.833 -5.5 -22.5
c6.66699 -2 14.334 -3 23.001 -3c35.333 0 66.666 11 93.999 33c28 22 42 49 42 81zM233.999 251.997c0 25.333 -6.66699 37.999 -20 37.999c-8.66699 0 -13.667 -6.66699 -15 -20c-1.33301 -20 -14 -30 -38 -30h-1c-5.33301 -13.333 -9.33301 -27.666 -12 -42.999h7
c2 -0.666992 4.66699 -1 8 -1c17.333 0 33.5 5 48.5 15s22.5 23.667 22.5 41zM143.999 355.996c-42.667 -12.667 -64 -37.667 -64 -75c0 -18 6.33301 -34.667 19 -50zM163.999 412.996c-34 -0.666992 -65.667 -13.667 -95 -39c-28 -25.333 -42 -54.333 -42 -87
c0 -49.333 16.333 -88.333 49 -117l16 39c-18.667 20.667 -28 44 -28 70c0 52.667 29 85 87 97z" />
    <glyph glyph-name="Acircumflex" unicode="&#xc2;" horiz-adv-x="573" 
d="M403 726c-9.33301 -2 -18.001 -2.99902 -26.001 -2.99902c-33.333 0 -66.666 16.333 -99.999 49l-50 -54l-18 17l90 92c6.66699 -22.667 19.667 -43 39 -61c18 -16.667 37.667 -28.334 59 -35.001zM550.999 0.000976562l-106.004 -0.00195312
c-17.333 134.667 -40.666 231 -69.999 289c-37.333 71.333 -92.666 111.333 -165.999 120c-0.666992 -3.33301 -2.16699 -8.66602 -4.5 -15.999s-3.83301 -12.666 -4.5 -15.999c29.333 -2.66699 54.666 -16.334 75.999 -41.001s32 -53 32 -85c0 -38 -15 -69 -45 -93
c-29.333 -23.333 -65 -35 -107 -35h-15.5c-4.33301 0 -8.16602 0.333008 -11.499 1c-10 -39.333 -14.667 -64 -14 -74c0.666992 -14 2 -30.667 4 -50s5.33301 -41.666 10 -66.999h-5c-12.667 10.667 -32.667 46 -60 106c-33.333 29.333 -50 53 -50 71
c2 6.66699 19 16.334 51 29.001l6 15c-39.333 32 -59 75.667 -59 131c0 42 17 78.667 51 110c32.667 29.333 68.334 44 107.001 44h4l53 146c-13.333 7.33301 -22.666 11 -27.999 11c-10 0 -25.333 -3 -46 -9c-28.667 -8.66699 -50.334 -20 -65.001 -34l-6 3l18 45
c10.667 34 16.667 59 18 75c60.667 -16 110 -24 148 -24c80.667 0 167 11 259 33l5 -5c-8.66699 -10 -38.334 -24 -89.001 -42c-45.333 -16 -68.666 -27.667 -69.999 -35c0 -22 9.33301 -55 28 -99l29 -67.5l30 -67.5h30c4.66699 0 10.834 0.833008 18.501 2.5
s13.5 2.5 17.5 2.5c14.667 0 22 -5 22 -15c0 -22.667 -23.333 -34.334 -70 -35.001c50 -121.333 75 -229.333 75 -324zM313.995 409.999l-61.998 143c-2.66699 -8 -6.83398 -21.5 -12.501 -40.5l-22.5 -73.5c39.333 -2 71.666 -11.667 96.999 -29zM291.997 250.999
c0 26.667 -9.66699 51.333 -29 74c-18.667 21.333 -41.667 33.666 -69 36.999c-1.33301 -6.66699 -3 -13.167 -5 -19.5l-6 -18.5h4c18.667 0 34.167 -6.5 46.5 -19.5s18.5 -29.167 18.5 -48.5c0 -23.333 -9 -42.166 -27 -56.499s-39.333 -21.5 -64 -21.5h-9
c-3.33301 0.666992 -6.33301 1 -9 1l-4.5 -16.5c-1.66699 -6.33301 -3.5 -13.833 -5.5 -22.5c6.66699 -2 14.334 -3 23.001 -3c35.333 0 66.666 11 93.999 33c28 22 42 49 42 81zM233.997 251.998c0 25.333 -6.66699 37.999 -20 37.999c-8.66699 0 -13.667 -6.66699 -15 -20
c-1.33301 -20 -14 -30 -38 -30h-1c-5.33301 -13.333 -9.33301 -27.666 -12 -42.999h7c2 -0.666992 4.66699 -1 8 -1c17.333 0 33.5 5 48.5 15s22.5 23.667 22.5 41zM143.997 355.997c-42.667 -12.667 -64 -37.667 -64 -75c0 -18 6.33301 -34.667 19 -50zM163.997 412.997
c-34 -0.666992 -65.667 -13.667 -95 -39c-28 -25.333 -42 -54.333 -42 -87c0 -49.333 16.333 -88.333 49 -117l16 39c-18.667 20.667 -28 44 -28 70c0 52.667 29 85 87 97z" />
    <glyph glyph-name="Atilde" unicode="&#xc3;" horiz-adv-x="573" 
d="M388 783c1.33301 -13.333 -1.49902 -24.8301 -8.49902 -34.4971s-15.833 -15.167 -26.5 -16.5c-15.333 -2 -34.666 7.33301 -57.999 28c-24.667 21.333 -44.334 31 -59.001 29c-6 -0.666992 -11.167 -4.83398 -15.5 -12.501s-6.16602 -15.834 -5.49902 -24.501
c0 -2.66699 3 -10 9 -22l-1 -3c-8.66699 6.66699 -14 19.667 -16 39c-2.66699 30.667 11.666 48 42.999 52c20 2.66699 40.667 -6.66602 62 -27.999c21.333 -20.667 37.666 -30.334 48.999 -29.001c15.333 2 21.333 14.667 18 38c0 8 -3.66699 16.667 -11 26l4 2
c8.66699 -8.66699 14 -23.334 16 -44.001zM551.001 0.00292969l-106.004 -0.00195312c-17.333 134.667 -40.666 231 -69.999 289c-37.333 71.333 -92.666 111.333 -165.999 120c-0.666992 -3.33301 -2.16699 -8.66602 -4.5 -15.999s-3.83301 -12.666 -4.5 -15.999
c29.333 -2.66699 54.666 -16.334 75.999 -41.001s32 -53 32 -85c0 -38 -15 -69 -45 -93c-29.333 -23.333 -65 -35 -107 -35h-15.5c-4.33301 0 -8.16602 0.333008 -11.499 1c-10 -39.333 -14.667 -64 -14 -74c0.666992 -14 2 -30.667 4 -50s5.33301 -41.666 10 -66.999h-5
c-12.667 10.667 -32.667 46 -60 106c-33.333 29.333 -50 53 -50 71c2 6.66699 19 16.334 51 29.001l6 15c-39.333 32 -59 75.667 -59 131c0 42 17 78.667 51 110c32.667 29.333 68.334 44 107.001 44h4l53 146c-13.333 7.33301 -22.666 11 -27.999 11
c-10 0 -25.333 -3 -46 -9c-28.667 -8.66699 -50.334 -20 -65.001 -34l-6 3l18 45c10.667 34 16.667 59 18 75c60.667 -16 110 -24 148 -24c80.667 0 167 11 259 33l5 -5c-8.66699 -10 -38.334 -24 -89.001 -42c-45.333 -16 -68.666 -27.667 -69.999 -35
c0 -22 9.33301 -55 28 -99l29 -67.5l30 -67.5h30c4.66699 0 10.834 0.833008 18.501 2.5s13.5 2.5 17.5 2.5c14.667 0 22 -5 22 -15c0 -22.667 -23.333 -34.334 -70 -35.001c50 -121.333 75 -229.333 75 -324zM313.997 410.001l-61.998 143
c-2.66699 -8 -6.83398 -21.5 -12.501 -40.5l-22.5 -73.5c39.333 -2 71.666 -11.667 96.999 -29zM291.999 251.001c0 26.667 -9.66699 51.333 -29 74c-18.667 21.333 -41.667 33.666 -69 36.999c-1.33301 -6.66699 -3 -13.167 -5 -19.5l-6 -18.5h4
c18.667 0 34.167 -6.5 46.5 -19.5s18.5 -29.167 18.5 -48.5c0 -23.333 -9 -42.166 -27 -56.499s-39.333 -21.5 -64 -21.5h-9c-3.33301 0.666992 -6.33301 1 -9 1l-4.5 -16.5c-1.66699 -6.33301 -3.5 -13.833 -5.5 -22.5c6.66699 -2 14.334 -3 23.001 -3
c35.333 0 66.666 11 93.999 33c28 22 42 49 42 81zM233.999 252c0 25.333 -6.66699 37.999 -20 37.999c-8.66699 0 -13.667 -6.66699 -15 -20c-1.33301 -20 -14 -30 -38 -30h-1c-5.33301 -13.333 -9.33301 -27.666 -12 -42.999h7c2 -0.666992 4.66699 -1 8 -1
c17.333 0 33.5 5 48.5 15s22.5 23.667 22.5 41zM143.999 355.999c-42.667 -12.667 -64 -37.667 -64 -75c0 -18 6.33301 -34.667 19 -50zM163.999 412.999c-34 -0.666992 -65.667 -13.667 -95 -39c-28 -25.333 -42 -54.333 -42 -87c0 -49.333 16.333 -88.333 49 -117l16 39
c-18.667 20.667 -28 44 -28 70c0 52.667 29 85 87 97z" />
    <glyph glyph-name="Adieresis" unicode="&#xc4;" horiz-adv-x="573" 
d="M386 755c0 -20.667 -10.333 -31 -31 -31s-31 10.333 -31 31c0 20 10.333 30 31 30s31 -10 31 -30zM278 755c0 -20.667 -10.333 -31 -31 -31s-31 10.333 -31 31c0 20 10.333 30 31 30s31 -10 31 -30zM551 0l-106.004 -0.00195312c-17.333 134.667 -40.666 231 -69.999 289
c-37.333 71.333 -92.666 111.333 -165.999 120c-0.666992 -3.33301 -2.16699 -8.66602 -4.5 -15.999s-3.83301 -12.666 -4.5 -15.999c29.333 -2.66699 54.666 -16.334 75.999 -41.001s32 -53 32 -85c0 -38 -15 -69 -45 -93c-29.333 -23.333 -65 -35 -107 -35h-15.5
c-4.33301 0 -8.16602 0.333008 -11.499 1c-10 -39.333 -14.667 -64 -14 -74c0.666992 -14 2 -30.667 4 -50s5.33301 -41.666 10 -66.999h-5c-12.667 10.667 -32.667 46 -60 106c-33.333 29.333 -50 53 -50 71c2 6.66699 19 16.334 51 29.001l6 15
c-39.333 32 -59 75.667 -59 131c0 42 17 78.667 51 110c32.667 29.333 68.334 44 107.001 44h4l53 146c-13.333 7.33301 -22.666 11 -27.999 11c-10 0 -25.333 -3 -46 -9c-28.667 -8.66699 -50.334 -20 -65.001 -34l-6 3l18 45c10.667 34 16.667 59 18 75
c60.667 -16 110 -24 148 -24c80.667 0 167 11 259 33l5 -5c-8.66699 -10 -38.334 -24 -89.001 -42c-45.333 -16 -68.666 -27.667 -69.999 -35c0 -22 9.33301 -55 28 -99l29 -67.5l30 -67.5h30c4.66699 0 10.834 0.833008 18.501 2.5s13.5 2.5 17.5 2.5
c14.667 0 22 -5 22 -15c0 -22.667 -23.333 -34.334 -70 -35.001c50 -121.333 75 -229.333 75 -324zM313.996 409.998l-61.998 143c-2.66699 -8 -6.83398 -21.5 -12.501 -40.5l-22.5 -73.5c39.333 -2 71.666 -11.667 96.999 -29zM291.998 250.998
c0 26.667 -9.66699 51.333 -29 74c-18.667 21.333 -41.667 33.666 -69 36.999c-1.33301 -6.66699 -3 -13.167 -5 -19.5l-6 -18.5h4c18.667 0 34.167 -6.5 46.5 -19.5s18.5 -29.167 18.5 -48.5c0 -23.333 -9 -42.166 -27 -56.499s-39.333 -21.5 -64 -21.5h-9
c-3.33301 0.666992 -6.33301 1 -9 1l-4.5 -16.5c-1.66699 -6.33301 -3.5 -13.833 -5.5 -22.5c6.66699 -2 14.334 -3 23.001 -3c35.333 0 66.666 11 93.999 33c28 22 42 49 42 81zM233.998 251.997c0 25.333 -6.66699 37.999 -20 37.999c-8.66699 0 -13.667 -6.66699 -15 -20
c-1.33301 -20 -14 -30 -38 -30h-1c-5.33301 -13.333 -9.33301 -27.666 -12 -42.999h7c2 -0.666992 4.66699 -1 8 -1c17.333 0 33.5 5 48.5 15s22.5 23.667 22.5 41zM143.998 355.996c-42.667 -12.667 -64 -37.667 -64 -75c0 -18 6.33301 -34.667 19 -50zM163.998 412.996
c-34 -0.666992 -65.667 -13.667 -95 -39c-28 -25.333 -42 -54.333 -42 -87c0 -49.333 16.333 -88.333 49 -117l16 39c-18.667 20.667 -28 44 -28 70c0 52.667 29 85 87 97z" />
    <glyph glyph-name="Aring" unicode="&#xc5;" horiz-adv-x="573" 
d="M361 757c0 -18.667 -6.66699 -34.5 -20 -47.5s-29 -19.5 -47 -19.5c-18.667 0 -34.5 6.5 -47.5 19.5s-19.5 28.833 -19.5 47.5s6.5 34.5 19.5 47.5s28.833 19.5 47.5 19.5c18 0 33.667 -6.5 47 -19.5s20 -28.833 20 -47.5zM551 0l-106.004 -0.00195312
c-17.333 134.667 -40.666 231 -69.999 289c-37.333 71.333 -92.666 111.333 -165.999 120c-0.666992 -3.33301 -2.16699 -8.66602 -4.5 -15.999s-3.83301 -12.666 -4.5 -15.999c29.333 -2.66699 54.666 -16.334 75.999 -41.001s32 -53 32 -85c0 -38 -15 -69 -45 -93
c-29.333 -23.333 -65 -35 -107 -35h-15.5c-4.33301 0 -8.16602 0.333008 -11.499 1c-10 -39.333 -14.667 -64 -14 -74c0.666992 -14 2 -30.667 4 -50s5.33301 -41.666 10 -66.999h-5c-12.667 10.667 -32.667 46 -60 106c-33.333 29.333 -50 53 -50 71
c2 6.66699 19 16.334 51 29.001l6 15c-39.333 32 -59 75.667 -59 131c0 42 17 78.667 51 110c32.667 29.333 68.334 44 107.001 44h4l53 146c-13.333 7.33301 -22.666 11 -27.999 11c-10 0 -25.333 -3 -46 -9c-28.667 -8.66699 -50.334 -20 -65.001 -34l-6 3l18 45
c10.667 34 16.667 59 18 75c60.667 -16 110 -24 148 -24c80.667 0 167 11 259 33l5 -5c-8.66699 -10 -38.334 -24 -89.001 -42c-45.333 -16 -68.666 -27.667 -69.999 -35c0 -22 9.33301 -55 28 -99l29 -67.5l30 -67.5h30c4.66699 0 10.834 0.833008 18.501 2.5
s13.5 2.5 17.5 2.5c14.667 0 22 -5 22 -15c0 -22.667 -23.333 -34.334 -70 -35.001c50 -121.333 75 -229.333 75 -324zM320.996 756.998c0 18.667 -9 28 -27 28c-18.667 0 -28 -9.33301 -28 -28c0 -18 9.33301 -27 28 -27c18 0 27 9 27 27zM313.996 409.998l-61.998 143
c-2.66699 -8 -6.83398 -21.5 -12.501 -40.5l-22.5 -73.5c39.333 -2 71.666 -11.667 96.999 -29zM291.998 250.998c0 26.667 -9.66699 51.333 -29 74c-18.667 21.333 -41.667 33.666 -69 36.999c-1.33301 -6.66699 -3 -13.167 -5 -19.5l-6 -18.5h4
c18.667 0 34.167 -6.5 46.5 -19.5s18.5 -29.167 18.5 -48.5c0 -23.333 -9 -42.166 -27 -56.499s-39.333 -21.5 -64 -21.5h-9c-3.33301 0.666992 -6.33301 1 -9 1l-4.5 -16.5c-1.66699 -6.33301 -3.5 -13.833 -5.5 -22.5c6.66699 -2 14.334 -3 23.001 -3
c35.333 0 66.666 11 93.999 33c28 22 42 49 42 81zM233.998 251.997c0 25.333 -6.66699 37.999 -20 37.999c-8.66699 0 -13.667 -6.66699 -15 -20c-1.33301 -20 -14 -30 -38 -30h-1c-5.33301 -13.333 -9.33301 -27.666 -12 -42.999h7c2 -0.666992 4.66699 -1 8 -1
c17.333 0 33.5 5 48.5 15s22.5 23.667 22.5 41zM143.998 355.996c-42.667 -12.667 -64 -37.667 -64 -75c0 -18 6.33301 -34.667 19 -50zM163.998 412.996c-34 -0.666992 -65.667 -13.667 -95 -39c-28 -25.333 -42 -54.333 -42 -87c0 -49.333 16.333 -88.333 49 -117l16 39
c-18.667 20.667 -28 44 -28 70c0 52.667 29 85 87 97z" />
    <glyph glyph-name="AE" unicode="&#xc6;" horiz-adv-x="929" 
d="M907 105l-140.005 -108c-62.667 44.667 -129.334 67 -200.001 67c-46 0 -91 -10 -135 -30c-15.333 -7.33301 -32.833 -17 -52.5 -29s-41.167 -26.667 -64.5 -44h-3c0.666992 14 8.66699 30.667 24 50c22 26 33.333 40 34 42l11 20v284c-20.667 26.667 -60 44 -118 52
c-2 -4 -4.16699 -8.66699 -6.5 -14l-7.5 -18c25.333 -3.33301 46.333 -14.5 63 -33.5s25 -42.5 25 -70.5c0 -44 -19 -80.333 -57 -109c-35.333 -27.333 -75.333 -41 -120 -41h-15.5c-4.33301 0 -8.16602 0.333008 -11.499 1c-17.333 -39.333 -26.333 -64 -27 -74
c-2 -14 -3.5 -30.667 -4.5 -50s-1.83301 -41.666 -2.5 -66.999h-5c-11.333 15.333 -25.333 50.666 -42 105.999c-27.333 28.667 -39.666 52.334 -36.999 71.001c4 6.66699 23 16.334 57 29.001l9 15c-26 24 -39 57 -39 99c0 10 1 20.667 3 32c6.66699 42 30 78.667 70 110
c37.333 29.333 75.333 44 114 44h4l79 146c-11.333 7.33301 -19.666 11 -24.999 11c-10 0 -26 -3 -48 -9c-31.333 -9.33301 -55.333 -20.666 -72 -33.999l-5 3c8 13.333 16.833 30 26.5 50s20.167 43.333 31.5 70c1.33301 0 20 -4 56 -12s65 -12 87 -12
c32 0 61.5 0.666992 88.5 2s51.5 3.33301 73.5 6c72.667 18 122.334 27 149.001 27c28 0 54.667 -5 80 -15l67 -27l69 31l4 -9c-80 -54 -134.333 -95.333 -163 -124c-51.333 -51.333 -77 -106 -77 -164c0 -34.667 12 -65.334 36 -92.001s53.333 -40 88 -40
c14.667 0 28.667 2.66699 42 8s25 12.833 35 22.5s17.833 20.834 23.5 33.501s8.5 26.667 8.5 42c0 12 -2.33301 23.333 -7 34s-11.167 20 -19.5 28s-18 14.167 -29 18.5s-22.833 6.5 -35.5 6.5c-22 0 -41.167 -6.83301 -57.5 -20.5s-24.5 -30.834 -24.5 -51.501
c0 -10 2.16699 -19.5 6.5 -28.5s10 -16.833 17 -23.5s14.833 -12 23.5 -16s17.667 -6 27 -6c14.667 0 27 5.5 37 16.5s15 24.167 15 39.5c0 29.333 -14.667 44 -44 44c-9.33301 0 -17.666 -3.5 -24.999 -10.5s-11 -14.167 -11 -21.5
c0 -4.66699 0.666992 -6.33398 2 -5.00098c6.66699 10.667 14.334 16 23.001 16c16.667 0 25 -8.33301 25 -25s-8.33301 -25 -25 -25c-11.333 0 -21.166 4.16699 -29.499 12.5s-12.5 17.833 -12.5 28.5c0 13.333 5.83301 24.833 17.5 34.5s24.5 14.5 38.5 14.5
c16 0 30.167 -6.16699 42.5 -18.5s18.5 -26.5 18.5 -42.5c0 -20 -7.16699 -37.667 -21.5 -53s-31.5 -23 -51.5 -23c-24.667 0 -46.334 9.33301 -65.001 28s-28 41 -28 67c0 24 10.333 44.333 31 61c21.333 17.333 45 26.333 71 27c28.667 0.666992 54 -9.33301 76 -30
c22.667 -20.667 34 -45.334 34 -74.001c0 -33.333 -12.667 -63.333 -38 -90c-25.333 -25.333 -55 -38 -89 -38c-30 0 -57.5 9 -82.5 27s-42.833 40.333 -53.5 67h-153v-197c48 15.333 100 23 156 23c66.667 0 133.667 -18 201 -54l59 31zM723.995 576
c-38 38.667 -86 58 -144 58c-30 0 -60 -5.33301 -90 -16v-184h149c20.667 60.667 49 108 85 142zM630.995 367c-0.666992 5.33301 -1.16699 9.16797 -1.5 11.501s-0.5 3.16602 -0.5 2.49902c0 -1.33301 0.166992 -1.33301 0.5 0s0.833008 4.33301 1.5 9h-141v-23h141z
M368.995 410.002l-37 143l-20 -40.5l-36 -73.5c38.667 -2 69.667 -11.667 93 -29zM319.995 270.002c0 24 -7.49902 44.834 -22.499 62.501s-34.167 27.5 -57.5 29.5c-2 -4 -5 -10.333 -9 -19s-7 -15 -9 -19h5c36 0 54 -18.333 54 -55c0 -26.667 -11 -48.334 -33 -65.001
c-21.333 -17.333 -45.666 -26 -72.999 -26h-9c-3.33301 0.666992 -6.33301 1 -9 1c-2.66699 -4.66699 -5.33398 -10.167 -8.00098 -16.5s-5.66699 -13.833 -9 -22.5c6.66699 -2 14 -3 22 -3c39.333 0 74.666 12.333 105.999 37c34.667 26.667 52 58.667 52 96z
M260.996 252.003c0.666992 2.66699 0.999023 5.16699 0.999023 7.5v6.5c0 16 -4.66699 24 -14 24s-15.666 -6.66699 -18.999 -20c-4 -20 -18.333 -30 -43 -30h-1l-10 -21.5l-10 -21.5h7c2 -0.666992 4.33301 -1 7 -1c17.333 0 34.5 5 51.5 15s27.167 23.667 30.5 41z
M188.995 356.003c-44 -12.667 -69.667 -37.666 -77 -74.999c-3.33301 -18.667 0 -35.334 10 -50.001zM218.995 413.004c-34 -0.666992 -67.6689 -13.667 -101.002 -39c-32.667 -24.667 -52 -53.667 -58 -87c-2 -9.33301 -3 -19 -3 -29c0 -36 10.333 -65.333 31 -88l23 39
c-15.333 22 -20.666 45.333 -15.999 70c8.66699 52.667 43.334 85 104.001 97z" />
    <glyph glyph-name="Ccedilla" unicode="&#xc7;" horiz-adv-x="578" 
d="M565 206c0 -14 -4.00293 -26.334 -12.0029 -37.001s-18.333 -16 -31 -16c-19.333 0 -29 9.33301 -29 28s9.33301 28 28 28c12.667 0 21.667 -6 27 -18c0.666992 2 1 6 1 12c0 21.333 -12.333 32 -37 32c-18.667 0 -33.667 -8.5 -45 -25.5s-17 -35.833 -17 -56.5
c0 -37.333 7.33301 -71 22 -101c6.66699 -16 25.667 -47 57 -93c-38 -5.33301 -75 -8 -111 -8s-71 3.33301 -105 10c0.666992 -2.66699 1 -9 1 -19c0 -28.667 -6.33301 -52.667 -19 -72c-14 -22 -32.667 -33 -56 -33c-14 0 -26 5.16699 -36 15.5s-15 22.833 -15 37.5
c0 32 13.333 48 40 48c20 0 30 -9.33301 30 -28s-9.66699 -28 -29 -28c-10.667 0 -18.334 3.33301 -23.001 10c0 -8.66699 3.33301 -16.667 10 -24s14.334 -11 23.001 -11c16.667 0 30.667 8 42 24c10 14 15 31 15 51c0 13.333 -3 25 -9 35
c-106 26.667 -182 82.667 -228 168c-29.333 53.333 -44 115 -44 185c0 80.667 19 150.667 57 210l83 103l-80 48l1 5c64.667 -22 124.334 -33 179.001 -33c58 0 104.333 13.333 139 40c42.667 -16.667 77 -44 103 -82s39 -77 39 -117c0 -60.667 -20.667 -113.667 -62 -159
c-40.667 -44.667 -90.667 -67 -150 -67c-50.667 0 -91.334 15 -122.001 45c-31.333 31.333 -47 69.333 -47 114c0 34.667 12.667 64 38 88c24.667 24 54.667 36 90 36c16 0 31.333 -2.66699 46 -8s27.5 -12.666 38.5 -21.999s19.833 -20.5 26.5 -33.5s10 -27.167 10 -42.5
c0 -28 -8 -52 -24 -72c-17.333 -22 -38.333 -33 -63 -33s-46.334 7.16699 -65.001 21.5s-28 32.833 -28 55.5c0 18.667 6 35 18 49s26.667 21 44 21c16.667 0 31.5 -5 44.5 -15s18.833 -22.333 17.5 -37c-2 -30 -14 -44.667 -36 -44c-8.66699 0 -16.334 3.5 -23.001 10.5
s-10 14.5 -10 22.5c0 21.333 10.333 32 31 32c-3.33301 6 -11.333 9.33301 -24 10c-12.667 1.33301 -23.167 -3.16699 -31.5 -13.5s-12.5 -22.166 -12.5 -35.499c0 -17.333 8 -31.333 24 -42c14.667 -9.33301 31.667 -14 51 -14c20 0 36.167 8.5 48.5 25.5
s18.5 36.5 18.5 58.5c0 12 -2.66699 23.333 -8 34s-12.5 20 -21.5 28s-19.5 14.333 -31.5 19s-24.333 7 -37 7c-30.667 0 -56.667 -10.333 -78 -31c-22 -21.333 -33 -46.333 -33 -75c0 -38 15.333 -69.333 46 -94c28.667 -24.667 63 -37 103 -37
c38.667 0 70.334 14.333 95.001 43c26 28.667 39 62.334 39 101.001c0 59.333 -27.667 107 -83 143c-48 32 -103.333 48 -166 48c-35.333 -12 -65.666 -40.667 -90.999 -86c-24 -43.333 -37 -89 -39 -137c-1.33301 -32 1.33398 -63 8.00098 -93s16.834 -58.333 30.501 -85
s30.834 -50.834 51.501 -72.501s44 -39.834 70 -54.501c62 -24 111.333 -36 148 -36c8 0 15.833 0.5 23.5 1.5s15.167 2.16699 22.5 3.5v88c0 24.667 6.33301 45.667 19 63c14 20.667 32 31 54 31c16 0 29.833 -4.5 41.5 -13.5s17.5 -20.5 17.5 -34.5z" />
    <glyph glyph-name="Egrave" unicode="&#xc8;" horiz-adv-x="623" 
d="M318 749l-14 -29c-17.333 0 -38.333 12.333 -63 37s-46.334 37 -65.001 37l20 28c23.333 0 46.333 -12.333 69 -37c22.667 -24 40.334 -36 53.001 -36zM598 105l-140.001 -107.997c-62.667 44.667 -129.334 67 -200.001 67c-46 0 -91 -10 -135 -30
c-15.333 -7.33301 -32.833 -17 -52.5 -29s-41.167 -26.667 -64.5 -44h-3c0.666992 14 8.66699 30.667 24 50c22 26 33.333 40 34 42l11 20v531l-71 47l1 5c24 -10.667 51 -16 81 -16c28.667 0 73.667 8 135 24c60 16.667 106 25 138 25c31.333 0 61 -5.66699 89 -17l67 -27
l69 31l4 -9c-80 -54 -134.333 -95.333 -163 -124c-51.333 -51.333 -77 -106 -77 -164c0 -34.667 12 -65.334 36 -92.001s53.333 -40 88 -40c14.667 0 28.667 2.66699 42 8s25 12.833 35 22.5s17.833 20.834 23.5 33.501s8.5 26.667 8.5 42c0 12 -2.33301 23.333 -7 34
s-11.167 20 -19.5 28s-18 14.167 -29 18.5s-22.833 6.5 -35.5 6.5c-22 0 -41.167 -6.83301 -57.5 -20.5s-24.5 -30.834 -24.5 -51.501c0 -10 2.16699 -19.5 6.5 -28.5s10 -16.833 17 -23.5s14.833 -12 23.5 -16s17.667 -6 27 -6c14.667 0 27 5.5 37 16.5s15 24.167 15 39.5
c0 29.333 -14.667 44 -44 44c-9.33301 0 -17.666 -3.5 -24.999 -10.5s-11 -14.167 -11 -21.5c0 -4.66699 0.666992 -6.33398 2 -5.00098c6.66699 10.667 14.334 16 23.001 16c16.667 0 25 -8.33301 25 -25s-8.33301 -25 -25 -25c-11.333 0 -21.166 4.16699 -29.499 12.5
s-12.5 17.833 -12.5 28.5c0 13.333 5.83301 24.833 17.5 34.5s24.5 14.5 38.5 14.5c16 0 30.167 -6.16699 42.5 -18.5s18.5 -26.5 18.5 -42.5c0 -20 -7.16699 -37.667 -21.5 -53s-31.5 -23 -51.5 -23c-24.667 0 -46.334 9.33301 -65.001 28s-28 41 -28 67
c0 24 10.333 44.333 31 61c21.333 17.333 45 26.333 71 27c28.667 0.666992 54 -9.33301 76 -30c22.667 -20.667 34 -45.334 34 -74.001c0 -33.333 -12.667 -63.333 -38 -90c-25.333 -25.333 -55 -38 -89 -38c-30 0 -57.5 9 -82.5 27s-42.833 40.333 -53.5 67h-153v-197
c48 15.333 100 23 156 23c66.667 0 133.667 -18 201 -54l59 31zM414.999 576.003c-38 38.667 -86 58 -144 58c-30 0 -60 -5.33301 -90 -16v-184h149c20.667 60.667 49 108 85 142zM321.999 367.003c-0.666992 5.33301 -1.16699 9.16797 -1.5 11.501
s-0.5 3.16602 -0.5 2.49902c0 -1.33301 0.166992 -1.33301 0.5 0s0.833008 4.33301 1.5 9h-141v-23h141z" />
    <glyph glyph-name="Eacute" unicode="&#xc9;" horiz-adv-x="623" 
d="M418 794c-18.667 0 -40.333 -12.333 -65 -37s-45.667 -37 -63 -37l-14 29c12 0 29.667 12 53 36c22.667 24.667 45.667 37 69 37zM598.001 105l-140.001 -107.997c-62.667 44.667 -129.334 67 -200.001 67c-46 0 -91 -10 -135 -30
c-15.333 -7.33301 -32.833 -17 -52.5 -29s-41.167 -26.667 -64.5 -44h-3c0.666992 14 8.66699 30.667 24 50c22 26 33.333 40 34 42l11 20v531l-71 47l1 5c24 -10.667 51 -16 81 -16c28.667 0 73.667 8 135 24c60 16.667 106 25 138 25c31.333 0 61 -5.66699 89 -17l67 -27
l69 31l4 -9c-80 -54 -134.333 -95.333 -163 -124c-51.333 -51.333 -77 -106 -77 -164c0 -34.667 12 -65.334 36 -92.001s53.333 -40 88 -40c14.667 0 28.667 2.66699 42 8s25 12.833 35 22.5s17.833 20.834 23.5 33.501s8.5 26.667 8.5 42c0 12 -2.33301 23.333 -7 34
s-11.167 20 -19.5 28s-18 14.167 -29 18.5s-22.833 6.5 -35.5 6.5c-22 0 -41.167 -6.83301 -57.5 -20.5s-24.5 -30.834 -24.5 -51.501c0 -10 2.16699 -19.5 6.5 -28.5s10 -16.833 17 -23.5s14.833 -12 23.5 -16s17.667 -6 27 -6c14.667 0 27 5.5 37 16.5s15 24.167 15 39.5
c0 29.333 -14.667 44 -44 44c-9.33301 0 -17.666 -3.5 -24.999 -10.5s-11 -14.167 -11 -21.5c0 -4.66699 0.666992 -6.33398 2 -5.00098c6.66699 10.667 14.334 16 23.001 16c16.667 0 25 -8.33301 25 -25s-8.33301 -25 -25 -25c-11.333 0 -21.166 4.16699 -29.499 12.5
s-12.5 17.833 -12.5 28.5c0 13.333 5.83301 24.833 17.5 34.5s24.5 14.5 38.5 14.5c16 0 30.167 -6.16699 42.5 -18.5s18.5 -26.5 18.5 -42.5c0 -20 -7.16699 -37.667 -21.5 -53s-31.5 -23 -51.5 -23c-24.667 0 -46.334 9.33301 -65.001 28s-28 41 -28 67
c0 24 10.333 44.333 31 61c21.333 17.333 45 26.333 71 27c28.667 0.666992 54 -9.33301 76 -30c22.667 -20.667 34 -45.334 34 -74.001c0 -33.333 -12.667 -63.333 -38 -90c-25.333 -25.333 -55 -38 -89 -38c-30 0 -57.5 9 -82.5 27s-42.833 40.333 -53.5 67h-153v-197
c48 15.333 100 23 156 23c66.667 0 133.667 -18 201 -54l59 31zM415 576.003c-38 38.667 -86 58 -144 58c-30 0 -60 -5.33301 -90 -16v-184h149c20.667 60.667 49 108 85 142zM322 367.003c-0.666992 5.33301 -1.16699 9.16797 -1.5 11.501s-0.5 3.16602 -0.5 2.49902
c0 -1.33301 0.166992 -1.33301 0.5 0s0.833008 4.33301 1.5 9h-141v-23h141z" />
    <glyph glyph-name="Ecircumflex" unicode="&#xca;" horiz-adv-x="623" 
d="M400 726c-9.33301 -2 -18 -3 -26 -3c-33.333 0 -66.333 16.333 -99 49l-50 -54l-19 17l90 92c8.66699 -22.667 21.667 -42.667 39 -60s37.333 -29.333 60 -36zM598 105l-140.001 -107.997c-62.667 44.667 -129.334 67 -200.001 67c-46 0 -91 -10 -135 -30
c-15.333 -7.33301 -32.833 -17 -52.5 -29s-41.167 -26.667 -64.5 -44h-3c0.666992 14 8.66699 30.667 24 50c22 26 33.333 40 34 42l11 20v531l-71 47l1 5c24 -10.667 51 -16 81 -16c28.667 0 73.667 8 135 24c60 16.667 106 25 138 25c31.333 0 61 -5.66699 89 -17l67 -27
l69 31l4 -9c-80 -54 -134.333 -95.333 -163 -124c-51.333 -51.333 -77 -106 -77 -164c0 -34.667 12 -65.334 36 -92.001s53.333 -40 88 -40c14.667 0 28.667 2.66699 42 8s25 12.833 35 22.5s17.833 20.834 23.5 33.501s8.5 26.667 8.5 42c0 12 -2.33301 23.333 -7 34
s-11.167 20 -19.5 28s-18 14.167 -29 18.5s-22.833 6.5 -35.5 6.5c-22 0 -41.167 -6.83301 -57.5 -20.5s-24.5 -30.834 -24.5 -51.501c0 -10 2.16699 -19.5 6.5 -28.5s10 -16.833 17 -23.5s14.833 -12 23.5 -16s17.667 -6 27 -6c14.667 0 27 5.5 37 16.5s15 24.167 15 39.5
c0 29.333 -14.667 44 -44 44c-9.33301 0 -17.666 -3.5 -24.999 -10.5s-11 -14.167 -11 -21.5c0 -4.66699 0.666992 -6.33398 2 -5.00098c6.66699 10.667 14.334 16 23.001 16c16.667 0 25 -8.33301 25 -25s-8.33301 -25 -25 -25c-11.333 0 -21.166 4.16699 -29.499 12.5
s-12.5 17.833 -12.5 28.5c0 13.333 5.83301 24.833 17.5 34.5s24.5 14.5 38.5 14.5c16 0 30.167 -6.16699 42.5 -18.5s18.5 -26.5 18.5 -42.5c0 -20 -7.16699 -37.667 -21.5 -53s-31.5 -23 -51.5 -23c-24.667 0 -46.334 9.33301 -65.001 28s-28 41 -28 67
c0 24 10.333 44.333 31 61c21.333 17.333 45 26.333 71 27c28.667 0.666992 54 -9.33301 76 -30c22.667 -20.667 34 -45.334 34 -74.001c0 -33.333 -12.667 -63.333 -38 -90c-25.333 -25.333 -55 -38 -89 -38c-30 0 -57.5 9 -82.5 27s-42.833 40.333 -53.5 67h-153v-197
c48 15.333 100 23 156 23c66.667 0 133.667 -18 201 -54l59 31zM414.999 576.003c-38 38.667 -86 58 -144 58c-30 0 -60 -5.33301 -90 -16v-184h149c20.667 60.667 49 108 85 142zM321.999 367.003c-0.666992 5.33301 -1.16699 9.16797 -1.5 11.501
s-0.5 3.16602 -0.5 2.49902c0 -1.33301 0.166992 -1.33301 0.5 0s0.833008 4.33301 1.5 9h-141v-23h141z" />
    <glyph glyph-name="Edieresis" unicode="&#xcb;" horiz-adv-x="623" 
d="M385 755c0 -20.667 -10.333 -31 -31 -31s-31 10.333 -31 31c0 20 10.333 30 31 30s31 -10 31 -30zM276 755c0 -20.667 -10.333 -31 -31 -31c-20 0 -30 10.333 -30 31c0 20 10 30 30 30c20.667 0 31 -10 31 -30zM598 105l-140.001 -107.997
c-62.667 44.667 -129.334 67 -200.001 67c-46 0 -91 -10 -135 -30c-15.333 -7.33301 -32.833 -17 -52.5 -29s-41.167 -26.667 -64.5 -44h-3c0.666992 14 8.66699 30.667 24 50c22 26 33.333 40 34 42l11 20v531l-71 47l1 5c24 -10.667 51 -16 81 -16
c28.667 0 73.667 8 135 24c60 16.667 106 25 138 25c31.333 0 61 -5.66699 89 -17l67 -27l69 31l4 -9c-80 -54 -134.333 -95.333 -163 -124c-51.333 -51.333 -77 -106 -77 -164c0 -34.667 12 -65.334 36 -92.001s53.333 -40 88 -40c14.667 0 28.667 2.66699 42 8
s25 12.833 35 22.5s17.833 20.834 23.5 33.501s8.5 26.667 8.5 42c0 12 -2.33301 23.333 -7 34s-11.167 20 -19.5 28s-18 14.167 -29 18.5s-22.833 6.5 -35.5 6.5c-22 0 -41.167 -6.83301 -57.5 -20.5s-24.5 -30.834 -24.5 -51.501c0 -10 2.16699 -19.5 6.5 -28.5
s10 -16.833 17 -23.5s14.833 -12 23.5 -16s17.667 -6 27 -6c14.667 0 27 5.5 37 16.5s15 24.167 15 39.5c0 29.333 -14.667 44 -44 44c-9.33301 0 -17.666 -3.5 -24.999 -10.5s-11 -14.167 -11 -21.5c0 -4.66699 0.666992 -6.33398 2 -5.00098
c6.66699 10.667 14.334 16 23.001 16c16.667 0 25 -8.33301 25 -25s-8.33301 -25 -25 -25c-11.333 0 -21.166 4.16699 -29.499 12.5s-12.5 17.833 -12.5 28.5c0 13.333 5.83301 24.833 17.5 34.5s24.5 14.5 38.5 14.5c16 0 30.167 -6.16699 42.5 -18.5
s18.5 -26.5 18.5 -42.5c0 -20 -7.16699 -37.667 -21.5 -53s-31.5 -23 -51.5 -23c-24.667 0 -46.334 9.33301 -65.001 28s-28 41 -28 67c0 24 10.333 44.333 31 61c21.333 17.333 45 26.333 71 27c28.667 0.666992 54 -9.33301 76 -30c22.667 -20.667 34 -45.334 34 -74.001
c0 -33.333 -12.667 -63.333 -38 -90c-25.333 -25.333 -55 -38 -89 -38c-30 0 -57.5 9 -82.5 27s-42.833 40.333 -53.5 67h-153v-197c48 15.333 100 23 156 23c66.667 0 133.667 -18 201 -54l59 31zM414.999 576.003c-38 38.667 -86 58 -144 58c-30 0 -60 -5.33301 -90 -16
v-184h149c20.667 60.667 49 108 85 142zM321.999 367.003c-0.666992 5.33301 -1.16699 9.16797 -1.5 11.501s-0.5 3.16602 -0.5 2.49902c0 -1.33301 0.166992 -1.33301 0.5 0s0.833008 4.33301 1.5 9h-141v-23h141z" />
    <glyph glyph-name="Igrave" unicode="&#xcc;" horiz-adv-x="346" 
d="M204 744l-13 -29c-17.333 0 -38.333 12.333 -63 37s-46.334 37 -65.001 37l19 28c23.333 0 46.333 -12.333 69 -37c22.667 -24 40.334 -36 53.001 -36zM324 391c0 -32.667 -9.16699 -62.832 -27.5 -90.499s-42.5 -48.167 -72.5 -61.5v-198
c20 -3.33301 49.333 -15.333 88 -36c-3.33301 -8 -5.83301 -14.167 -7.5 -18.5s-2.83398 -7.16602 -3.50098 -8.49902c-5.33301 -9.33301 -13.333 -13.333 -24 -12c-10 1.33301 -26.667 7.66602 -50 18.999c-24 12 -44.333 18 -61 18
c-65.333 0 -118.666 -16.333 -159.999 -49c-0.666992 0.666992 -1.66699 1 -3 1c42.667 44.667 80.334 72 113.001 82v190c-47.333 10 -83.333 38.333 -108 85c26.667 -36 62.667 -57 108 -63v39c-26.667 7.33301 -48.334 21.5 -65.001 42.5s-25 45.5 -25 73.5
c0 30 8.5 57.167 25.5 81.5s38.5 41.166 64.5 50.499v73c-24.667 2.66699 -61.334 17 -110.001 43l27 36c42.667 -24 85.334 -36 128.001 -36c51.333 0 98 12 140 36l4 -4c-34 -34 -61 -55.333 -81 -64v-87c30 -12 54.167 -30.667 72.5 -56s27.5 -54 27.5 -86zM301 391.002
c0 56 -25.667 94.999 -77 116.999v-44c27.333 -19.333 41 -43.666 41 -72.999c0 -32 -13.667 -58.667 -41 -80v-46c51.333 28 77 70 77 126zM242 391.001c0 16.667 -6 31 -18 43v-92c12 14.667 18 31 18 49zM116 388.001v54c-9.33301 -9.33301 -14 -20.333 -14 -33
c0 -8 4.66699 -15 14 -21zM116 313.001v37c-26 12.667 -39 31.667 -39 57c0 28 13 49.667 39 65v40c-44.667 -18.667 -67 -53.667 -67 -105c0 -46.667 22.333 -78 67 -94z" />
    <glyph glyph-name="Iacute" unicode="&#xcd;" horiz-adv-x="346" 
d="M283 795c-16 0 -36.6689 -11.667 -62.002 -35c-24.667 -23.333 -44.667 -35 -60 -35l-12 28c12.667 0 29.334 11.333 50.001 34s42.334 34 65.001 34zM323.998 391c0 -32.667 -9.16699 -62.832 -27.5 -90.499s-42.5 -48.167 -72.5 -61.5v-198
c20 -3.33301 49.333 -15.333 88 -36c-3.33301 -8 -5.83301 -14.167 -7.5 -18.5s-2.83398 -7.16602 -3.50098 -8.49902c-5.33301 -9.33301 -13.333 -13.333 -24 -12c-10 1.33301 -26.667 7.66602 -50 18.999c-24 12 -44.333 18 -61 18
c-65.333 0 -118.666 -16.333 -159.999 -49c-0.666992 0.666992 -1.66699 1 -3 1c42.667 44.667 80.334 72 113.001 82v190c-47.333 10 -83.333 38.333 -108 85c26.667 -36 62.667 -57 108 -63v39c-26.667 7.33301 -48.334 21.5 -65.001 42.5s-25 45.5 -25 73.5
c0 30 8.5 57.167 25.5 81.5s38.5 41.166 64.5 50.499v73c-24.667 2.66699 -61.334 17 -110.001 43l27 36c42.667 -24 85.334 -36 128.001 -36c51.333 0 98 12 140 36l4 -4c-34 -34 -61 -55.333 -81 -64v-87c30 -12 54.167 -30.667 72.5 -56s27.5 -54 27.5 -86z
M300.998 391.002c0 56 -25.667 94.999 -77 116.999v-44c27.333 -19.333 41 -43.666 41 -72.999c0 -32 -13.667 -58.667 -41 -80v-46c51.333 28 77 70 77 126zM241.998 391.001c0 16.667 -6 31 -18 43v-92c12 14.667 18 31 18 49zM115.998 388.001v54
c-9.33301 -9.33301 -14 -20.333 -14 -33c0 -8 4.66699 -15 14 -21zM115.998 313.001v37c-26 12.667 -39 31.667 -39 57c0 28 13 49.667 39 65v40c-44.667 -18.667 -67 -53.667 -67 -105c0 -46.667 22.333 -78 67 -94z" />
    <glyph glyph-name="Icircumflex" unicode="&#xce;" horiz-adv-x="346" 
d="M274 726c-9.33301 -2 -18.001 -3 -26.001 -3c-33.333 0 -66.666 16.333 -99.999 49l-49 -54l-19 17l90 92c6.66699 -21.333 19.667 -41.666 39 -60.999c16.667 -16.667 36.667 -28.334 60 -35.001zM323.999 391c0 -32.667 -9.16699 -62.832 -27.5 -90.499
s-42.5 -48.167 -72.5 -61.5v-198c20 -3.33301 49.333 -15.333 88 -36c-3.33301 -8 -5.83301 -14.167 -7.5 -18.5s-2.83398 -7.16602 -3.50098 -8.49902c-5.33301 -9.33301 -13.333 -13.333 -24 -12c-10 1.33301 -26.667 7.66602 -50 18.999c-24 12 -44.333 18 -61 18
c-65.333 0 -118.666 -16.333 -159.999 -49c-0.666992 0.666992 -1.66699 1 -3 1c42.667 44.667 80.334 72 113.001 82v190c-47.333 10 -83.333 38.333 -108 85c26.667 -36 62.667 -57 108 -63v39c-26.667 7.33301 -48.334 21.5 -65.001 42.5s-25 45.5 -25 73.5
c0 30 8.5 57.167 25.5 81.5s38.5 41.166 64.5 50.499v73c-24.667 2.66699 -61.334 17 -110.001 43l27 36c42.667 -24 85.334 -36 128.001 -36c51.333 0 98 12 140 36l4 -4c-34 -34 -61 -55.333 -81 -64v-87c30 -12 54.167 -30.667 72.5 -56s27.5 -54 27.5 -86z
M300.999 391.002c0 56 -25.667 94.999 -77 116.999v-44c27.333 -19.333 41 -43.666 41 -72.999c0 -32 -13.667 -58.667 -41 -80v-46c51.333 28 77 70 77 126zM241.999 391.001c0 16.667 -6 31 -18 43v-92c12 14.667 18 31 18 49zM115.999 388.001v54
c-9.33301 -9.33301 -14 -20.333 -14 -33c0 -8 4.66699 -15 14 -21zM115.999 313.001v37c-26 12.667 -39 31.667 -39 57c0 28 13 49.667 39 65v40c-44.667 -18.667 -67 -53.667 -67 -105c0 -46.667 22.333 -78 67 -94z" />
    <glyph glyph-name="Idieresis" unicode="&#xcf;" horiz-adv-x="346" 
d="M258 755c0 -20.667 -10.333 -31 -31 -31s-31 10.333 -31 31c0 20 10.333 30 31 30s31 -10 31 -30zM149 755c0 -20.667 -10.333 -31 -31 -31c-20 0 -30 10.333 -30 31c0 20 10 30 30 30c20.667 0 31 -10 31 -30zM324 391c0 -32.667 -9.16699 -62.832 -27.5 -90.499
s-42.5 -48.167 -72.5 -61.5v-198c20 -3.33301 49.333 -15.333 88 -36c-3.33301 -8 -5.83301 -14.167 -7.5 -18.5s-2.83398 -7.16602 -3.50098 -8.49902c-5.33301 -9.33301 -13.333 -13.333 -24 -12c-10 1.33301 -26.667 7.66602 -50 18.999c-24 12 -44.333 18 -61 18
c-65.333 0 -118.666 -16.333 -159.999 -49c-0.666992 0.666992 -1.66699 1 -3 1c42.667 44.667 80.334 72 113.001 82v190c-47.333 10 -83.333 38.333 -108 85c26.667 -36 62.667 -57 108 -63v39c-26.667 7.33301 -48.334 21.5 -65.001 42.5s-25 45.5 -25 73.5
c0 30 8.5 57.167 25.5 81.5s38.5 41.166 64.5 50.499v73c-24.667 2.66699 -61.334 17 -110.001 43l27 36c42.667 -24 85.334 -36 128.001 -36c51.333 0 98 12 140 36l4 -4c-34 -34 -61 -55.333 -81 -64v-87c30 -12 54.167 -30.667 72.5 -56s27.5 -54 27.5 -86zM301 391.002
c0 56 -25.667 94.999 -77 116.999v-44c27.333 -19.333 41 -43.666 41 -72.999c0 -32 -13.667 -58.667 -41 -80v-46c51.333 28 77 70 77 126zM242 391.001c0 16.667 -6 31 -18 43v-92c12 14.667 18 31 18 49zM116 388.001v54c-9.33301 -9.33301 -14 -20.333 -14 -33
c0 -8 4.66699 -15 14 -21zM116 313.001v37c-26 12.667 -39 31.667 -39 57c0 28 13 49.667 39 65v40c-44.667 -18.667 -67 -53.667 -67 -105c0 -46.667 22.333 -78 67 -94z" />
    <glyph glyph-name="Ntilde" unicode="&#xd1;" horiz-adv-x="617" 
d="M414 788c2.66699 -30.667 -8.99902 -47.6631 -34.999 -50.9961c-15.333 -2 -34.666 7.33301 -57.999 28c-24.667 21.333 -44.334 31 -59.001 29c-6 -0.666992 -11.333 -4.83398 -16 -12.501s-6.66699 -15.834 -6 -24.501c0 -2 3.33301 -9.33301 10 -22l-1 -3
c-10.667 10 -16 23 -16 39c-2 14.667 1.66699 26.667 11 36s20 14.666 32 15.999c20 3.33301 40.667 -5.66699 62 -27c21.333 -20.667 37.666 -30.334 48.999 -29.001c14.667 2 20.667 14.333 18 37c0 8 -3.66699 16.667 -11 26l3 3c9.33301 -9.33301 15 -24.333 17 -45z
M602.001 0.00390625l-129.003 -0.00292969l-167 280c-70.667 -60 -106 -135.333 -106 -226c0 -15.333 2.5 -29.666 7.5 -42.999s12 -25 21 -35s19.667 -18 32 -24s25.5 -9 39.5 -9c12 0 23.5 2.33301 34.5 7s20.667 11 29 19s15 17.333 20 28s7.5 22 7.5 34
c0 19.333 -7.16699 35.666 -21.5 48.999s-31.5 20 -51.5 20c-16.667 0 -31 -6 -43 -18s-18 -26.333 -18 -43c0 -13.333 4.16699 -24.666 12.5 -33.999s18.5 -14 30.5 -14c4 0 12 2.66699 24 8c-16 10 -24 20 -24 30c0 20 10 30 30 30s30 -10.333 30 -31
c0 -13.333 -5.66699 -25.666 -17 -36.999s-25.666 -17 -42.999 -17c-16.667 0 -31 6.5 -43 19.5s-18 28.167 -18 45.5c0 10.667 2.16699 20.834 6.5 30.501s10 18.334 17 26.001s15.333 13.667 25 18s19.834 6.5 30.501 6.5c12 0 23.667 -2.33301 35 -7
s21.166 -11.167 29.499 -19.5s15 -17.833 20 -28.5s7.5 -22 7.5 -34c0 -28.667 -11 -53.334 -33 -74.001c-21.333 -20.667 -47 -31 -77 -31c-32.667 0 -61 13.667 -85 41c-24 26.667 -36 56.667 -36 90c0 92.667 38.667 171.667 116 237l-128 213
c-12.667 -66.667 -22.167 -131.667 -28.5 -195s-9.5 -126 -9.5 -188c0 -34 1 -66 3 -96s5.33301 -58.667 10 -86l-4 -1c-14 20 -28 38 -42 54c-32.667 36.667 -63.334 59.667 -92.001 69c72.667 71.333 117.334 240.666 134.001 507.999c-10 30 -28 45 -54 45
c-10 0 -23 -3.66699 -39 -11l-10 4l150 78l206 -330l87 45c-10.667 122 -45.667 217.667 -105 287c22 -6 47.667 -9 77 -9c36.667 0 73.667 4 111 12c-5.33301 -11.333 -10.166 -22.5 -14.499 -33.5s-8.16602 -22.167 -11.499 -33.5c-8.66699 -26 -15 -50.167 -19 -72.5
s-6.33301 -42.833 -7 -61.5l-1 -71c27.333 17.333 43 38.333 47 63c2 14 -0.333008 32 -7 54c13.333 -17.333 19 -35.333 17 -54c-2.66699 -29.333 -21.667 -55.666 -57 -78.999c-0.666992 -14 -1 -34.167 -1 -60.5s-0.333008 -59.5 -1 -99.5
c-1.33301 -96 30.667 -177.667 96 -245zM479.998 389.001l-32.998 -18.001c-13.333 -7.33301 -29.333 -15.666 -48 -24.999l79 -127c3.33301 27.333 5.16602 55 5.49902 83s-0.833984 57 -3.50098 87z" />
    <glyph glyph-name="Ograve" unicode="&#xd2;" horiz-adv-x="614" 
d="M333 750l-14 -29c-17.333 0 -38.333 12.333 -63 37s-46.334 37 -65.001 37l20 28c23.333 0 46.333 -12.333 69 -37c22.667 -24 40.334 -36 53.001 -36zM585 358c0 -93.333 -25.332 -173.667 -75.999 -241c-50 -67.333 -119.333 -112.333 -208 -135
c-90.667 47.333 -159 99 -205 155c-52 64.667 -78 141 -78 229c0 151.333 71.333 262 214 332l26 -16c28 10.667 58.667 16 92 16c53.333 0 105.666 -37.667 156.999 -113c52 -75.333 78 -151 78 -227zM510.001 403.999c0 66 -15.3311 124.335 -45.998 175.002
c-34 55.333 -78 83 -132 83c-5.33301 0 -11.333 -0.5 -18 -1.5l-23 -3.5l57 -59c-78.667 -6.66699 -142.667 -37.334 -192 -92.001c0 -36 13.333 -70.333 40 -103c28.667 -36.667 62 -55 100 -55c30.667 0 56.667 10.333 78 31c22 20.667 33 45.334 33 74.001
c0 24.667 -7.5 45.5 -22.5 62.5s-33.167 25.5 -54.5 25.5c-48 0 -73 -21.667 -75 -65c-2 -38 16 -57 54 -57c13.333 0 21.666 3.66699 24.999 11c-24 2.66699 -36 14 -36 34c0 9.33301 3.5 17.666 10.5 24.999s14.833 11 23.5 11c11.333 0 20.333 -4 27 -12s10 -16 10 -24
c0 -23.333 -7 -41 -21 -53c-11.333 -9.33301 -23.333 -14 -36 -14c-24 0 -43.667 8.16699 -59 24.5s-22 36.5 -20 60.5c2 23.333 12 42.333 30 57s39.333 22 64 22c14 0 27.167 -2.83301 39.5 -8.5s23 -13.167 32 -22.5s16 -20.5 21 -33.5s7.5 -26.5 7.5 -40.5
c0 -36.667 -13 -67.334 -39 -92.001c-24.667 -24.667 -55.334 -37 -92.001 -37c-52 0 -111.333 40 -178 120c-16.667 -32.667 -25 -71 -25 -115c0 -56.667 13 -112 39 -166c26.667 -56 55.667 -84 87 -84c68 0 132.333 32.333 193 97c65.333 67.333 98 142.333 98 225z" />
    <glyph glyph-name="Oacute" unicode="&#xd3;" horiz-adv-x="614" 
d="M418 794c-18.667 0 -40.333 -12.333 -65 -37s-45.667 -37 -63 -37l-14 29c12 0 29.667 12 53 36c22.667 24.667 45.667 37 69 37zM585.001 358c0 -93.333 -25.332 -173.667 -75.999 -241c-50 -67.333 -119.333 -112.333 -208 -135c-90.667 47.333 -159 99 -205 155
c-52 64.667 -78 141 -78 229c0 151.333 71.333 262 214 332l26 -16c28 10.667 58.667 16 92 16c53.333 0 105.666 -37.667 156.999 -113c52 -75.333 78 -151 78 -227zM510.002 403.999c0 66 -15.3311 124.335 -45.998 175.002c-34 55.333 -78 83 -132 83
c-5.33301 0 -11.333 -0.5 -18 -1.5l-23 -3.5l57 -59c-78.667 -6.66699 -142.667 -37.334 -192 -92.001c0 -36 13.333 -70.333 40 -103c28.667 -36.667 62 -55 100 -55c30.667 0 56.667 10.333 78 31c22 20.667 33 45.334 33 74.001c0 24.667 -7.5 45.5 -22.5 62.5
s-33.167 25.5 -54.5 25.5c-48 0 -73 -21.667 -75 -65c-2 -38 16 -57 54 -57c13.333 0 21.666 3.66699 24.999 11c-24 2.66699 -36 14 -36 34c0 9.33301 3.5 17.666 10.5 24.999s14.833 11 23.5 11c11.333 0 20.333 -4 27 -12s10 -16 10 -24c0 -23.333 -7 -41 -21 -53
c-11.333 -9.33301 -23.333 -14 -36 -14c-24 0 -43.667 8.16699 -59 24.5s-22 36.5 -20 60.5c2 23.333 12 42.333 30 57s39.333 22 64 22c14 0 27.167 -2.83301 39.5 -8.5s23 -13.167 32 -22.5s16 -20.5 21 -33.5s7.5 -26.5 7.5 -40.5c0 -36.667 -13 -67.334 -39 -92.001
c-24.667 -24.667 -55.334 -37 -92.001 -37c-52 0 -111.333 40 -178 120c-16.667 -32.667 -25 -71 -25 -115c0 -56.667 13 -112 39 -166c26.667 -56 55.667 -84 87 -84c68 0 132.333 32.333 193 97c65.333 67.333 98 142.333 98 225z" />
    <glyph glyph-name="Ocircumflex" unicode="&#xd4;" horiz-adv-x="614" 
d="M406 726c-9.33301 -2 -18 -3 -26 -3c-33.333 0 -66.333 16.333 -99 49l-50 -54l-19 17l90 92c8.66699 -22.667 21.667 -42.667 39 -60s37.333 -29.333 60 -36zM585 358c0 -93.333 -25.332 -173.667 -75.999 -241c-50 -67.333 -119.333 -112.333 -208 -135
c-90.667 47.333 -159 99 -205 155c-52 64.667 -78 141 -78 229c0 151.333 71.333 262 214 332l26 -16c28 10.667 58.667 16 92 16c53.333 0 105.666 -37.667 156.999 -113c52 -75.333 78 -151 78 -227zM510.001 403.999c0 66 -15.3311 124.335 -45.998 175.002
c-34 55.333 -78 83 -132 83c-5.33301 0 -11.333 -0.5 -18 -1.5l-23 -3.5l57 -59c-78.667 -6.66699 -142.667 -37.334 -192 -92.001c0 -36 13.333 -70.333 40 -103c28.667 -36.667 62 -55 100 -55c30.667 0 56.667 10.333 78 31c22 20.667 33 45.334 33 74.001
c0 24.667 -7.5 45.5 -22.5 62.5s-33.167 25.5 -54.5 25.5c-48 0 -73 -21.667 -75 -65c-2 -38 16 -57 54 -57c13.333 0 21.666 3.66699 24.999 11c-24 2.66699 -36 14 -36 34c0 9.33301 3.5 17.666 10.5 24.999s14.833 11 23.5 11c11.333 0 20.333 -4 27 -12s10 -16 10 -24
c0 -23.333 -7 -41 -21 -53c-11.333 -9.33301 -23.333 -14 -36 -14c-24 0 -43.667 8.16699 -59 24.5s-22 36.5 -20 60.5c2 23.333 12 42.333 30 57s39.333 22 64 22c14 0 27.167 -2.83301 39.5 -8.5s23 -13.167 32 -22.5s16 -20.5 21 -33.5s7.5 -26.5 7.5 -40.5
c0 -36.667 -13 -67.334 -39 -92.001c-24.667 -24.667 -55.334 -37 -92.001 -37c-52 0 -111.333 40 -178 120c-16.667 -32.667 -25 -71 -25 -115c0 -56.667 13 -112 39 -166c26.667 -56 55.667 -84 87 -84c68 0 132.333 32.333 193 97c65.333 67.333 98 142.333 98 225z" />
    <glyph glyph-name="Otilde" unicode="&#xd5;" horiz-adv-x="614" 
d="M398 793c2.66699 -30.667 -8.99707 -47.6631 -34.9971 -50.9961c-15.333 -2 -34.666 7.33301 -57.999 28c-24.667 21.333 -44.334 31 -59.001 29c-6 -0.666992 -11.333 -4.83398 -16 -12.501s-6.33398 -15.834 -5.00098 -24.501c3.33301 -6.66699 6.33301 -14 9 -22
l-1 -3c-8.66699 8 -14 21 -16 39c-2.66699 30.667 11.666 48 42.999 52c20 2.66699 41 -6.33301 63 -27c21.333 -20.667 37.666 -30.334 48.999 -29.001c13.333 1.33301 19.333 13.666 18 36.999c-1.33301 10 -5 18.667 -11 26l3 3c8.66699 -9.33301 14 -24.333 16 -45z
M585.003 358.004c0 -93.333 -25.332 -173.667 -75.999 -241c-50 -67.333 -119.333 -112.333 -208 -135c-90.667 47.333 -159 99 -205 155c-52 64.667 -78 141 -78 229c0 151.333 71.333 262 214 332l26 -16c28 10.667 58.667 16 92 16
c53.333 0 105.666 -37.667 156.999 -113c52 -75.333 78 -151 78 -227zM510.004 404.003c0 66 -15.3311 124.335 -45.998 175.002c-34 55.333 -78 83 -132 83c-5.33301 0 -11.333 -0.5 -18 -1.5l-23 -3.5l57 -59c-78.667 -6.66699 -142.667 -37.334 -192 -92.001
c0 -36 13.333 -70.333 40 -103c28.667 -36.667 62 -55 100 -55c30.667 0 56.667 10.333 78 31c22 20.667 33 45.334 33 74.001c0 24.667 -7.5 45.5 -22.5 62.5s-33.167 25.5 -54.5 25.5c-48 0 -73 -21.667 -75 -65c-2 -38 16 -57 54 -57c13.333 0 21.666 3.66699 24.999 11
c-24 2.66699 -36 14 -36 34c0 9.33301 3.5 17.666 10.5 24.999s14.833 11 23.5 11c11.333 0 20.333 -4 27 -12s10 -16 10 -24c0 -23.333 -7 -41 -21 -53c-11.333 -9.33301 -23.333 -14 -36 -14c-24 0 -43.667 8.16699 -59 24.5s-22 36.5 -20 60.5c2 23.333 12 42.333 30 57
s39.333 22 64 22c14 0 27.167 -2.83301 39.5 -8.5s23 -13.167 32 -22.5s16 -20.5 21 -33.5s7.5 -26.5 7.5 -40.5c0 -36.667 -13 -67.334 -39 -92.001c-24.667 -24.667 -55.334 -37 -92.001 -37c-52 0 -111.333 40 -178 120c-16.667 -32.667 -25 -71 -25 -115
c0 -56.667 13 -112 39 -166c26.667 -56 55.667 -84 87 -84c68 0 132.333 32.333 193 97c65.333 67.333 98 142.333 98 225z" />
    <glyph glyph-name="Odieresis" unicode="&#xd6;" horiz-adv-x="614" 
d="M386 780c0 -20.667 -10.333 -31 -31 -31s-31 10.333 -31 31s10.333 31 31 31s31 -10.333 31 -31zM278 780c0 -20.667 -10.333 -31 -31 -31s-31 10.333 -31 31s10.333 31 31 31s31 -10.333 31 -31zM585 358c0 -93.333 -25.332 -173.667 -75.999 -241
c-50 -67.333 -119.333 -112.333 -208 -135c-90.667 47.333 -159 99 -205 155c-52 64.667 -78 141 -78 229c0 151.333 71.333 262 214 332l26 -16c28 10.667 58.667 16 92 16c53.333 0 105.666 -37.667 156.999 -113c52 -75.333 78 -151 78 -227zM510.001 403.999
c0 66 -15.3311 124.335 -45.998 175.002c-34 55.333 -78 83 -132 83c-5.33301 0 -11.333 -0.5 -18 -1.5l-23 -3.5l57 -59c-78.667 -6.66699 -142.667 -37.334 -192 -92.001c0 -36 13.333 -70.333 40 -103c28.667 -36.667 62 -55 100 -55c30.667 0 56.667 10.333 78 31
c22 20.667 33 45.334 33 74.001c0 24.667 -7.5 45.5 -22.5 62.5s-33.167 25.5 -54.5 25.5c-48 0 -73 -21.667 -75 -65c-2 -38 16 -57 54 -57c13.333 0 21.666 3.66699 24.999 11c-24 2.66699 -36 14 -36 34c0 9.33301 3.5 17.666 10.5 24.999s14.833 11 23.5 11
c11.333 0 20.333 -4 27 -12s10 -16 10 -24c0 -23.333 -7 -41 -21 -53c-11.333 -9.33301 -23.333 -14 -36 -14c-24 0 -43.667 8.16699 -59 24.5s-22 36.5 -20 60.5c2 23.333 12 42.333 30 57s39.333 22 64 22c14 0 27.167 -2.83301 39.5 -8.5s23 -13.167 32 -22.5
s16 -20.5 21 -33.5s7.5 -26.5 7.5 -40.5c0 -36.667 -13 -67.334 -39 -92.001c-24.667 -24.667 -55.334 -37 -92.001 -37c-52 0 -111.333 40 -178 120c-16.667 -32.667 -25 -71 -25 -115c0 -56.667 13 -112 39 -166c26.667 -56 55.667 -84 87 -84c68 0 132.333 32.333 193 97
c65.333 67.333 98 142.333 98 225z" />
    <glyph glyph-name="Oslash" unicode="&#xd8;" horiz-adv-x="614" 
d="M585 358c0 -93.333 -25.334 -173.668 -76.001 -241.001c-50 -67.333 -119.333 -112.333 -208 -135c-7.33301 3.33301 -16.166 8 -26.499 14l-35.5 21l-8 -30.5c-2.66699 -10.333 -5.66699 -21.166 -9 -32.499h-31l22 79c-130 86.667 -195 197.667 -195 333
c0 151.333 71.333 262 214 332l26 -16c28 10.667 58.667 16 92 16c10.667 0 24 -2.66699 40 -8l16 62h31l-20 -76c44.667 -26.667 83.667 -71 117 -133c34 -63.333 51 -125 51 -185zM406.999 452.998c0 31.333 -10.333 55.001 -31 71.001l-12 -43
c3.33301 -5.33301 5 -11 5 -17c0 -25.333 -8.33301 -44 -25 -56l-14 -55c22 7.33301 40.333 20.166 55 38.499s22 38.833 22 61.5zM347.999 536.999c-4.66699 2.66699 -10.668 4.00098 -18.001 4.00098c-48 0 -73 -21.667 -75 -65c-2 -38 16 -57 54 -57h7l3 14
c-14 6 -21 16.333 -21 31c0 9.33301 3.5 17.666 10.5 24.999s14.833 11 23.5 11c2.66699 0 4.33398 -0.333008 5.00098 -1zM378.998 653c-14 6 -29.668 9.00098 -47.001 9.00098c-5.33301 0 -11.333 -0.5 -18 -1.5l-23 -3.5l57 -59
c-78.667 -6.66699 -142.667 -37.334 -192 -92.001c0 -36 13.333 -70.333 40 -103c28.667 -36.667 62 -55 100 -55h1l13 49c-23.333 0 -42.5 8.16699 -57.5 24.5s-21.5 36.5 -19.5 60.5c2 23.333 12 42.333 30 57s39.333 22 64 22c12.667 0 21.334 -1.33301 26.001 -4z
M509.997 404.001c0 46.667 -8.66602 92 -25.999 136c-18.667 46 -44.334 79 -77.001 99l-26 -94c30.667 -20.667 46 -50.334 46 -89.001c0 -32 -9.66699 -59.5 -29 -82.5s-44 -37.5 -74 -43.5l-66 -243c62.667 12.667 119.667 49.334 171 110.001
c54 64.667 81 133.667 81 207zM291.998 327.001c-51.333 2.66699 -109.333 42.667 -174 120c-16.667 -32.667 -25 -71 -25 -115c0 -56.667 13 -112 39 -166c26.667 -56 55.667 -84 87 -84h7z" />
    <glyph glyph-name="Ugrave" unicode="&#xd9;" horiz-adv-x="580" 
d="M369 744l-14 -29c-16.667 0 -37.334 12.333 -62.001 37s-46.667 37 -66 37l20 28c23.333 0 46.333 -12.333 69 -37c22.667 -24 40.334 -36 53.001 -36zM551 44c-53.333 -31.333 -115.666 -47.0029 -186.999 -47.0029c-91.333 0 -169.333 33 -234 99
c-64 66.667 -96 146.334 -96 239.001c0 40.667 5.66699 82 17 124c2.66699 9.33301 7.33398 23.333 14.001 42l26 71h-67l-13 10l303 104l6 -4c-50 -38.667 -92.667 -90 -128 -154c-41.333 -74.667 -62 -149.334 -62 -224.001c0 -73.333 17.667 -136.666 53 -189.999
c38.667 -58.667 90.334 -88 155.001 -88c38 0 74.667 12 110 36v535c-54 -29.333 -98 -69 -132 -119c-40 -57.333 -60 -115.333 -60 -174c0 -14 2.16699 -27.167 6.5 -39.5s10.166 -23.166 17.499 -32.499s16.333 -16.833 27 -22.5s22 -8.5 34 -8.5
c18 0 33.833 5.66699 47.5 17s20.5 25.333 20.5 42c0 30.667 -15 48 -45 52c-12.667 2 -23.5 -0.5 -32.5 -7.5s-13.5 -15.833 -13.5 -26.5c0 -6.66699 1 -10.334 3 -11.001c5.33301 11.333 13.666 17 24.999 17c18.667 0 28 -9.66699 28 -29c0 -18.667 -9.33301 -28 -28 -28
c-14 0 -25.5 5 -34.5 15s-13.833 22 -14.5 36c-0.666992 16.667 6 30.334 20 41.001s29.667 15 47 13c41.333 -5.33301 62 -29.333 62 -72c0 -11.333 -2.33301 -21.666 -7 -30.999s-11 -17.333 -19 -24s-17.333 -12 -28 -16s-22 -6 -34 -6c-30.667 0 -55.334 12 -74.001 36
c-19.333 25.333 -29 53.666 -29 84.999c0 82.667 31.667 159.334 95 230.001c54 60.667 127.667 112.667 221 156v-646z" />
    <glyph glyph-name="Uacute" unicode="&#xda;" horiz-adv-x="580" 
d="M418 794c-18.667 0 -40.333 -12.333 -65 -37s-45.667 -37 -63 -37l-14 29c12 0 29.667 12 53 36c22.667 24.667 45.667 37 69 37zM551.001 44c-53.333 -31.333 -115.666 -47.0029 -186.999 -47.0029c-91.333 0 -169.333 33 -234 99c-64 66.667 -96 146.334 -96 239.001
c0 40.667 5.66699 82 17 124c2.66699 9.33301 7.33398 23.333 14.001 42l26 71h-67l-13 10l303 104l6 -4c-50 -38.667 -92.667 -90 -128 -154c-41.333 -74.667 -62 -149.334 -62 -224.001c0 -73.333 17.667 -136.666 53 -189.999c38.667 -58.667 90.334 -88 155.001 -88
c38 0 74.667 12 110 36v535c-54 -29.333 -98 -69 -132 -119c-40 -57.333 -60 -115.333 -60 -174c0 -14 2.16699 -27.167 6.5 -39.5s10.166 -23.166 17.499 -32.499s16.333 -16.833 27 -22.5s22 -8.5 34 -8.5c18 0 33.833 5.66699 47.5 17s20.5 25.333 20.5 42
c0 30.667 -15 48 -45 52c-12.667 2 -23.5 -0.5 -32.5 -7.5s-13.5 -15.833 -13.5 -26.5c0 -6.66699 1 -10.334 3 -11.001c5.33301 11.333 13.666 17 24.999 17c18.667 0 28 -9.66699 28 -29c0 -18.667 -9.33301 -28 -28 -28c-14 0 -25.5 5 -34.5 15s-13.833 22 -14.5 36
c-0.666992 16.667 6 30.334 20 41.001s29.667 15 47 13c41.333 -5.33301 62 -29.333 62 -72c0 -11.333 -2.33301 -21.666 -7 -30.999s-11 -17.333 -19 -24s-17.333 -12 -28 -16s-22 -6 -34 -6c-30.667 0 -55.334 12 -74.001 36c-19.333 25.333 -29 53.666 -29 84.999
c0 82.667 31.667 159.334 95 230.001c54 60.667 127.667 112.667 221 156v-646z" />
    <glyph glyph-name="Ucircumflex" unicode="&#xdb;" horiz-adv-x="580" 
d="M439 726c-9.33301 -2 -18.001 -3 -26.001 -3c-33.333 0 -66.666 16.333 -99.999 49l-49 -54l-19 17l90 92c6.66699 -21.333 19.667 -41.666 39 -60.999c16 -16.667 35.667 -28.334 59 -35.001zM550.999 44c-53.333 -31.333 -115.666 -47.0029 -186.999 -47.0029
c-91.333 0 -169.333 33 -234 99c-64 66.667 -96 146.334 -96 239.001c0 40.667 5.66699 82 17 124c2.66699 9.33301 7.33398 23.333 14.001 42l26 71h-67l-13 10l303 104l6 -4c-50 -38.667 -92.667 -90 -128 -154c-41.333 -74.667 -62 -149.334 -62 -224.001
c0 -73.333 17.667 -136.666 53 -189.999c38.667 -58.667 90.334 -88 155.001 -88c38 0 74.667 12 110 36v535c-54 -29.333 -98 -69 -132 -119c-40 -57.333 -60 -115.333 -60 -174c0 -14 2.16699 -27.167 6.5 -39.5s10.166 -23.166 17.499 -32.499s16.333 -16.833 27 -22.5
s22 -8.5 34 -8.5c18 0 33.833 5.66699 47.5 17s20.5 25.333 20.5 42c0 30.667 -15 48 -45 52c-12.667 2 -23.5 -0.5 -32.5 -7.5s-13.5 -15.833 -13.5 -26.5c0 -6.66699 1 -10.334 3 -11.001c5.33301 11.333 13.666 17 24.999 17c18.667 0 28 -9.66699 28 -29
c0 -18.667 -9.33301 -28 -28 -28c-14 0 -25.5 5 -34.5 15s-13.833 22 -14.5 36c-0.666992 16.667 6 30.334 20 41.001s29.667 15 47 13c41.333 -5.33301 62 -29.333 62 -72c0 -11.333 -2.33301 -21.666 -7 -30.999s-11 -17.333 -19 -24s-17.333 -12 -28 -16s-22 -6 -34 -6
c-30.667 0 -55.334 12 -74.001 36c-19.333 25.333 -29 53.666 -29 84.999c0 82.667 31.667 159.334 95 230.001c54 60.667 127.667 112.667 221 156v-646z" />
    <glyph glyph-name="Udieresis" unicode="&#xdc;" horiz-adv-x="580" 
d="M422 765c0 -20.667 -10.333 -31 -31 -31c-20 0 -30 10.333 -30 31s10 31 30 31c20.667 0 31 -10.333 31 -31zM314 765c0 -20.667 -10.333 -31 -31 -31s-31 10.333 -31 31s10.333 31 31 31s31 -10.333 31 -31zM551 44
c-53.333 -31.333 -115.666 -47.0029 -186.999 -47.0029c-91.333 0 -169.333 33 -234 99c-64 66.667 -96 146.334 -96 239.001c0 40.667 5.66699 82 17 124c2.66699 9.33301 7.33398 23.333 14.001 42l26 71h-67l-13 10l303 104l6 -4c-50 -38.667 -92.667 -90 -128 -154
c-41.333 -74.667 -62 -149.334 -62 -224.001c0 -73.333 17.667 -136.666 53 -189.999c38.667 -58.667 90.334 -88 155.001 -88c38 0 74.667 12 110 36v535c-54 -29.333 -98 -69 -132 -119c-40 -57.333 -60 -115.333 -60 -174c0 -14 2.16699 -27.167 6.5 -39.5
s10.166 -23.166 17.499 -32.499s16.333 -16.833 27 -22.5s22 -8.5 34 -8.5c18 0 33.833 5.66699 47.5 17s20.5 25.333 20.5 42c0 30.667 -15 48 -45 52c-12.667 2 -23.5 -0.5 -32.5 -7.5s-13.5 -15.833 -13.5 -26.5c0 -6.66699 1 -10.334 3 -11.001
c5.33301 11.333 13.666 17 24.999 17c18.667 0 28 -9.66699 28 -29c0 -18.667 -9.33301 -28 -28 -28c-14 0 -25.5 5 -34.5 15s-13.833 22 -14.5 36c-0.666992 16.667 6 30.334 20 41.001s29.667 15 47 13c41.333 -5.33301 62 -29.333 62 -72
c0 -11.333 -2.33301 -21.666 -7 -30.999s-11 -17.333 -19 -24s-17.333 -12 -28 -16s-22 -6 -34 -6c-30.667 0 -55.334 12 -74.001 36c-19.333 25.333 -29 53.666 -29 84.999c0 82.667 31.667 159.334 95 230.001c54 60.667 127.667 112.667 221 156v-646z" />
    <glyph glyph-name="germandbls" unicode="&#xdf;" horiz-adv-x="543" 
d="M522 238c0 -84 -59.3311 -166.002 -177.998 -246.002c-50.667 0 -94 16 -130 48c-38 34 -57 76.667 -57 128c0 34 10.333 62.667 31 86c20.667 24.667 46.667 37 78 37c25.333 0 47.666 -7.66699 66.999 -23c20.667 -16.667 31 -38.334 31 -65.001
c0 -21.333 -6.33301 -39.666 -19 -54.999s-28 -23 -46 -23c-15.333 0 -28.333 5.5 -39 16.5s-16 24.5 -16 40.5c0 26 11.333 39 34 39c18 0 27 -10 27 -30c0 -18.667 -8.33301 -28 -25 -28c-4.66699 0 -9.33398 1.33301 -14.001 4c0 -16.667 11 -25 33 -25
c14 0 25.833 6.16699 35.5 18.5s14.5 26.5 14.5 42.5c0 19.333 -7.33301 35.333 -22 48s-31.667 19 -51 19c-10 0 -19.5 -2.33301 -28.5 -7s-16.667 -11 -23 -19s-11.5 -17.167 -15.5 -27.5s-6 -20.833 -6 -31.5c0 -40 24.333 -72.333 73 -97
c38.667 -19.333 73.334 -29 104.001 -29c48.667 22.667 73 61.334 73 116.001c0 46.667 -15.667 86.334 -47 119.001c-31.333 32 -69 48 -113 48c-2.66699 0 -7.16699 0.333008 -13.5 1s-11.5 1 -15.5 1c-28 0 -55.667 -12.333 -83 -37c0 32 14 60.667 42 86l38 28.5
l38 28.5c26 20 37 40.667 33 62c-8.66699 49.333 -27.334 81.666 -56.001 96.999c-17.333 -7.33301 -63.666 -45.666 -138.999 -114.999v-450c0 -32 -14.333 -58.333 -43 -79c-28 -22 -58 -33 -90 -33l-1 4c24.667 16 37 37.667 37 65v404l-11 -10.5l-17 -16.5
c-4 -7.33301 -9 -7 -15 1c-4 5.33301 -3.66699 11 1 17l42 42v168c-1.33301 2 -3.33301 3 -6 3s-9.33398 -2.66699 -20.001 -8c-9.33301 -4.66699 -15.666 -7 -18.999 -7c-4 0 -6 2.33301 -6 7c39.333 37.333 88.666 66.333 147.999 87v-168l187 168
c51.333 -10.667 82.666 -50.334 93.999 -119.001c0 -29.333 -10.333 -55.666 -31 -78.999l-63 -60c50.667 -2.66699 97.334 -27 140.001 -73c38.667 -41.333 58 -81 58 -119z" />
    <glyph glyph-name="agrave" unicode="&#xe0;" horiz-adv-x="381" 
d="M215 502l-14 -29c-17.333 0 -38.333 12.333 -63 37s-46.334 37 -65.001 37l20 28c23.333 0 46.333 -12.333 69 -37c22.667 -24 40.334 -36 53.001 -36zM378 -2l-81 -0.000976562l-13 72c-89.333 -47.333 -146.666 -74.666 -171.999 -81.999c-28.667 0 -52 13.333 -70 40
c-16.667 24.667 -25 53.667 -25 87c0 42.667 14.667 79.667 44 111c34 36.667 92.667 70.667 176 102c0 15.333 -6.33301 33.333 -19 54c-12 21.333 -21.667 32 -29 32c-8.66699 0 -23.667 -11.667 -45 -35c-20.667 -22.667 -37.334 -34 -50.001 -34
c-9.33301 0 -17.333 3.33301 -24 10s-10 14.667 -10 24c0 33.333 37.333 52.333 112 57c34 2 65.333 -3 94 -15c32 -14 48 -32.333 48 -55zM279 98.999l-34.002 183c-3.33301 0.666992 -6.33301 1 -9 1h-9c-31.333 0 -59.666 -11.667 -84.999 -35
c-24.667 -22.667 -37.667 -50.334 -39 -83.001c-1.33301 -27.333 5.66699 -53.666 21 -78.999s32.333 -38 51 -38c38.667 14 73.334 31 104.001 51z" />
    <glyph glyph-name="aacute" unicode="&#xe1;" horiz-adv-x="381" 
d="M294 547c-18.667 0 -40.332 -12.333 -64.999 -37s-45.334 -37 -62.001 -37l-14 29c12 0 29.667 12 53 36c22.667 24.667 45.667 37 69 37zM378.002 -2l-81 -0.000976562l-13 72c-89.333 -47.333 -146.666 -74.666 -171.999 -81.999c-28.667 0 -52 13.333 -70 40
c-16.667 24.667 -25 53.667 -25 87c0 42.667 14.667 79.667 44 111c34 36.667 92.667 70.667 176 102c0 15.333 -6.33301 33.333 -19 54c-12 21.333 -21.667 32 -29 32c-8.66699 0 -23.667 -11.667 -45 -35c-20.667 -22.667 -37.334 -34 -50.001 -34
c-9.33301 0 -17.333 3.33301 -24 10s-10 14.667 -10 24c0 33.333 37.333 52.333 112 57c34 2 65.333 -3 94 -15c32 -14 48 -32.333 48 -55zM279.002 98.999l-34.002 183c-3.33301 0.666992 -6.33301 1 -9 1h-9c-31.333 0 -59.666 -11.667 -84.999 -35
c-24.667 -22.667 -37.667 -50.334 -39 -83.001c-1.33301 -27.333 5.66699 -53.666 21 -78.999s32.333 -38 51 -38c38.667 14 73.334 31 104.001 51z" />
    <glyph glyph-name="acircumflex" unicode="&#xe2;" horiz-adv-x="381" 
d="M291 508c-13.333 -2.66699 -25.332 -3.99902 -35.999 -3.99902c-24.667 0 -54.334 16.667 -89.001 50c-1.33301 -1.33301 -22.333 -19.333 -63 -54l-16 17l100 92c8 -22 21.333 -42.333 40 -61c16 -16.667 35.667 -28.334 59 -35.001zM378.001 -1.99902l-81 -0.000976562
l-13 72c-89.333 -47.333 -146.666 -74.666 -171.999 -81.999c-28.667 0 -52 13.333 -70 40c-16.667 24.667 -25 53.667 -25 87c0 42.667 14.667 79.667 44 111c34 36.667 92.667 70.667 176 102c0 15.333 -6.33301 33.333 -19 54c-12 21.333 -21.667 32 -29 32
c-8.66699 0 -23.667 -11.667 -45 -35c-20.667 -22.667 -37.334 -34 -50.001 -34c-9.33301 0 -17.333 3.33301 -24 10s-10 14.667 -10 24c0 33.333 37.333 52.333 112 57c34 2 65.333 -3 94 -15c32 -14 48 -32.333 48 -55zM279.001 99l-34.002 183
c-3.33301 0.666992 -6.33301 1 -9 1h-9c-31.333 0 -59.666 -11.667 -84.999 -35c-24.667 -22.667 -37.667 -50.334 -39 -83.001c-1.33301 -27.333 5.66699 -53.666 21 -78.999s32.333 -38 51 -38c38.667 14 73.334 31 104.001 51z" />
    <glyph glyph-name="atilde" unicode="&#xe3;" horiz-adv-x="381" 
d="M280 546c2.66699 -30.667 -8.99902 -47.6641 -34.999 -50.9971c-15.333 -2 -34.666 7.33301 -57.999 28c-24.667 21.333 -44.334 31 -59.001 29c-6 -0.666992 -11.333 -4.83398 -16 -12.501s-6.66699 -15.834 -6 -24.501c0 -2 3.33301 -9.33301 10 -22l-1 -3
c-10 10 -15.333 23 -16 39c-2 14.667 1.66699 26.667 11 36s20 14.666 32 15.999c20 2.66699 40.667 -6.66602 62 -27.999c21.333 -20.667 37.666 -30.334 48.999 -29.001c15.333 2 21.333 14.667 18 38c0 8 -3.66699 16.667 -11 26l4 3c8.66699 -9.33301 14 -24.333 16 -45
zM378.001 -1.99707l-81 -0.000976562l-13 72c-89.333 -47.333 -146.666 -74.666 -171.999 -81.999c-28.667 0 -52 13.333 -70 40c-16.667 24.667 -25 53.667 -25 87c0 42.667 14.667 79.667 44 111c34 36.667 92.667 70.667 176 102c0 15.333 -6.33301 33.333 -19 54
c-12 21.333 -21.667 32 -29 32c-8.66699 0 -23.667 -11.667 -45 -35c-20.667 -22.667 -37.334 -34 -50.001 -34c-9.33301 0 -17.333 3.33301 -24 10s-10 14.667 -10 24c0 33.333 37.333 52.333 112 57c34 2 65.333 -3 94 -15c32 -14 48 -32.333 48 -55zM279.001 99.002
l-34.002 183c-3.33301 0.666992 -6.33301 1 -9 1h-9c-31.333 0 -59.666 -11.667 -84.999 -35c-24.667 -22.667 -37.667 -50.334 -39 -83.001c-1.33301 -27.333 5.66699 -53.666 21 -78.999s32.333 -38 51 -38c38.667 14 73.334 31 104.001 51z" />
    <glyph glyph-name="adieresis" unicode="&#xe4;" horiz-adv-x="381" 
d="M278 518c0 -20.667 -10.333 -31 -31 -31s-31 10.333 -31 31c0 20 10.333 30 31 30s31 -10 31 -30zM170 518c0 -20.667 -10.333 -31 -31 -31s-31 10.333 -31 31c0 20 10.333 30 31 30s31 -10 31 -30zM378 -2l-81 -0.000976562l-13 72
c-89.333 -47.333 -146.666 -74.666 -171.999 -81.999c-28.667 0 -52 13.333 -70 40c-16.667 24.667 -25 53.667 -25 87c0 42.667 14.667 79.667 44 111c34 36.667 92.667 70.667 176 102c0 15.333 -6.33301 33.333 -19 54c-12 21.333 -21.667 32 -29 32
c-8.66699 0 -23.667 -11.667 -45 -35c-20.667 -22.667 -37.334 -34 -50.001 -34c-9.33301 0 -17.333 3.33301 -24 10s-10 14.667 -10 24c0 33.333 37.333 52.333 112 57c34 2 65.333 -3 94 -15c32 -14 48 -32.333 48 -55zM279 98.999l-34.002 183
c-3.33301 0.666992 -6.33301 1 -9 1h-9c-31.333 0 -59.666 -11.667 -84.999 -35c-24.667 -22.667 -37.667 -50.334 -39 -83.001c-1.33301 -27.333 5.66699 -53.666 21 -78.999s32.333 -38 51 -38c38.667 14 73.334 31 104.001 51z" />
    <glyph glyph-name="aring" unicode="&#xe5;" horiz-adv-x="381" 
d="M258 556c0 -18.667 -6.66699 -34.5 -20 -47.5s-29 -19.5 -47 -19.5c-18.667 0 -34.5 6.5 -47.5 19.5s-19.5 28.833 -19.5 47.5s6.5 34.5 19.5 47.5s28.833 19.5 47.5 19.5c18 0 33.667 -6.5 47 -19.5s20 -28.833 20 -47.5zM378 -2l-81 -0.000976562l-13 72
c-89.333 -47.333 -146.666 -74.666 -171.999 -81.999c-28.667 0 -52 13.333 -70 40c-16.667 24.667 -25 53.667 -25 87c0 42.667 14.667 79.667 44 111c34 36.667 92.667 70.667 176 102c0 15.333 -6.33301 33.333 -19 54c-12 21.333 -21.667 32 -29 32
c-8.66699 0 -23.667 -11.667 -45 -35c-20.667 -22.667 -37.334 -34 -50.001 -34c-9.33301 0 -17.333 3.33301 -24 10s-10 14.667 -10 24c0 33.333 37.333 52.333 112 57c34 2 65.333 -3 94 -15c32 -14 48 -32.333 48 -55zM218 555.999c0 18.667 -9 28 -27 28
c-18.667 0 -28 -9.33301 -28 -28c0 -18 9.33301 -27 28 -27c18 0 27 9 27 27zM279 98.999l-34.002 183c-3.33301 0.666992 -6.33301 1 -9 1h-9c-31.333 0 -59.666 -11.667 -84.999 -35c-24.667 -22.667 -37.667 -50.334 -39 -83.001
c-1.33301 -27.333 5.66699 -53.666 21 -78.999s32.333 -38 51 -38c38.667 14 73.334 31 104.001 51z" />
    <glyph glyph-name="ae" unicode="&#xe6;" horiz-adv-x="574" 
d="M549 306c0 -31.333 -21.999 -62.333 -65.999 -93l-48 -27.5l-47 -27.5c22 -44.667 64.333 -86.334 127 -125.001l-16 -10l-16 -10c-24.667 -12.667 -45.334 -20 -62.001 -22c-11.333 0 -26.666 7.66699 -45.999 23l3 -16h-81l-13 72
c-89.333 -47.333 -146.666 -74.666 -171.999 -81.999c-28.667 0 -52 13.333 -70 40c-16.667 24.667 -25 53.667 -25 87c0 42.667 14.667 79.667 44 111c34 36.667 92.667 70.667 176 102c0 15.333 -6.33301 33.333 -19 54c-12 21.333 -21.667 32 -29 32
c-8.66699 0 -23.667 -11.667 -45 -35c-20.667 -22.667 -37.334 -34 -50.001 -34c-9.33301 0 -17.333 3.33301 -24 10s-10 14.667 -10 24c0 33.333 37.333 52.333 112 57c34 2 65 -3 93 -15c31.333 -12.667 47.666 -30.667 48.999 -54c22 24 45.667 43.333 71 58
c24 14 44 21 60 21c18 0 40.667 -21 68 -63c24 -38 36 -63.667 36 -77zM455.001 280c-1.33301 18.667 -11.332 39.334 -29.999 62.001c-19.333 24 -36.666 36 -51.999 36c-4.66699 0 -9.33398 -1.66699 -14.001 -5c-22.667 -18.667 -33.667 -39.334 -33 -62.001
c2.66699 -12.667 5 -25 7 -37l6 -37c9.33301 -35.333 21 -53 35 -53c16 0 33.667 10 53 30c19.333 22 28.666 44 27.999 66zM279.002 99l-34.002 183c-3.33301 0.666992 -6.33301 1 -9 1h-9c-31.333 0 -59.666 -11.667 -84.999 -35
c-24.667 -22.667 -37.667 -50.334 -39 -83.001c-1.33301 -27.333 5.66699 -53.666 21 -78.999s32.333 -38 51 -38c38.667 14 73.334 31 104.001 51z" />
    <glyph glyph-name="ccedilla" unicode="&#xe7;" horiz-adv-x="348" 
d="M332 67l-155.001 -77.998c-6.66699 -56.667 -31.667 -85 -75 -85c-13.333 0 -25 5.16699 -35 15.5s-15 22.833 -15 37.5c0 32 13.333 48 40 48c19.333 0 29 -9.33301 29 -28s-9.33301 -28 -28 -28c-10.667 0 -18.334 3.33301 -23.001 10
c0 -8.66699 3.16699 -16.667 9.5 -24s13.833 -11 22.5 -11c16.667 0 30.334 7.33301 41.001 22s16.334 31.667 17.001 51c-38 26.667 -70 61.667 -96 105c-27.333 45.333 -41 88.666 -41 129.999c0 42.667 17.667 87.667 53 135c38 50.667 78.667 76 122 76
c48.667 0 89 -23.333 121 -70l-69 -51c-6 10 -13.167 19.167 -21.5 27.5s-17.333 15.666 -27 21.999s-19.667 11.333 -30 15s-20.5 5.5 -30.5 5.5c-39.333 0 -59 -26.667 -59 -80c0 -60 24 -121.333 72 -184c42.667 -56 76 -84 100 -84c2.66699 0 4.66699 0.666992 6 2
l49 24z" />
    <glyph glyph-name="egrave" unicode="&#xe8;" horiz-adv-x="330" 
d="M194 502l-14 -29c-17.333 0 -38.333 12.333 -63 37s-46.334 37 -65.001 37l20 28c23.333 0 46.333 -12.333 69 -37c22.667 -24 40.334 -36 53.001 -36zM307 306c0 -31.333 -21.999 -62.332 -65.999 -92.999l-48 -27.5l-47 -27.5c22 -44.667 64.333 -86.334 127 -125.001
l-16 -10l-16 -10c-24.667 -12.667 -45.334 -20 -62.001 -22c-27.333 0 -61 27.667 -101 83c-42 56.667 -63 109.667 -63 159c0 54 24.667 104.667 74 152c42.667 40.667 80.667 61 114 61c18 0 40.667 -21 68 -63c24 -38 36 -63.667 36 -77zM213.001 280.001
c-1.33301 18.667 -11.333 39.334 -30 62.001c-19.333 24 -36.666 36 -51.999 36c-4.66699 0 -9.33398 -1.66699 -14.001 -5c-26 -18.667 -38.667 -39.334 -38 -62.001c14.667 -84.667 32.334 -127 53.001 -127c16 0 33.667 10 53 30c19.333 22 28.666 44 27.999 66z" />
    <glyph glyph-name="eacute" unicode="&#xe9;" horiz-adv-x="330" 
d="M284 557c-18.667 0 -40.333 -12.333 -65 -37s-45.667 -37 -63 -37l-14 29c12 0 29.667 12 53 36c22.667 24.667 45.667 37 69 37zM307.001 306c0 -31.333 -21.999 -62.332 -65.999 -92.999l-48 -27.5l-47 -27.5c22 -44.667 64.333 -86.334 127 -125.001l-16 -10l-16 -10
c-24.667 -12.667 -45.334 -20 -62.001 -22c-27.333 0 -61 27.667 -101 83c-42 56.667 -63 109.667 -63 159c0 54 24.667 104.667 74 152c42.667 40.667 80.667 61 114 61c18 0 40.667 -21 68 -63c24 -38 36 -63.667 36 -77zM213.002 280.001
c-1.33301 18.667 -11.333 39.334 -30 62.001c-19.333 24 -36.666 36 -51.999 36c-4.66699 0 -9.33398 -1.66699 -14.001 -5c-26 -18.667 -38.667 -39.334 -38 -62.001c14.667 -84.667 32.334 -127 53.001 -127c16 0 33.667 10 53 30c19.333 22 28.666 44 27.999 66z" />
    <glyph glyph-name="ecircumflex" unicode="&#xea;" horiz-adv-x="330" 
d="M265 508c-13.333 -2.66699 -25.332 -4 -35.999 -4c-24.667 0 -54.334 16.667 -89.001 50c-1.33301 -1.33301 -22.333 -19.333 -63 -54l-16 17l100 92c8.66699 -22.667 21.667 -42.667 39 -60s37.333 -29.333 60 -36zM307.001 306
c0 -31.333 -21.999 -62.332 -65.999 -92.999l-48 -27.5l-47 -27.5c22 -44.667 64.333 -86.334 127 -125.001l-16 -10l-16 -10c-24.667 -12.667 -45.334 -20 -62.001 -22c-27.333 0 -61 27.667 -101 83c-42 56.667 -63 109.667 -63 159c0 54 24.667 104.667 74 152
c42.667 40.667 80.667 61 114 61c18 0 40.667 -21 68 -63c24 -38 36 -63.667 36 -77zM213.002 280.001c-1.33301 18.667 -11.333 39.334 -30 62.001c-19.333 24 -36.666 36 -51.999 36c-4.66699 0 -9.33398 -1.66699 -14.001 -5c-26 -18.667 -38.667 -39.334 -38 -62.001
c14.667 -84.667 32.334 -127 53.001 -127c16 0 33.667 10 53 30c19.333 22 28.666 44 27.999 66z" />
    <glyph glyph-name="edieresis" unicode="&#xeb;" horiz-adv-x="330" 
d="M245 542c0 -20.667 -10 -31 -30 -31c-20.667 0 -31 10.333 -31 31s10.333 31 31 31c20 0 30 -10.333 30 -31zM137 542c0 -20.667 -10.333 -31 -31 -31c-20 0 -30 10.333 -30 31s10 31 30 31c20.667 0 31 -10.333 31 -31zM307 306
c0 -31.333 -21.999 -62.332 -65.999 -92.999l-48 -27.5l-47 -27.5c22 -44.667 64.333 -86.334 127 -125.001l-16 -10l-16 -10c-24.667 -12.667 -45.334 -20 -62.001 -22c-27.333 0 -61 27.667 -101 83c-42 56.667 -63 109.667 -63 159c0 54 24.667 104.667 74 152
c42.667 40.667 80.667 61 114 61c18 0 40.667 -21 68 -63c24 -38 36 -63.667 36 -77zM213.001 280.001c-1.33301 18.667 -11.333 39.334 -30 62.001c-19.333 24 -36.666 36 -51.999 36c-4.66699 0 -9.33398 -1.66699 -14.001 -5c-26 -18.667 -38.667 -39.334 -38 -62.001
c14.667 -84.667 32.334 -127 53.001 -127c16 0 33.667 10 53 30c19.333 22 28.666 44 27.999 66z" />
    <glyph glyph-name="igrave" unicode="&#xec;" 
d="M96 502l-14.001 -29c-17.333 0 -38.333 12.333 -63 37s-46 37 -64 37l19 28c23.333 0 46.333 -12.333 69 -37c22.667 -24 40.334 -36 53.001 -36zM122.999 -2h-91v388l-36 -5l-8 12l135 47v-442z" />
    <glyph glyph-name="iacute" unicode="&#xed;" 
d="M191 557c-19.333 0 -41.333 -12.333 -66 -37s-45 -37 -61 -37l-14 29c12 0 29.667 12 53 36c22.667 24.667 45.667 37 69 37zM123 -2h-91v388l-36 -5l-8 12l135 47v-442z" />
    <glyph glyph-name="icircumflex" unicode="&#xee;" 
d="M178 508c-13.333 -2.66699 -25.334 -4 -36.001 -4c-24.667 0 -54.667 16.667 -90 50c-5.33301 -5.33301 -13.166 -12.333 -23.499 -21l-38.5 -33l-17 17l101 92c6.66699 -21.333 19.667 -41.666 39 -60.999c16.667 -16.667 36.667 -28.334 60 -35.001zM122.999 -2h-91
v388l-36 -5l-8 12l135 47v-442z" />
    <glyph glyph-name="idieresis" unicode="&#xef;" 
d="M163 542c0 -20.667 -10.333 -31 -31 -31s-31 10.333 -31 31s10.333 31 31 31s31 -10.333 31 -31zM55 542c0 -20.667 -10.333 -31 -31 -31s-31 10.333 -31 31s10.333 31 31 31s31 -10.333 31 -31zM123 -2h-91v388l-36 -5l-8 12l135 47v-442z" />
    <glyph glyph-name="ntilde" unicode="&#xf1;" horiz-adv-x="433" 
d="M273 546c1.33301 -13.333 -1.5 -24.8301 -8.5 -34.4971s-15.833 -15.167 -26.5 -16.5c-15.333 -2 -34.666 7.33301 -57.999 28c-24.667 21.333 -44.334 31 -59.001 29c-6 -0.666992 -11.167 -4.83398 -15.5 -12.501s-6.16602 -15.834 -5.49902 -24.501
c0 -2.66699 3 -10 9 -22l-1 -3c-8.66699 8 -14 21 -16 39c-1.33301 14.667 2.5 26.667 11.5 36s19.5 14.666 31.5 15.999c20 2.66699 40.667 -6.66602 62 -27.999c21.333 -20.667 37.666 -30.334 48.999 -29.001c15.333 2 21.333 14.667 18 38c0 8 -3.66699 16.667 -11 26
l4 3c8.66699 -8.66699 14 -23.667 16 -45zM400 198.003c0 -57.333 -17 -112.332 -51 -164.999c-10.667 -16 -25.5 -35.333 -44.5 -58s-42.833 -49 -71.5 -79l-5 6c34 35.333 57.667 73.666 71 114.999c12 36.667 18 82.667 18 138c0 88.667 -39.333 164 -118 226l-81 -31
v-350h-85v386l-35 -5l-7 16l127 43v-56l170 56c74.667 -66 112 -146.667 112 -242z" />
    <glyph glyph-name="ograve" unicode="&#xf2;" horiz-adv-x="421" 
d="M225 502l-14 -29c-17.333 0 -38.333 12.333 -63 37s-46.334 37 -65.001 37l20 28c23.333 0 46.333 -12.333 69 -37c22.667 -24 40.334 -36 53.001 -36zM397 243c0 -80 -69 -166.335 -207 -259.002c-55.333 26.667 -99.333 62.667 -132 108
c-27.333 38.667 -41 74.334 -41 107.001c0 62.667 29.333 121.334 88 176.001c50.667 46.667 93 70 127 70c24 0 56.667 -22 98 -66c44.667 -48.667 67 -94 67 -136zM326 190.998c0 33.333 -22.667 72.668 -68 118.001c-43.333 42 -77.666 63 -102.999 63
c-10.667 0 -24 -11 -40 -33c-18 -24 -27 -46.667 -27 -68c0 -40.667 24 -84.334 72 -131.001c44.667 -43.333 78 -65 100 -65c15.333 0 30.666 14.667 45.999 44c13.333 28 20 52 20 72z" />
    <glyph glyph-name="oacute" unicode="&#xf3;" horiz-adv-x="421" 
d="M310 557c-18.667 0 -40.333 -12.333 -65 -37s-45.667 -37 -63 -37l-14 29c12 0 29.667 12 53 36c22.667 24.667 45.667 37 69 37zM397.001 243c0 -80 -69 -166.335 -207 -259.002c-55.333 26.667 -99.333 62.667 -132 108c-27.333 38.667 -41 74.334 -41 107.001
c0 62.667 29.333 121.334 88 176.001c50.667 46.667 93 70 127 70c24 0 56.667 -22 98 -66c44.667 -48.667 67 -94 67 -136zM326.001 190.998c0 33.333 -22.667 72.668 -68 118.001c-43.333 42 -77.666 63 -102.999 63c-10.667 0 -24 -11 -40 -33
c-18 -24 -27 -46.667 -27 -68c0 -40.667 24 -84.334 72 -131.001c44.667 -43.333 78 -65 100 -65c15.333 0 30.666 14.667 45.999 44c13.333 28 20 52 20 72z" />
    <glyph glyph-name="ocircumflex" unicode="&#xf4;" horiz-adv-x="421" 
d="M313 508c-12.667 -2.66699 -24.666 -4 -35.999 -4c-24.667 0 -54.334 16.667 -89.001 50c-1.33301 -1.33301 -22.333 -19.333 -63 -54l-16 17l100 92c8.66699 -22.667 21.667 -42.667 39 -60s37.333 -29.333 60 -36zM397.001 243c0 -80 -69 -166.335 -207 -259.002
c-55.333 26.667 -99.333 62.667 -132 108c-27.333 38.667 -41 74.334 -41 107.001c0 62.667 29.333 121.334 88 176.001c50.667 46.667 93 70 127 70c24 0 56.667 -22 98 -66c44.667 -48.667 67 -94 67 -136zM326.001 190.998c0 33.333 -22.667 72.668 -68 118.001
c-43.333 42 -77.666 63 -102.999 63c-10.667 0 -24 -11 -40 -33c-18 -24 -27 -46.667 -27 -68c0 -40.667 24 -84.334 72 -131.001c44.667 -43.333 78 -65 100 -65c15.333 0 30.666 14.667 45.999 44c13.333 28 20 52 20 72z" />
    <glyph glyph-name="otilde" unicode="&#xf5;" horiz-adv-x="421" 
d="M290 546c3.33301 -31.333 -8.33105 -48.3301 -34.998 -50.9971c-15.333 -2 -34.666 7.33301 -57.999 28c-24.667 21.333 -44.334 31 -59.001 29c-6 -0.666992 -11.333 -4.83398 -16 -12.501s-6.33398 -15.834 -5.00098 -24.501c0.666992 -1.33301 1.66699 -4 3 -8
s3.33301 -8.66699 6 -14l-1 -3c-8.66699 8 -14 21 -16 39c-1.33301 14.667 2.5 26.667 11.5 36s19.5 14.666 31.5 15.999c19.333 2.66699 40.333 -6.66602 63 -27.999c21.333 -20.667 37.666 -30.334 48.999 -29.001c13.333 1.33301 19.333 14 18 38
c-0.666992 8 -4.66699 16.667 -12 26l4 3c8.66699 -8.66699 14 -23.667 16 -45zM397.003 243.003c0 -80 -69 -166.335 -207 -259.002c-55.333 26.667 -99.333 62.667 -132 108c-27.333 38.667 -41 74.334 -41 107.001c0 62.667 29.333 121.334 88 176.001
c50.667 46.667 93 70 127 70c24 0 56.667 -22 98 -66c44.667 -48.667 67 -94 67 -136zM326.003 191.001c0 33.333 -22.667 72.668 -68 118.001c-43.333 42 -77.666 63 -102.999 63c-10.667 0 -24 -11 -40 -33c-18 -24 -27 -46.667 -27 -68c0 -40.667 24 -84.334 72 -131.001
c44.667 -43.333 78 -65 100 -65c15.333 0 30.666 14.667 45.999 44c13.333 28 20 52 20 72z" />
    <glyph glyph-name="odieresis" unicode="&#xf6;" horiz-adv-x="421" 
d="M282 542c0 -20.667 -10.333 -31 -31 -31s-31 10.333 -31 31s10.333 31 31 31s31 -10.333 31 -31zM173 542c0 -20.667 -10.333 -31 -31 -31c-20 0 -30 10.333 -30 31s10 31 30 31c20.667 0 31 -10.333 31 -31zM397 243c0 -80 -69 -166.335 -207 -259.002
c-55.333 26.667 -99.333 62.667 -132 108c-27.333 38.667 -41 74.334 -41 107.001c0 62.667 29.333 121.334 88 176.001c50.667 46.667 93 70 127 70c24 0 56.667 -22 98 -66c44.667 -48.667 67 -94 67 -136zM326 190.998c0 33.333 -22.667 72.668 -68 118.001
c-43.333 42 -77.666 63 -102.999 63c-10.667 0 -24 -11 -40 -33c-18 -24 -27 -46.667 -27 -68c0 -40.667 24 -84.334 72 -131.001c44.667 -43.333 78 -65 100 -65c15.333 0 30.666 14.667 45.999 44c13.333 28 20 52 20 72z" />
    <glyph glyph-name="divide" unicode="&#xf7;" horiz-adv-x="268" 
d="M193 411c0 -16.667 -5.83105 -30.834 -17.498 -42.501s-25.834 -17.5 -42.501 -17.5s-30.834 5.83301 -42.501 17.5s-17.5 25.834 -17.5 42.501s5.83301 30.834 17.5 42.501s25.834 17.5 42.501 17.5c17.333 0 31.666 -5.83301 42.999 -17.5s17 -25.834 17 -42.501z
M242.002 257h-220v48h220v-48zM193.002 143c0 -16.667 -5.83105 -30.834 -17.498 -42.501s-25.834 -17.5 -42.501 -17.5s-30.834 5.83301 -42.501 17.5s-17.5 25.834 -17.5 42.501s5.83301 30.834 17.5 42.501s25.834 17.5 42.501 17.5
c17.333 0 31.666 -5.83301 42.999 -17.5s17 -25.834 17 -42.501z" />
    <glyph glyph-name="oslash" unicode="&#xf8;" horiz-adv-x="421" 
d="M397 243c0 -80 -69 -166.331 -207 -258.998c-8.66699 4.66699 -16.167 8.5 -22.5 11.5s-11.5 5.83301 -15.5 8.5l-18 -54l-33 -2l25 74c-35.333 27.333 -63 58.333 -83 93c-17.333 31.333 -26 59.333 -26 84c0 62.667 29.333 121.334 88 176.001
c50.667 46.667 93 70 127 70c8.66699 0 20 -4 34 -12l16 46h31c-3.33301 -10.667 -7 -21.334 -11 -32.001s-7.66699 -21.334 -11 -32.001c27.333 -21.333 51.333 -47 72 -77c22.667 -34.667 34 -66.334 34 -95.001zM326 191.002c0 34.667 -23.333 74.333 -70 119l-67 -197
c32.667 -25.333 56.334 -38 71.001 -38c15.333 0 30.666 14.667 45.999 44c13.333 28 20 52 20 72zM232 331.001c-33.333 27.333 -59 40.999 -77 40.999c-10.667 0 -24 -11 -40 -33c-18 -24 -27 -46.667 -27 -68c0 -43.333 25.667 -88.666 77 -135.999z" />
    <glyph glyph-name="ugrave" unicode="&#xf9;" horiz-adv-x="397" 
d="M245 502l-12.999 -29c-17.333 0 -38.333 12.333 -63 37s-46.334 37 -65.001 37l20 28c23.333 0 46.333 -12.333 69 -37c22.667 -24 40 -36 52 -36zM368.001 0l-85.998 -1.99902v53l-160 -57c-75.333 65.333 -113 146 -113 242c0 38.667 10 75 30 109
c7.33301 12.667 16.166 25.167 26.499 37.5s22.166 24.833 35.499 37.5l25.5 21.5l25.5 21.5l5 -6c-42.667 -36 -64 -95 -64 -177c0 -88.667 39 -164.334 117 -227.001l72 31v297l-38 -5l-8 12l132 46v-434z" />
    <glyph glyph-name="uacute" unicode="&#xfa;" horiz-adv-x="397" 
d="M320 557c-18.667 0 -40.332 -12.333 -64.999 -37s-45.667 -37 -63 -37l-13 29c11.333 0 28.666 12 51.999 36c22.667 24.667 45.667 37 69 37zM368.002 0l-85.998 -1.99902v53l-160 -57c-75.333 65.333 -113 146 -113 242c0 38.667 10 75 30 109
c7.33301 12.667 16.166 25.167 26.499 37.5s22.166 24.833 35.499 37.5l25.5 21.5l25.5 21.5l5 -6c-42.667 -36 -64 -95 -64 -177c0 -88.667 39 -164.334 117 -227.001l72 31v297l-38 -5l-8 12l132 46v-434z" />
    <glyph glyph-name="ucircumflex" unicode="&#xfb;" horiz-adv-x="397" 
d="M312 508c-13.333 -2.66699 -25.333 -3.99902 -36 -3.99902c-24.667 0 -54.667 16.667 -90 50c-0.666992 -0.666992 -6 -5.5 -16 -14.5l-46 -39.5l-17 17l101 92c6.66699 -22.667 19.667 -43 39 -61c18 -16.667 37.667 -28.334 59 -35.001zM368 0.000976562
l-85.998 -1.99902v53l-160 -57c-75.333 65.333 -113 146 -113 242c0 38.667 10 75 30 109c7.33301 12.667 16.166 25.167 26.499 37.5s22.166 24.833 35.499 37.5l25.5 21.5l25.5 21.5l5 -6c-42.667 -36 -64 -95 -64 -177c0 -88.667 39 -164.334 117 -227.001l72 31v297
l-38 -5l-8 12l132 46v-434z" />
    <glyph glyph-name="udieresis" unicode="&#xfc;" horiz-adv-x="397" 
d="M302 542c0 -20.667 -10.333 -31 -31 -31s-31 10.333 -31 31s10.333 31 31 31s31 -10.333 31 -31zM194 542c0 -20.667 -10.333 -31 -31 -31s-31 10.333 -31 31s10.333 31 31 31s31 -10.333 31 -31zM368 0l-85.998 -1.99902v53l-160 -57c-75.333 65.333 -113 146 -113 242
c0 38.667 10 75 30 109c7.33301 12.667 16.166 25.167 26.499 37.5s22.166 24.833 35.499 37.5l25.5 21.5l25.5 21.5l5 -6c-42.667 -36 -64 -95 -64 -177c0 -88.667 39 -164.334 117 -227.001l72 31v297l-38 -5l-8 12l132 46v-434z" />
    <glyph glyph-name="ydieresis" unicode="&#xff;" horiz-adv-x="450" 
d="M307 542c0 -20.667 -10.333 -31 -31 -31s-31 10.333 -31 31s10.333 31 31 31s31 -10.333 31 -31zM199 542c0 -20.667 -10.333 -31 -31 -31s-31 10.333 -31 31s10.333 31 31 31s31 -10.333 31 -31zM421 304c0 -65.333 -18.333 -124.666 -55 -177.999l-51 -62l-51 -62
c-36.667 -46.667 -55 -93 -55 -139c0 -20.667 4.33301 -40 13 -58c1.33301 -2 4.33301 -7.33301 9 -16s11.667 -20.667 21 -36h-112c-4.66699 18.667 -7 33.334 -7 44.001c0 47.333 27.333 106.666 82 177.999l-174 403l-41 -11l-6 11l125 59l162 -373
c45.333 67.333 68 129.666 68 186.999c0 26 -12.667 50.667 -38 74c-14 12 -41.333 30 -82 54l136 57l20 -25.5l20 -25.5c10.667 -16.667 16 -43.667 16 -81z" />
    <glyph glyph-name="dotlessi" unicode="&#x131;" 
d="M123 -2h-91v388l-36 -5l-8 12l135 47v-442z" />
    <glyph glyph-name="OE" unicode="&#x152;" horiz-adv-x="1030" 
d="M1000 105l-139.997 -107.998c-62.667 44.667 -129.667 67 -201 67c-46 0 -91 -10 -135 -30c-30.667 -14.667 -69.334 -39 -116.001 -73h-4c0.666992 13.333 9 30 25 50c10.667 12.667 18.667 22.5 24 29.5s8.66602 11.167 9.99902 12.5l11 20v3
c-50 -46 -107.667 -77.333 -173 -94c-90.667 47.333 -159 99 -205 155c-52 64.667 -78 141 -78 229c0 151.333 71.333 262 214 332l26 -16c28 10.667 58.667 16 92 16c36 0 73.333 -19.333 112 -58c4 -0.666992 8 -1 12 -1h12c29.333 0 74 8 134 24
c60 16.667 106.333 25 139 25c32 0 61 -5.33301 87 -16l67 -27l70 31l4 -9c-40 -26.667 -73.667 -50.167 -101 -70.5s-48.333 -38.166 -63 -53.499c-50.667 -50.667 -76 -105.334 -76 -164.001c0 -34.667 12 -65.334 36 -92.001s53 -40 87 -40c14.667 0 28.667 2.66699 42 8
s25 12.833 35 22.5s17.833 20.834 23.5 33.501s8.5 26.667 8.5 42c0 12 -2.33301 23.333 -7 34s-11.167 20 -19.5 28s-18 14.167 -29 18.5s-22.833 6.5 -35.5 6.5c-22 0 -41 -6.83301 -57 -20.5s-24 -30.834 -24 -51.501c0 -10 2.16699 -19.5 6.5 -28.5s10 -16.833 17 -23.5
s14.833 -12 23.5 -16s17.667 -6 27 -6c14.667 0 27 5.5 37 16.5s15 24.167 15 39.5c0 12.667 -4.33301 23.167 -13 31.5s-19.334 12.5 -32.001 12.5c-9.33301 0 -17.666 -3.5 -24.999 -10.5s-11 -14.167 -11 -21.5c0 -4.66699 1 -6.33398 3 -5.00098
c6.66699 10.667 14.334 16 23.001 16c16.667 0 25 -8.33301 25 -25s-8.33301 -25 -25 -25c-11.333 0 -21.166 4.16699 -29.499 12.5s-12.5 17.833 -12.5 28.5c0 13.333 5.83301 24.833 17.5 34.5s24.5 14.5 38.5 14.5c16 0 30.167 -6.16699 42.5 -18.5
s18.5 -26.5 18.5 -42.5c0 -10 -2 -19.667 -6 -29s-9.33301 -17.5 -16 -24.5s-14.334 -12.5 -23.001 -16.5s-18 -6 -28 -6c-24.667 0 -46.334 9.33301 -65.001 28s-28 41 -28 67c0 24 10.333 44.333 31 61c21.333 17.333 44.666 26.333 69.999 27
c29.333 1.33301 55 -8.66699 77 -30s33 -46 33 -74c0 -33.333 -12.667 -63.333 -38 -90c-25.333 -25.333 -55 -38 -89 -38c-28.667 0 -55.667 9 -81 27s-43.333 40.333 -54 67h-153v-197c48 15.333 100 23 156 23c66.667 0 133.667 -18 201 -54l59 31zM816.003 576.002
c-36.667 38.667 -84.333 58.001 -143 58.001c-30 0 -60 -5.33301 -90 -16v-184h149c20.667 61.333 48.667 108.666 84 141.999zM724.004 367.003c-0.666992 5.33301 -1.16699 9.16895 -1.5 11.502s-0.5 3.16602 -0.5 2.49902c0 -1.33301 0.166992 -1.33301 0.5 0
s0.833008 4.33301 1.5 9h-141c0.666992 -2.66699 1 -5.83398 1 -9.50098s0.333008 -8.16699 1 -13.5h139zM474.004 264.006l0.00195312 297.002c-34 67.333 -81.333 101 -142 101c-5.33301 0 -11.333 -0.5 -18 -1.5l-23 -3.5l57 -59
c-78.667 -6.66699 -142.667 -37.334 -192 -92.001c0 -36 13.333 -70.333 40 -103c28.667 -36.667 62 -55 100 -55c30.667 0 56.667 10.333 78 31c22 20.667 33 45.334 33 74.001c0 24.667 -7.5 45.5 -22.5 62.5s-33.167 25.5 -54.5 25.5c-48 0 -73 -21.667 -75 -65
c-2 -38 16 -57 54 -57c13.333 0 21.666 3.66699 24.999 11c-24 2.66699 -36 14 -36 34c0 9.33301 3.5 17.666 10.5 24.999s14.833 11 23.5 11c11.333 0 20.333 -4 27 -12s10 -16 10 -24c0 -23.333 -7 -41 -21 -53c-11.333 -9.33301 -23.333 -14 -36 -14
c-24 0 -43.667 8.16699 -59 24.5s-22 36.5 -20 60.5c2 23.333 12 42.333 30 57s39.333 22 64 22c14 0 27.167 -2.83301 39.5 -8.5s23 -13.167 32 -22.5s16 -20.5 21 -33.5s7.5 -26.5 7.5 -40.5c0 -36.667 -13 -67.334 -39 -92.001c-24.667 -24.667 -55.334 -37 -92.001 -37
c-52 0 -111.333 40 -178 120c-16.667 -32.667 -25 -71 -25 -115c0 -56.667 13 -112 39 -166c26.667 -56 55.667 -84 87 -84c44.667 0 91.667 17 141 51c49.333 35.333 87.333 79 114 131z" />
    <glyph glyph-name="oe" unicode="&#x153;" horiz-adv-x="645" 
d="M616 306c0 -31.333 -21.999 -62.334 -65.999 -93.001l-48 -27.5l-47 -27.5c22 -44.667 64.333 -86.334 127 -125.001l-16 -10l-16 -10c-24.667 -12.667 -45.334 -20 -62.001 -22c-18 0 -40.333 14 -67 42c-26 26.667 -48.667 59 -68 97
c-37.333 -50 -91.666 -98.667 -162.999 -146c-55.333 26.667 -99.333 62.667 -132 108c-27.333 38.667 -41 74.334 -41 107.001c0 62.667 29.333 121.334 88 176.001c50.667 46.667 93 70 127 70c14.667 0 34.667 -10.333 60 -31c26.667 -21.333 49.667 -45.666 69 -72.999
c19.333 29.333 45.333 54.666 78 75.999c29.333 19.333 53.666 29 72.999 29c18 0 40.667 -21 68 -63c24 -38 36 -63.667 36 -77zM522.001 279.999c-1.33301 18.667 -11.333 39.334 -30 62.001c-19.333 24 -36.666 36 -51.999 36c-4.66699 0 -9.33398 -1.66699 -14.001 -5
c-26 -18.667 -38.667 -39.334 -38 -62.001c14.667 -84.667 32.334 -127 53.001 -127c16 0 33.667 10 53 30c19.333 22 28.666 44 27.999 66zM326.001 190.999c0 33.333 -22.667 72.668 -68 118.001c-43.333 42 -77.666 63 -102.999 63c-10.667 0 -24 -11 -40 -33
c-18 -24 -27 -46.667 -27 -68c0 -40.667 24 -84.334 72 -131.001c44.667 -43.333 78 -65 100 -65c15.333 0 30.666 14.667 45.999 44c13.333 28 20 52 20 72z" />
    <glyph glyph-name="Ydieresis" unicode="&#x178;" horiz-adv-x="573" 
d="M381 765c0 -20.667 -10.333 -31 -31 -31s-31 10.333 -31 31s10.333 31 31 31s31 -10.333 31 -31zM273 765c0 -20.667 -10.333 -31 -31 -31s-31 10.333 -31 31s10.333 31 31 31s31 -10.333 31 -31zM551 672c-18 -11.333 -37 -47.9951 -57 -109.995
c-32.667 -106 -53.667 -170.667 -63 -194c32 -37.333 47 -79.333 45 -126c-1.33301 -38 -13.5 -70.667 -36.5 -98s-52.5 -45.333 -88.5 -54v-92l-93 2v92c-33.333 11.333 -59 28 -77 50c-21.333 25.333 -32 53.666 -32 84.999c0 25.333 6.33301 48.666 19 69.999
c-50.667 84 -92 191 -124 321l-29 -10l-10 10l139 57c0 -104.667 36.667 -209.334 110 -314.001c6 0.666992 11.167 1.16699 15.5 1.5s8.16602 0.5 11.499 0.5c44.667 0 80.667 -10.667 108 -32c6.66699 12 12.667 25 18 39c-16.667 15.333 -40 30.333 -70 45
c17.333 1.33301 43 -8.33398 77 -29.001c22.667 56 34 96.333 34 121c0 24 -3.33301 46 -10 66s-16.167 37.167 -28.5 51.5s-27 25.5 -44 33.5s-35.833 12 -56.5 12c-27.333 0 -50.333 -10 -69 -30c-19.333 -20.667 -29 -44.334 -29 -71.001
c0 -13.333 2.33301 -25.833 7 -37.5s11 -22 19 -31s17.5 -16.167 28.5 -21.5s22.833 -8 35.5 -8c22.667 0 42.167 8.16699 58.5 24.5s24.5 35.833 24.5 58.5c0 18.667 -7.83301 34 -23.5 46s-33.834 18 -54.501 18c-12 0 -22.667 -4.5 -32 -13.5s-14 -19.833 -14 -32.5
c0 -32.667 13 -49 39 -49c16 0 24 6.33301 24 19c-18 0 -27 8.66699 -27 26c0 16.667 9 25 27 25s27 -12.667 27 -38c0 -14 -5.33301 -25.5 -16 -34.5s-22.334 -13.5 -35.001 -13.5c-16 0 -29 6.5 -39 19.5s-15 28.167 -15 45.5c0 16.667 6.16699 31 18.5 43
s26.5 18 42.5 18c12.667 0 24.834 -1.83301 36.501 -5.5s21.834 -9 30.501 -16s15.667 -15.333 21 -25s8 -20.5 8 -32.5c0 -14 -2.66699 -26.833 -8 -38.5s-12.5 -22 -21.5 -31s-19.667 -16 -32 -21s-25.5 -7.5 -39.5 -7.5c-15.333 0 -29.5 3 -42.5 9s-24.333 14 -34 24
s-17.167 21.833 -22.5 35.5s-8 28.5 -8 44.5c0 34 10.333 61.333 31 82c24 24.667 58 37 102 37c22.667 0 49.334 -4.33301 80.001 -13c32 -8.66699 57.667 -13 77 -13c18 0 39.667 4 65 12zM458 242.005c0 46 -11.334 82.668 -34.001 110.001
c-5.33301 -13.333 -11.666 -26.666 -18.999 -39.999c13.333 -16.667 20 -39 20 -67c0 -40 -12 -60 -36 -60c-13.333 0 -20 6.33301 -20 19s6.33301 19 19 19c2.66699 0 6.66699 -1 12 -3c4.66699 7.33301 7 18 7 32c0 15.333 -3.66699 28.666 -11 39.999
c-16.667 -30 -34 -56 -52 -78c5.33301 -14 7.33301 -27.667 6 -41v-63c32 7.33301 58 23.166 78 47.499s30 52.5 30 84.5zM378.999 312.006c-24 22 -56 33 -96 33c-8.66699 0 -14.334 -0.333008 -17.001 -1c33.333 -44 55.333 -77.333 66 -100
c8.66699 10 16.834 20.667 24.501 32s15.167 23.333 22.5 36zM257.999 113.006l0.000976562 8c0 26 -7 51 -21 75l-27.5 40l-27.5 40c-8 -14 -12 -30.333 -12 -49c-0.666992 -56.667 28.666 -94.667 87.999 -114z" />
    <glyph glyph-name="florin" unicode="&#x192;" horiz-adv-x="412" 
d="M399 727c0 -24.667 -5.6709 -45.166 -17.0039 -61.499s-25.666 -24.5 -42.999 -24.5c-14.667 0 -27.167 5.66699 -37.5 17s-15.5 27.333 -15.5 48c0 13.333 4.66699 24 14 32c6.66699 6 14.334 9 23.001 9c22 0 33 -13.667 33 -41c0 -15.333 -6.33301 -27.333 -19 -36
c9.33301 0 18.333 5.5 27 16.5s13 24.5 13 40.5c0 19.333 -6.33301 34.666 -19 45.999s-28.334 17 -47.001 17s-34.334 -12 -47.001 -36c-18 -33.333 -27 -82.666 -27 -147.999c0 9.33301 1 -9 3 -55c36 6 68 6.66699 96 2v-120c-25.333 24 -54.666 39.667 -87.999 47
l21 -202.5c4.66699 -45.667 7 -70.5 7 -74.5c-0.666992 -84.667 -27 -144 -79 -178c-29.333 -18 -61.666 -27 -96.999 -27c-26 0 -47.333 7.33301 -64 22c-20 16.667 -30 40.667 -30 72c0 25.333 5.83301 46.166 17.5 62.499s25.834 24.5 42.501 24.5
c14.667 0 27.167 -5.83301 37.5 -17.5s15.5 -27.5 15.5 -47.5c0 -13.333 -4.66699 -24.666 -14 -33.999c-7.33301 -6 -15 -9 -23 -9c-8.66699 0 -16.334 4.16699 -23.001 12.5s-10 18.5 -10 30.5c0 15.333 6.33301 27 19 35c-9.33301 0 -18.333 -5.5 -27 -16.5
s-13 -24.5 -13 -40.5c0 -19.333 6.33301 -34.5 19 -45.5s28.334 -16.5 47.001 -16.5c18 0 33.667 12 47 36c18 32.667 27 82.334 27 149.001c0 3.33301 -2.33301 26.333 -7 69l-21 190c-16 -4.66699 -31.333 -10 -46 -16s-28.667 -13.333 -42 -22l-4 21
c5.33301 5.33301 15.5 12.666 30.5 21.999l57.5 36c-2.66699 19.333 -4.5 37.166 -5.5 53.499s-1.5 31.833 -1.5 46.5c0 85.333 26.333 145 79 179c28.667 18 61.334 27 98.001 27c25.333 0 46.333 -7.33301 63 -22c20 -17.333 30 -41.333 30 -72z" />
    <glyph glyph-name="circumflex" unicode="&#x2c6;" horiz-adv-x="250" 
d="M219 724c-13.333 -2.66699 -25.3311 -3.99902 -35.998 -3.99902c-24.667 0 -54.334 16.667 -89.001 50c-0.666992 -0.666992 -6.16699 -5.33398 -16.5 -14.001l-46.5 -39l-16 16l100 92c7.33301 -20 20.666 -40.333 39.999 -61c15.333 -16.667 35 -28 59 -34z" />
    <glyph glyph-name="caron" unicode="&#x2c7;" horiz-adv-x="250" 
d="M219 809l-5.00195 -6c-24 -6 -43.667 -17.333 -59 -34c-19.333 -20.667 -32.666 -41 -39.999 -61l-100 92l16 16l63 -53c34.667 33.333 64.334 50 89.001 50c10.667 0 22.667 -1.33301 36 -4z" />
    <glyph glyph-name="breve" unicode="&#x2d8;" horiz-adv-x="250" 
d="M229 784c-23.333 -50 -55.667 -78.334 -97 -85.001c-19.333 -3.33301 -40.333 1 -63 13c-26 13.333 -40.333 29.333 -43 48c-4 23.333 2.33301 43.333 19 60l29 -28c-15.333 -13.333 -23 -28.666 -23 -45.999s9.66699 -26 29 -26c22 0 49 14 81 42s44 47 36 57z" />
    <glyph glyph-name="dotaccent" unicode="&#x2d9;" 
d="M132 561c0 -16 -5.66699 -29.667 -17 -41s-24.666 -17 -39.999 -17c-16 0 -29.667 5.66699 -41 17s-17 25 -17 41c0 15.333 5.66699 28.666 17 39.999s25 17 41 17c15.333 0 28.666 -5.66699 39.999 -17s17 -24.666 17 -39.999z" />
    <glyph glyph-name="ring" unicode="&#x2da;" horiz-adv-x="196" 
d="M165 757c0 -18.667 -6.5 -34.5 -19.5 -47.5s-28.833 -19.5 -47.5 -19.5s-34.5 6.5 -47.5 19.5s-19.5 28.833 -19.5 47.5s6.5 34.5 19.5 47.5s28.833 19.5 47.5 19.5s34.5 -6.5 47.5 -19.5s19.5 -28.833 19.5 -47.5zM125 757c0 18.667 -9 28 -27 28
c-18.667 0 -28 -9.33301 -28 -28c0 -18 9.33301 -27 28 -27c18 0 27 9 27 27z" />
    <glyph glyph-name="ogonek" unicode="&#x2db;" horiz-adv-x="206" 
d="M210 -173c-37.333 2 -69.667 9.99902 -97 23.999c-64.667 32.667 -97 93.334 -97 182.001l53 1c0 -105.333 47 -174.333 141 -207z" />
    <glyph glyph-name="tilde" unicode="&#x2dc;" horiz-adv-x="221" 
d="M203 773c2.66699 -31.333 -9.33301 -48.332 -36 -50.999c-14.667 -1.33301 -33.667 8.33398 -57 29.001c-24 20.667 -43.667 30 -59 28c-6 -0.666992 -11.5 -4.83398 -16.5 -12.501s-6.83301 -15.834 -5.5 -24.501c1.33301 -3.33301 2.83301 -6.83301 4.5 -10.5
l5.5 -12.5l-1 -2c-9.33301 8 -15 20.667 -17 38c-3.33301 31.333 11 49 43 53c19.333 2.66699 40.333 -6.66602 63 -27.999c21.333 -20.667 37.666 -30.334 48.999 -29.001c15.333 2 21.333 14.667 18 38c0 8 -3.66699 16.667 -11 26l3 2
c10.667 -11.333 16.334 -26 17.001 -44z" />
    <glyph glyph-name="hungarumlaut" unicode="&#x2dd;" horiz-adv-x="294" 
d="M274 789c-18.667 0 -40.333 -12.333 -65 -37s-45.667 -37 -63 -37l-14 29c12 0 29.667 12 53 36c22.667 24.667 45.667 37 69 37zM161.001 789c-19.333 0 -41.332 -12.333 -65.999 -37s-45.334 -37 -62.001 -37l-14 29c12 0 29.667 12 53 36
c22.667 24.667 45.667 37 69 37z" />
    <glyph glyph-name="Delta" unicode="&#x394;" horiz-adv-x="739" 
d="M731 -4h-722l382 825zM583 53l-233 563l-263 -563h496z" />
    <glyph glyph-name="Delta" unicode="&#x2206;" horiz-adv-x="739" 
d="M731 -4h-722l382 825zM583 53l-233 563l-263 -563h496z" />
    </font>
</defs>
</svg>
